<?xml version="1.0" standalone="no"?>
<!DOCTYPE svg PUBLIC "-//W3C//DTD SVG 1.1//EN" "http://www.w3.org/Graphics/SVG/1.1/DTD/svg11.dtd" >
<svg xmlns="http://www.w3.org/2000/svg" xmlns:xlink="http://www.w3.org/1999/xlink" version="1.1">
<metadata>
Created by FontForge 20170910 at Sat Oct 31 20:38:36 2009
 By Jimmy Wärting
Fedra Sans is a contemporary sans serif typeface developed for visual identities, designed to work equally well on paper and on the computer screen.
</metadata>
<defs>
<font id="FedraSansPro-BookItalic" horiz-adv-x="559" >
  <font-face 
    font-family="Fedra Sans Pro Book"
    font-weight="400"
    font-style="italic"
    font-stretch="normal"
    units-per-em="1000"
    panose-1="2 11 4 3 4 0 0 9 0 4"
    ascent="780"
    descent="-220"
    x-height="546"
    cap-height="707"
    bbox="-480 -288 1318 1047"
    underline-thickness="50"
    underline-position="-100"
    slope="-6"
    stemh="65"
    stemv="32"
    unicode-range="U+0020-FB04"
  />
<missing-glyph horiz-adv-x="712" 
d="M305 375v27h27v-27h-27zM380 525v27h27v-27h-27zM305 525v27h27v-27h-27zM230 525v27h27v-27h-27zM80 0v27h27v-27h-27zM155 0v27h27v-27h-27zM230 0v27h27v-27h-27zM305 0v27h27v-27h-27zM380 0v27h27v-27h-27zM80 75v27h27v-27h-27zM80 150v27h27v-27h-27zM80 225v27
h27v-27h-27zM80 300v27h27v-27h-27zM80 375v27h27v-27h-27zM80 450v27h27v-27h-27zM80 525v27h27v-27h-27zM80 600v27h27v-27h-27zM80 675v27h27v-27h-27zM155 675v27h27v-27h-27zM230 675v27h27v-27h-27zM305 675v27h27v-27h-27zM380 675v27h27v-27h-27zM455 675v27h27v-27
h-27zM530 675v27h27v-27h-27zM530 0v27h27v-27h-27zM455 0v27h27v-27h-27zM605 0v27h27v-27h-27zM605 675v27h27v-27h-27zM305 300v27h27v-27h-27zM305 150v27h27v-27h-27zM380 375v27h27v-27h-27zM455 375v27h27v-27h-27zM455 450v27h27v-27h-27zM455 525v27h27v-27h-27z
M605 600v27h27v-27h-27zM605 525v27h27v-27h-27zM605 375v27h27v-27h-27zM605 300v27h27v-27h-27zM605 150v27h27v-27h-27zM605 75v27h27v-27h-27zM605 225v27h27v-27h-27zM605 450v27h27v-27h-27z" />
    <glyph glyph-name="fi" unicode="fi" horiz-adv-x="558" 
d="M48 -205l73 688h-80l7 63h80l3 26c17 159 101 202 203 202c38 0 97 -7 151 -7c23 0 45 3 64 5l9 -56c-31 -11 -71 -15 -107 -15c-48 0 -94 6 -125 6c-84 0 -110 -54 -120 -136l-2 -25h301l-57 -546h-76l50 483h-225l-73 -688h-76z" />
    <glyph glyph-name="fl" unicode="fl" horiz-adv-x="557" 
d="M49 -205l72 688h-80l7 63h80l3 26c17 159 101 202 203 202c41 0 94 -7 145 -7c17 0 34 0 50 2l-82 -769h-75l74 703c-40 -2 -86 4 -120 4c-84 0 -110 -54 -120 -136l-2 -25h116l-7 -63h-116l-72 -688h-76z" />
    <glyph glyph-name="f_idieresis" unicode="f&#xef;" horiz-adv-x="563" 
d="M49 -205l72 688h-80l7 63h80l6 60c10 121 75 168 155 168c35 0 64 -9 88 -20l-20 -61c-23 10 -39 16 -74 16c-46 0 -69 -38 -75 -98l-6 -65h119l-6 -63h-119l-73 -688h-74zM377 0l57 546h76l-57 -546h-76zM427 657l-50 58l62 58l51 -58zM581 657l-50 58l62 58l51 -58z
" />
    <glyph glyph-name="f_igrave" unicode="f&#xec;" horiz-adv-x="563" 
d="M49 -205l72 688h-80l7 63h80l6 60c10 121 75 168 155 168c35 0 64 -9 88 -20l-20 -61c-23 10 -39 16 -74 16c-46 0 -69 -38 -75 -98l-6 -65h119l-6 -63h-119l-73 -688h-74zM507 609l-108 145l56 43l96 -153zM377 0l57 546h76l-57 -546h-76z" />
    <glyph glyph-name="f_h" unicode="fh" horiz-adv-x="851" 
d="M48 -205l73 688h-80l7 63h80l3 26c16 159 101 202 203 202c41 0 94 -7 145 -7c17 0 34 0 50 2l-32 -315c41 31 133 106 199 106c74 0 95 -27 95 -89c0 -22 -3 -47 -6 -77l-42 -394h-76l41 378c3 29 6 50 6 67c0 32 -10 44 -48 44c-39 0 -152 -87 -177 -102l-41 -387h-76
l73 702c-31 -1 -93 5 -119 5c-84 0 -111 -54 -120 -136l-2 -25h116l-7 -63h-116l-73 -688h-76z" />
    <glyph glyph-name="f_b" unicode="fb" horiz-adv-x="856" 
d="M517 -8c-59 0 -101 10 -143 22l72 689c-39 -2 -86 4 -120 4c-84 0 -110 -54 -120 -136l-2 -25h116l-7 -63h-116l-72 -688h-76l72 688h-80l7 63h80l3 26c17 159 101 202 203 202c41 0 94 -7 145 -7c17 0 35 0 51 2l-32 -298c49 33 117 78 190 78c84 0 123 -57 123 -160
c0 -173 -87 -397 -294 -397zM524 56c160 0 209 211 209 333c0 76 -26 93 -64 93c-52 0 -134 -47 -179 -77l-35 -339c27 -6 39 -10 69 -10z" />
    <glyph glyph-name="f_j" unicode="fj" 
d="M243 -222c-34 0 -54 6 -67 11l20 62c5 -2 21 -6 56 -6c83 0 111 55 119 137l52 501h-225l-72 -688h-76l72 688h-80l6 63h80l3 26c17 159 101 202 203 202c38 0 96 -5 151 -5c23 0 45 1 64 3l5 -57c-30 -11 -67 -14 -102 -14c-48 1 -94 6 -125 6c-85 0 -111 -54 -120 -136
l-3 -25h302l-59 -565c-17 -159 -102 -203 -204 -203z" />
    <glyph glyph-name="f_k" unicode="fk" horiz-adv-x="809" 
d="M50 -205l72 688h-80l6 63h80l3 26c17 159 102 202 203 202c40 0 94 -7 145 -7c17 -1 34 0 50 2l-81 -769h-76l74 703c-39 -2 -85 4 -120 4c-83 0 -111 -54 -119 -136l-3 -25h116l-6 -63h-116l-72 -688h-76zM692 -14l-191 302l201 258h89l-202 -255l180 -280z" />
    <glyph glyph-name="f_f" unicode="ff" horiz-adv-x="609" 
d="M50 -205l72 688h-80l7 63h79l6 48c16 155 124 180 225 180c72 0 128 -15 160 -28c41 23 91 28 139 28c34 0 96 -13 110 -19l-21 -60c1 -1 -55 13 -98 13c-83 0 -135 -32 -143 -114l-6 -48h120l-7 -63h-119l-73 -688h-74l73 688h-225l-71 -688h-74zM202 546h225l5 48
c4 42 15 74 31 99c-34 8 -86 15 -112 15c-84 0 -135 -32 -144 -114z" />
    <glyph glyph-name="f_f_i" unicode="ffi" horiz-adv-x="857" 
d="M50 -205l72 688h-80l7 63h79l6 48c16 155 124 180 226 180c34 0 142 -21 158 -27c34 20 72 27 115 27c38 0 97 -5 151 -5c22 0 44 1 64 3l4 -57c-31 -11 -67 -14 -103 -14c-46 1 -93 6 -125 6c-83 0 -110 -54 -119 -136l-3 -25h302l-58 -546h-76l51 483h-225l-72 -688
h-76l72 688h-225l-71 -688h-74zM202 546h225l3 26c5 51 18 91 35 120c-35 7 -87 16 -114 16c-84 0 -135 -32 -144 -114z" />
    <glyph glyph-name="f_f_l" unicode="ffl" horiz-adv-x="856" 
d="M50 -205l72 688h-80l7 63h79l6 48c16 155 124 180 226 180c56 0 141 -21 158 -27c34 20 72 27 115 27c39 0 93 -7 144 -7c18 0 34 0 50 2l-81 -769h-76l75 703c-40 -2 -86 4 -120 4c-84 0 -111 -54 -120 -136l-2 -25h116l-7 -63h-116l-72 -688h-76l72 688h-225l-71 -688
h-74zM202 546h225l2 26c6 51 18 90 36 120c-33 7 -65 16 -114 16c-84 0 -135 -32 -144 -114z" />
    <glyph glyph-name="f_f_j" unicode="ffj" horiz-adv-x="857" 
d="M49 -205l73 688h-80l7 63h79l6 48c16 155 124 180 226 180c34 0 142 -21 158 -27c34 20 72 27 115 27c38 0 97 -5 151 -5c22 0 44 1 64 3l4 -57c-31 -11 -67 -14 -103 -14c-46 1 -93 6 -125 6c-83 0 -110 -54 -119 -136l-3 -25h302l-60 -564c-16 -158 -94 -202 -196 -202
c-29 0 -62 8 -75 13l19 65c14 -4 39 -11 65 -11c83 0 103 54 112 136l52 500h-225l-73 -688h-76l73 688h-225l-72 -688h-74zM202 546h225l3 26c5 51 18 91 35 120c-35 7 -87 16 -114 16c-84 0 -135 -32 -144 -114z" />
    <glyph glyph-name="aogonek_j" unicode="&#x105;j" horiz-adv-x="778" 
d="M383 -233c-91 0 -143 36 -143 108c0 52 43 101 92 131l10 93c-77 -69 -137 -112 -193 -112c-77 0 -110 69 -110 163c0 178 120 401 325 401c33 0 76 -4 99 -8l-57 -543c-39 -23 -89 -67 -90 -109c-1 -38 24 -60 77 -60c96 0 167 39 179 152l59 563h76l-60 -568
c-17 -168 -158 -211 -264 -211zM168 59c48 0 152 90 181 117l33 307c-8 2 -23 2 -34 2c-149 0 -232 -189 -232 -327c0 -56 16 -99 52 -99zM677 652l-58 63l72 63l60 -63z" />
    <glyph glyph-name=".notdef" horiz-adv-x="712" 
d="M305 375v27h27v-27h-27zM380 525v27h27v-27h-27zM305 525v27h27v-27h-27zM230 525v27h27v-27h-27zM80 0v27h27v-27h-27zM155 0v27h27v-27h-27zM230 0v27h27v-27h-27zM305 0v27h27v-27h-27zM380 0v27h27v-27h-27zM80 75v27h27v-27h-27zM80 150v27h27v-27h-27zM80 225v27
h27v-27h-27zM80 300v27h27v-27h-27zM80 375v27h27v-27h-27zM80 450v27h27v-27h-27zM80 525v27h27v-27h-27zM80 600v27h27v-27h-27zM80 675v27h27v-27h-27zM155 675v27h27v-27h-27zM230 675v27h27v-27h-27zM305 675v27h27v-27h-27zM380 675v27h27v-27h-27zM455 675v27h27v-27
h-27zM530 675v27h27v-27h-27zM530 0v27h27v-27h-27zM455 0v27h27v-27h-27zM605 0v27h27v-27h-27zM605 675v27h27v-27h-27zM305 300v27h27v-27h-27zM305 150v27h27v-27h-27zM380 375v27h27v-27h-27zM455 375v27h27v-27h-27zM455 450v27h27v-27h-27zM455 525v27h27v-27h-27z
M605 600v27h27v-27h-27zM605 525v27h27v-27h-27zM605 375v27h27v-27h-27zM605 300v27h27v-27h-27zM605 150v27h27v-27h-27zM605 75v27h27v-27h-27zM605 225v27h27v-27h-27zM605 450v27h27v-27h-27z" />
    <glyph glyph-name="space" unicode=" " horiz-adv-x="255" 
 />
    <glyph glyph-name="A" unicode="A" horiz-adv-x="636" 
d="M-34 0l352 707h118l148 -707h-82l-53 266h-270l-131 -266h-82zM210 330h225l-53 276l-11 60l-27 -61z" />
    <glyph glyph-name="B" unicode="B" horiz-adv-x="614" 
d="M67 0l75 707h192c103 0 202 -33 202 -157c0 -74 -41 -151 -117 -172v-3c78 -10 131 -72 131 -150c0 -158 -110 -225 -260 -225h-223zM155 66h123c108 0 190 26 190 152c0 114 -116 115 -200 115h-86zM189 396h100c102 0 162 36 162 146c0 91 -70 103 -145 103h-91z" />
    <glyph glyph-name="C" unicode="C" horiz-adv-x="638" 
d="M378 -10c-194 0 -319 121 -319 320c0 242 146 403 392 403c67 0 116 -7 164 -28l-27 -63c-51 18 -81 23 -143 23c-198 0 -304 -136 -304 -330c0 -166 103 -254 263 -254c54 0 103 5 152 21l15 -66c-66 -21 -124 -26 -193 -26z" />
    <glyph glyph-name="D" unicode="D" horiz-adv-x="728" 
d="M67 0l75 707h187c197 0 349 -93 349 -312c0 -263 -155 -395 -414 -395h-197zM153 66h126c204 0 318 109 318 325c0 178 -113 250 -278 250h-105z" />
    <glyph glyph-name="E" unicode="E" horiz-adv-x="567" 
d="M67 0l75 707h393l-7 -65h-314l-26 -254h291l-6 -66h-292l-27 -257h337l-7 -65h-417z" />
    <glyph glyph-name="F" unicode="F" horiz-adv-x="494" 
d="M67 0l75 707h352l-6 -65h-274l-28 -274h251l-7 -66h-252l-31 -302h-80z" />
    <glyph glyph-name="G" unicode="G" horiz-adv-x="665" 
d="M378 -10c-194 0 -319 120 -319 320c0 242 147 403 391 403c60 0 118 -6 166 -28l-29 -62c-51 17 -80 22 -142 22c-198 0 -303 -135 -303 -330c0 -166 102 -254 262 -254c36 0 70 5 94 11l27 278h80l-33 -326c-63 -24 -108 -34 -194 -34z" />
    <glyph glyph-name="H" unicode="H" horiz-adv-x="738" 
d="M67 0l75 707h79l-33 -320h380l33 320h80l-74 -707h-80l35 322h-381l-34 -322h-80z" />
    <glyph glyph-name="I" unicode="I" horiz-adv-x="278" 
d="M67 0l75 707h79l-74 -707h-80z" />
    <glyph glyph-name="J" unicode="J" horiz-adv-x="279" 
d="M-62 -187l-27 59c126 66 159 139 174 279l58 556h79l-58 -554c-16 -160 -67 -273 -226 -340z" />
    <glyph glyph-name="K" unicode="K" horiz-adv-x="602" 
d="M480 -19l-270 386l1 16l308 324h100l-318 -327l252 -359zM67 0l75 707h79l-74 -707h-80z" />
    <glyph glyph-name="L" unicode="L" horiz-adv-x="486" 
d="M67 0l75 707h79l-67 -639h307l-7 -68h-387z" />
    <glyph glyph-name="M" unicode="M" horiz-adv-x="889" 
d="M6 0l231 707h107l53 -661l296 661h106l-20 -707h-78l24 610l-273 -610h-126l-49 612l-192 -612h-79z" />
    <glyph glyph-name="N" unicode="N" horiz-adv-x="724" 
d="M67 0l76 707h116l264 -649l66 649h79l-76 -707h-123l-256 633l-66 -633h-80z" />
    <glyph glyph-name="O" unicode="O" horiz-adv-x="801" 
d="M359 -11c-194 0 -299 126 -299 318c0 241 145 411 390 411c194 0 301 -125 301 -318c0 -242 -145 -411 -392 -411zM369 55c199 0 299 154 299 342c0 150 -76 253 -230 253c-195 0 -297 -151 -297 -338c0 -148 73 -257 228 -257z" />
    <glyph glyph-name="P" unicode="P" horiz-adv-x="592" 
d="M67 0l75 707h229c122 0 207 -62 207 -190c0 -184 -142 -258 -307 -257h-20l7 66c14 0 31 0 43 1c111 8 192 53 192 183c0 98 -62 133 -150 133h-128l-67 -643h-81z" />
    <glyph glyph-name="Q" unicode="Q" horiz-adv-x="801" 
d="M731 -157l-381 64l6 62l383 -59zM359 -11c-194 0 -299 126 -299 318c0 241 145 411 390 411c194 0 301 -125 301 -318c0 -242 -145 -411 -392 -411zM369 55c199 0 299 154 299 342c0 150 -76 253 -230 253c-195 0 -297 -151 -297 -338c0 -148 73 -257 228 -257z" />
    <glyph glyph-name="Q.alt" horiz-adv-x="815" 
d="M359 -11c-194 0 -299 126 -299 318c0 241 145 411 390 411c194 0 301 -125 301 -318c0 -125 -39 -230 -110 -303l95 -108l-54 -42l-94 105c-61 -41 -138 -63 -229 -63zM369 55c69 0 126 19 171 51l-98 111l56 44l93 -107c51 62 77 148 77 243c0 150 -76 253 -230 253
c-195 0 -297 -151 -297 -338c0 -148 73 -257 228 -257z" />
    <glyph glyph-name="R" unicode="R" horiz-adv-x="641" 
d="M525 -18l-198 322c-31 -3 -57 -3 -85 -3h-61l-33 -301h-81l75 707h218c121 0 209 -60 209 -172c0 -97 -53 -182 -160 -212l192 -305zM187 365h93c124 0 204 49 204 167c0 81 -63 111 -151 111h-118z" />
    <glyph glyph-name="S" unicode="S" horiz-adv-x="523" 
d="M210 -11c-64 0 -151 22 -196 48l31 67c49 -23 111 -45 171 -45c89 0 166 31 166 134c0 132 -291 143 -291 342c0 121 106 180 225 180c72 0 140 -20 178 -41l-26 -62c-41 18 -100 34 -155 34c-74 0 -144 -25 -144 -109c0 -131 292 -156 292 -342
c0 -139 -115 -206 -251 -206z" />
    <glyph glyph-name="T" unicode="T" horiz-adv-x="571" 
d="M212 0l67 640h-242l8 67h563l-8 -67h-241l-67 -640h-80z" />
    <glyph glyph-name="U" unicode="U" horiz-adv-x="724" 
d="M337 -12c-127 0 -255 45 -255 214c0 12 0 26 2 40l49 465h81l-48 -458c-1 -13 -2 -25 -2 -36c0 -126 81 -157 174 -157c108 0 197 47 215 217l45 434h76l-46 -437c-23 -227 -166 -282 -291 -282z" />
    <glyph glyph-name="V" unicode="V" horiz-adv-x="655" 
d="M226 0l-172 707h83l150 -650l330 650h84l-365 -707h-110z" />
    <glyph glyph-name="W" unicode="W" horiz-adv-x="964" 
d="M182 0l-105 707h83l87 -643l232 485l-32 158h83l123 -645l253 645h80l-283 -707h-111l-91 442l-211 -442h-108z" />
    <glyph glyph-name="X" unicode="X" horiz-adv-x="588" 
d="M-29 0l290 373l-163 334h89l127 -273l202 273h87l-256 -333l184 -374h-89l-148 309l-231 -309h-92z" />
    <glyph glyph-name="Y" unicode="Y" horiz-adv-x="591" 
d="M219 0l29 274l-184 433h89l144 -365l235 365h86l-291 -432l-28 -275h-80z" />
    <glyph glyph-name="Z" unicode="Z" 
d="M5 0l7 70l431 565h-345l7 72h438l-6 -63l-434 -573h394l-7 -71h-485z" />
    <glyph glyph-name="Aacute" unicode="&#xc1;" horiz-adv-x="636" 
d="M-34 0l352 707h118l148 -707h-82l-53 266h-270l-131 -266h-82zM210 330h225l-53 276l-11 60l-27 -61zM313 737l-16 54l229 80l19 -70z" />
    <glyph glyph-name="Acircumflex" unicode="&#xc2;" horiz-adv-x="636" 
d="M-34 0l352 707h118l148 -707h-82l-53 266h-270l-131 -266h-82zM210 330h225l-53 276l-11 60l-27 -61zM526 737l-136 69l-155 -68l-21 54l182 85l160 -85z" />
    <glyph glyph-name="Adieresis" unicode="&#xc4;" horiz-adv-x="636" 
d="M-34 0l352 707h118l148 -707h-82l-53 266h-270l-131 -266h-82zM210 330h225l-53 276l-11 60l-27 -61zM276 749l-50 59l62 56l50 -56zM481 749l-49 59l61 56l51 -56z" />
    <glyph glyph-name="Aring" unicode="&#xc5;" horiz-adv-x="636" 
d="M-34 0l352 707h118l148 -707h-82l-53 266h-270l-131 -266h-82zM210 330h225l-53 276l-11 60l-27 -61zM383 736c-48 0 -91 26 -91 74c0 62 48 103 108 103c47 0 89 -31 89 -78c0 -61 -46 -99 -106 -99zM386 771c32 0 58 23 58 56c0 29 -22 48 -49 48
c-34 0 -58 -23 -58 -56c0 -30 21 -48 49 -48z" />
    <glyph glyph-name="Agrave" unicode="&#xc0;" horiz-adv-x="636" 
d="M439 736l-220 65l27 72l211 -82zM-34 0l352 707h118l148 -707h-82l-53 266h-270l-131 -266h-82zM210 330h225l-53 276l-11 60l-27 -61z" />
    <glyph glyph-name="Atilde" unicode="&#xc3;" horiz-adv-x="636" 
d="M-34 0l352 707h118l148 -707h-82l-53 266h-270l-131 -266h-82zM210 330h225l-53 276l-11 60l-27 -61zM442 747c-40 0 -86 37 -122 37c-34 0 -49 -9 -73 -25l-27 43c29 25 59 45 106 45s85 -36 123 -36c34 0 61 18 74 27l25 -45c-18 -16 -49 -46 -106 -46z" />
    <glyph glyph-name="Abreve" unicode="&#x102;" horiz-adv-x="636" 
d="M-34 0l352 707h118l148 -707h-82l-53 266h-270l-131 -266h-82zM210 330h225l-53 276l-11 60l-27 -61zM377 753c-64 0 -117 44 -136 81l44 38c19 -27 50 -58 100 -58c57 0 92 31 112 57l34 -36c-24 -32 -74 -82 -154 -82z" />
    <glyph glyph-name="Amacron" unicode="&#x100;" horiz-adv-x="636" 
d="M-34 0l352 707h118l148 -707h-82l-53 266h-270l-131 -266h-82zM210 330h225l-53 276l-11 60l-27 -61zM241 766l7 64h282l-7 -64h-282z" />
    <glyph glyph-name="Aogonek" unicode="&#x104;" horiz-adv-x="636" 
d="M503 -225c-89 0 -109 49 -105 101s54 99 102 131l-51 259h-270l-131 -266h-82l352 707h118l148 -707c-40 -23 -111 -72 -114 -114c-4 -39 21 -48 58 -48c20 0 39 5 45 8l12 -55c-14 -8 -29 -16 -82 -16zM210 330h225l-64 336z" />
    <glyph glyph-name="uni01FA" unicode="&#x1fa;" horiz-adv-x="636" 
d="M-34 0l352 707h118l148 -707h-82l-53 266h-270l-131 -266h-82zM210 330h225l-53 276l-11 60l-27 -61zM322 909l-16 54l229 80l19 -70zM381 726c-48 0 -91 26 -91 74c0 62 48 103 108 103c47 0 89 -31 89 -78c0 -61 -46 -99 -106 -99zM384 761c32 0 58 23 58 56
c0 29 -22 48 -49 48c-34 0 -58 -23 -58 -56c0 -30 21 -48 49 -48z" />
    <glyph glyph-name="uni01CD" unicode="&#x1cd;" horiz-adv-x="636" 
d="M-34 0l352 707h118l148 -707h-82l-53 266h-270l-131 -266h-82zM210 330h225l-53 276l-11 60l-27 -61zM374 739l-159 85l30 54l135 -69l155 68l21 -54z" />
    <glyph glyph-name="uni0226" unicode="&#x226;" horiz-adv-x="636" 
d="M-34 0l352 707h118l148 -707h-82l-53 266h-270l-131 -266h-82zM210 330h225l-53 276l-11 60l-27 -61zM379 753l-59 64l73 63l60 -63z" />
    <glyph glyph-name="uni1EA6" unicode="&#x1ea6;" horiz-adv-x="636" 
d="M-34 0l352 707h118l148 -707h-82l-53 266h-270l-131 -266h-82zM210 330h225l-53 276l-11 60l-27 -61zM563 818l-154 121l49 56l146 -134zM521 738l-133 67l-153 -66l-21 53l180 84l159 -84z" />
    <glyph glyph-name="uni1EA4" unicode="&#x1ea4;" horiz-adv-x="636" 
d="M-34 0l352 707h118l148 -707h-82l-53 266h-270l-131 -266h-82zM210 330h225l-53 276l-11 60l-27 -61zM506 836l-37 41l145 125l46 -54zM524 738l-133 67l-153 -66l-21 53l180 84l159 -84z" />
    <glyph glyph-name="uni1EAA" unicode="&#x1eaa;" horiz-adv-x="636" 
d="M-34 0l352 707h118l148 -707h-82l-53 266h-270l-131 -266h-82zM210 330h225l-53 276l-11 60l-27 -61zM526 738l-133 67l-153 -66l-22 53l180 84l159 -84zM466 889c-41 0 -86 35 -122 35c-31 0 -47 -6 -71 -24l-26 43c28 23 59 45 105 45c49 0 83 -35 122 -35
c33 0 59 18 73 27l25 -44c-18 -15 -50 -47 -106 -47z" />
    <glyph glyph-name="uni1EA8" unicode="&#x1ea8;" horiz-adv-x="636" 
d="M-34 0l352 707h118l148 -707h-82l-53 266h-270l-131 -266h-82zM210 330h225l-53 276l-11 60l-27 -61zM587 960c0 -62 -44 -98 -85 -121l-38 35c12 6 60 32 60 73c0 26 -22 32 -38 32c-15 0 -32 -2 -48 -10l-1 51c19 8 38 14 68 14c16 0 41 -4 60 -22
c13 -12 22 -28 22 -52zM519 738l-133 67l-152 -66l-22 53l180 84l159 -84z" />
    <glyph glyph-name="uni1EAC" unicode="&#x1eac;" horiz-adv-x="635" 
d="M-35 0l352 707h118l148 -707h-82l-53 266h-270l-131 -266h-82zM209 330h225l-53 276l-11 60l-27 -61zM259 -225l-58 64l72 62l60 -62zM524 737l-136 69l-155 -68l-21 54l182 85l160 -85z" />
    <glyph glyph-name="uni1EB0" unicode="&#x1eb0;" horiz-adv-x="636" 
d="M-34 0l352 707h118l148 -707h-82l-53 266h-270l-131 -266h-82zM210 330h225l-53 276l-11 60l-27 -61zM408 858l-140 123l50 51l131 -136zM386 753c-72 0 -119 48 -135 81l44 39c18 -26 49 -57 101 -57c56 0 90 30 110 56l35 -37c-24 -31 -70 -82 -155 -82z" />
    <glyph glyph-name="uni1EAE" unicode="&#x1eae;" horiz-adv-x="636" 
d="M-34 0l352 707h118l148 -707h-82l-53 266h-270l-131 -266h-82zM210 330h225l-53 276l-11 60l-27 -61zM545 981l-153 -123l-38 40l145 136zM384 753c-72 0 -119 48 -135 81l44 39c18 -26 49 -57 101 -57c56 0 90 30 110 56l35 -37c-24 -31 -70 -82 -155 -82z" />
    <glyph glyph-name="uni1EB4" unicode="&#x1eb4;" horiz-adv-x="636" 
d="M-34 0l352 707h118l148 -707h-82l-53 266h-270l-131 -266h-82zM210 330h225l-53 276l-11 60l-27 -61zM389 753c-72 0 -120 48 -136 81l45 39c18 -26 49 -57 100 -57c57 0 90 30 110 56l35 -37c-24 -31 -70 -82 -154 -82zM464 889c-41 0 -86 35 -122 35
c-31 0 -47 -6 -71 -24l-26 43c27 23 58 45 105 45c49 0 83 -35 122 -35c33 0 59 18 73 27l25 -44c-18 -15 -50 -47 -106 -47z" />
    <glyph glyph-name="uni1EB2" unicode="&#x1eb2;" horiz-adv-x="636" 
d="M-34 0l352 707h118l148 -707h-82l-53 266h-270l-131 -266h-82zM210 330h225l-53 276l-11 60l-27 -61zM483 974c0 -61 -43 -100 -89 -125l-36 37c12 7 61 34 61 76c0 25 -22 30 -39 30c-14 0 -30 -2 -48 -9l4 52c18 7 38 12 65 12c17 0 43 -3 62 -22c13 -12 20 -28 20 -51
zM386 753c-72 0 -119 48 -136 81l45 39c18 -26 49 -57 100 -57c57 0 90 30 110 56l36 -37c-25 -31 -71 -82 -155 -82z" />
    <glyph glyph-name="uni1EB6" unicode="&#x1eb6;" horiz-adv-x="635" 
d="M-35 0l352 707h118l148 -707h-82l-53 266h-270l-131 -266h-82zM209 330h225l-53 276l-11 60l-27 -61zM388 753c-64 0 -117 44 -136 81l44 38c19 -27 50 -58 100 -58c57 0 92 31 112 57l34 -36c-24 -32 -74 -82 -154 -82zM266 -225l-58 64l72 62l60 -62z" />
    <glyph glyph-name="uni1EA2" unicode="&#x1ea2;" horiz-adv-x="636" 
d="M-34 0l352 707h118l148 -707h-82l-53 266h-270l-131 -266h-82zM210 330h225l-53 276l-11 60l-27 -61zM471 887c0 -64 -47 -114 -96 -139l-37 39c13 6 66 37 66 90c0 26 -21 32 -38 32c-14 0 -30 -2 -47 -9l3 55c19 7 39 12 66 12c49 0 83 -31 83 -80z" />
    <glyph glyph-name="uni1EA0" unicode="&#x1ea0;" horiz-adv-x="635" 
d="M-35 0l352 707h118l148 -707h-82l-53 266h-270l-131 -266h-82zM209 330h225l-53 276l-11 60l-27 -61zM264 -225l-58 64l72 62l60 -62z" />
    <glyph glyph-name="uni1E02" unicode="&#x1e02;" horiz-adv-x="614" 
d="M320 753l-59 64l73 63l60 -63zM67 0l75 707h192c103 0 202 -33 202 -157c0 -74 -41 -151 -117 -172v-3c78 -10 131 -72 131 -150c0 -158 -110 -225 -260 -225h-223zM155 66h123c108 0 190 26 190 152c0 114 -116 115 -200 115h-86zM189 396h100c102 0 162 36 162 146
c0 91 -70 103 -145 103h-91z" />
    <glyph glyph-name="uni1E04" unicode="&#x1e04;" horiz-adv-x="614" 
d="M234 -227l-58 63l72 63l60 -63zM67 0l75 707h192c103 0 202 -33 202 -157c0 -74 -41 -151 -117 -172v-3c78 -10 131 -72 131 -150c0 -158 -110 -225 -260 -225h-223zM155 66h123c108 0 190 26 190 152c0 114 -116 115 -200 115h-86zM189 396h100c102 0 162 36 162 146
c0 91 -70 103 -145 103h-91z" />
    <glyph glyph-name="uni1E06" unicode="&#x1e06;" horiz-adv-x="614" 
d="M67 0l75 707h192c103 0 202 -33 202 -157c0 -74 -41 -151 -117 -172v-3c78 -10 131 -72 131 -150c0 -158 -110 -225 -260 -225h-223zM155 66h123c108 0 190 26 190 152c0 114 -116 115 -200 115h-86zM189 396h100c102 0 162 36 162 146c0 91 -70 103 -145 103h-91z
M103 -192l7 63h261l-7 -63h-261z" />
    <glyph glyph-name="Ccedilla" unicode="&#xc7;" horiz-adv-x="638" 
d="M378 -10c-194 0 -319 121 -319 320c0 242 146 403 392 403c67 0 116 -7 164 -28l-27 -63c-51 18 -81 23 -143 23c-198 0 -304 -136 -304 -330c0 -166 103 -254 263 -254c54 0 103 5 152 21l15 -66c-66 -21 -124 -26 -193 -26zM300 -239l-21 44c45 26 62 51 66 77
c2 21 -6 43 -16 67h74c10 -20 15 -43 13 -66c-4 -44 -34 -88 -116 -122z" />
    <glyph glyph-name="Cacute" unicode="&#x106;" horiz-adv-x="638" 
d="M378 -10c-194 0 -319 121 -319 320c0 242 146 403 392 403c67 0 116 -7 164 -28l-27 -63c-51 18 -81 23 -143 23c-198 0 -304 -136 -304 -330c0 -166 103 -254 263 -254c54 0 103 5 152 21l15 -66c-66 -21 -124 -26 -193 -26zM352 737l-16 54l229 80l19 -70z" />
    <glyph glyph-name="Ccaron" unicode="&#x10c;" horiz-adv-x="638" 
d="M416 739l-159 85l30 54l135 -69l155 68l21 -54zM378 -10c-194 0 -319 121 -319 320c0 242 146 403 392 403c67 0 116 -7 164 -28l-27 -63c-51 18 -81 23 -143 23c-198 0 -304 -136 -304 -330c0 -166 103 -254 263 -254c54 0 103 5 152 21l15 -66
c-66 -21 -124 -26 -193 -26z" />
    <glyph glyph-name="Ccircumflex" unicode="&#x108;" horiz-adv-x="638" 
d="M378 -10c-194 0 -319 121 -319 320c0 242 146 403 392 403c67 0 116 -7 164 -28l-27 -63c-51 18 -81 23 -143 23c-198 0 -304 -136 -304 -330c0 -166 103 -254 263 -254c54 0 103 5 152 21l15 -66c-66 -21 -124 -26 -193 -26zM593 737l-136 69l-155 -68l-21 54l182 85
l160 -85z" />
    <glyph glyph-name="Cdotaccent" unicode="&#x10a;" horiz-adv-x="638" 
d="M442 753l-59 64l73 63l60 -63zM378 -10c-194 0 -319 121 -319 320c0 242 146 403 392 403c67 0 116 -7 164 -28l-27 -63c-51 18 -81 23 -143 23c-198 0 -304 -136 -304 -330c0 -166 103 -254 263 -254c54 0 103 5 152 21l15 -66c-66 -21 -124 -26 -193 -26z" />
    <glyph glyph-name="Dcaron" unicode="&#x10e;" horiz-adv-x="728" 
d="M342 739l-159 85l30 54l135 -69l155 68l21 -54zM67 0l75 707h187c197 0 349 -93 349 -312c0 -263 -155 -395 -414 -395h-197zM153 66h126c204 0 318 109 318 325c0 178 -113 250 -278 250h-105z" />
    <glyph glyph-name="Dcroat" unicode="&#x110;" horiz-adv-x="753" 
d="M55 320l7 66h71l34 321h187c197 0 349 -93 349 -312c0 -263 -155 -395 -414 -395h-197l34 320h-71zM178 66h126c204 0 318 109 318 325c0 178 -113 250 -278 250h-105l-27 -255h147l-7 -66h-147z" />
    <glyph glyph-name="uni1E0E" unicode="&#x1e0e;" horiz-adv-x="728" 
d="M67 0l75 707h187c197 0 349 -93 349 -312c0 -263 -155 -395 -414 -395h-197zM153 66h126c204 0 318 109 318 325c0 178 -113 250 -278 250h-105zM138 -192l7 63h261l-7 -63h-261z" />
    <glyph glyph-name="uni1E0C" unicode="&#x1e0c;" horiz-adv-x="728" 
d="M283 -227l-58 63l72 63l60 -63zM67 0l75 707h187c197 0 349 -93 349 -312c0 -263 -155 -395 -414 -395h-197zM153 66h126c204 0 318 109 318 325c0 178 -113 250 -278 250h-105z" />
    <glyph glyph-name="uni1E0A" unicode="&#x1e0a;" horiz-adv-x="728" 
d="M367 753l-59 64l73 63l60 -63zM67 0l75 707h187c197 0 349 -93 349 -312c0 -263 -155 -395 -414 -395h-197zM153 66h126c204 0 318 109 318 325c0 178 -113 250 -278 250h-105z" />
    <glyph glyph-name="Eacute" unicode="&#xc9;" horiz-adv-x="567" 
d="M274 737l-16 54l229 80l19 -70zM67 0l75 707h393l-7 -65h-314l-26 -254h291l-6 -66h-292l-27 -257h337l-7 -65h-417z" />
    <glyph glyph-name="Ecircumflex" unicode="&#xca;" horiz-adv-x="567" 
d="M67 0l75 707h393l-7 -65h-314l-26 -254h291l-6 -66h-292l-27 -257h337l-7 -65h-417zM485 737l-136 69l-155 -68l-21 54l182 85l160 -85z" />
    <glyph glyph-name="Edieresis" unicode="&#xcb;" horiz-adv-x="567" 
d="M245 749l-50 59l62 56l50 -56zM450 749l-49 59l61 56l51 -56zM67 0l75 707h393l-7 -65h-314l-26 -254h291l-6 -66h-292l-27 -257h337l-7 -65h-417z" />
    <glyph glyph-name="Egrave" unicode="&#xc8;" horiz-adv-x="567" 
d="M413 736l-220 65l27 72l211 -82zM67 0l75 707h393l-7 -65h-314l-26 -254h291l-6 -66h-292l-27 -257h337l-7 -65h-417z" />
    <glyph glyph-name="Ebreve" unicode="&#x114;" horiz-adv-x="567" 
d="M347 755c-64 0 -117 44 -136 81l44 38c19 -27 50 -58 100 -58c57 0 92 31 112 57l34 -36c-24 -32 -74 -82 -154 -82zM67 0l75 707h393l-7 -65h-314l-26 -254h291l-6 -66h-292l-27 -257h337l-7 -65h-417z" />
    <glyph glyph-name="Ecaron" unicode="&#x11a;" horiz-adv-x="567" 
d="M334 739l-159 85l30 54l135 -69l155 68l21 -54zM67 0l75 707h393l-7 -65h-314l-26 -254h291l-6 -66h-292l-27 -257h337l-7 -65h-417z" />
    <glyph glyph-name="Edotaccent" unicode="&#x116;" horiz-adv-x="567" 
d="M343 753l-59 64l73 63l60 -63zM67 0l75 707h393l-7 -65h-314l-26 -254h291l-6 -66h-292l-27 -257h337l-7 -65h-417z" />
    <glyph glyph-name="Emacron" unicode="&#x112;" horiz-adv-x="567" 
d="M202 766l7 64h282l-7 -64h-282zM67 0l75 707h393l-7 -65h-314l-26 -254h291l-6 -66h-292l-27 -257h337l-7 -65h-417z" />
    <glyph glyph-name="Eogonek" unicode="&#x118;" horiz-adv-x="567" 
d="M402 -225c-88 0 -108 49 -104 105c4 46 49 90 94 120h-325l75 707h393l-7 -65h-314l-26 -254h291l-6 -66h-292l-27 -257h337l-8 -65c-39 -23 -110 -71 -113 -113c-4 -40 21 -49 58 -49c20 0 39 5 45 8l12 -55c-14 -8 -30 -16 -83 -16z" />
    <glyph glyph-name="uni0228" unicode="&#x228;" horiz-adv-x="567" 
d="M67 0l75 707h393l-7 -65h-314l-26 -254h291l-6 -66h-292l-27 -257h337l-7 -65h-417zM212 -239l-21 44c45 26 62 51 66 77c2 21 -6 43 -16 67h74c10 -20 15 -43 13 -66c-4 -44 -34 -88 -116 -122z" />
    <glyph glyph-name="uni1EC0" unicode="&#x1ec0;" horiz-adv-x="567" 
d="M526 818l-154 121l49 56l146 -134zM484 738l-133 67l-153 -66l-21 53l180 84l159 -84zM67 0l75 707h393l-7 -65h-314l-26 -254h291l-6 -66h-292l-27 -257h337l-7 -65h-417z" />
    <glyph glyph-name="uni1EBE" unicode="&#x1ebe;" horiz-adv-x="567" 
d="M67 0l75 707h393l-7 -65h-314l-26 -254h291l-6 -66h-292l-27 -257h337l-7 -65h-417zM469 836l-37 41l145 125l46 -54zM487 738l-133 67l-153 -66l-21 53l180 84l159 -84z" />
    <glyph glyph-name="uni1EC4" unicode="&#x1ec4;" horiz-adv-x="567" 
d="M486 738l-133 67l-153 -66l-22 53l180 84l159 -84zM426 889c-41 0 -86 35 -122 35c-31 0 -47 -6 -71 -24l-26 43c28 23 59 45 105 45c49 0 83 -35 122 -35c33 0 59 18 73 27l25 -44c-18 -15 -50 -47 -106 -47zM67 0l75 707h393l-7 -65h-314l-26 -254h291l-6 -66h-292
l-27 -257h337l-7 -65h-417z" />
    <glyph glyph-name="uni1EC2" unicode="&#x1ec2;" horiz-adv-x="567" 
d="M67 0l75 707h393l-7 -65h-314l-26 -254h291l-6 -66h-292l-27 -257h337l-7 -65h-417zM552 960c0 -62 -44 -98 -85 -121l-38 35c12 6 60 32 60 73c0 26 -22 32 -38 32c-15 0 -32 -2 -48 -10l-1 51c19 8 38 14 68 14c16 0 41 -4 60 -22c13 -12 22 -28 22 -52zM484 738
l-133 67l-152 -66l-22 53l180 84l159 -84z" />
    <glyph glyph-name="uni1EC6" unicode="&#x1ec6;" horiz-adv-x="567" 
d="M264 -225l-58 64l72 62l60 -62zM67 0l75 707h393l-7 -65h-314l-26 -254h291l-6 -66h-292l-27 -257h337l-7 -65h-417zM488 737l-136 69l-155 -68l-21 54l182 85l160 -85z" />
    <glyph glyph-name="uni1EBA" unicode="&#x1eba;" horiz-adv-x="567" 
d="M67 0l75 707h393l-7 -65h-314l-26 -254h291l-6 -66h-292l-27 -257h337l-7 -65h-417zM434 887c0 -64 -47 -114 -96 -139l-37 39c13 6 66 37 66 90c0 26 -21 32 -38 32c-14 0 -30 -2 -47 -9l3 55c19 7 39 12 66 12c49 0 83 -31 83 -80z" />
    <glyph glyph-name="uni1EB8" unicode="&#x1eb8;" horiz-adv-x="567" 
d="M263 -225l-58 64l72 62l60 -62zM67 0l75 707h393l-7 -65h-314l-26 -254h291l-6 -66h-292l-27 -257h337l-7 -65h-417z" />
    <glyph glyph-name="uni1EBC" unicode="&#x1ebc;" horiz-adv-x="567" 
d="M408 747c-40 0 -86 37 -122 37c-34 0 -49 -9 -73 -25l-27 43c29 25 59 45 106 45s85 -36 123 -36c34 0 61 18 74 27l25 -45c-18 -16 -49 -46 -106 -46zM67 0l75 707h393l-7 -65h-314l-26 -254h291l-6 -66h-292l-27 -257h337l-7 -65h-417z" />
    <glyph glyph-name="uni0045030A" horiz-adv-x="567" 
d="M67 0l75 707h393l-7 -65h-314l-26 -254h291l-6 -66h-292l-27 -257h337l-7 -65h-417zM349 739c-48 0 -91 26 -91 74c0 62 48 103 108 103c47 0 89 -31 89 -78c0 -61 -46 -99 -106 -99zM352 774c32 0 58 23 58 56c0 29 -22 48 -49 48c-34 0 -58 -23 -58 -56
c0 -30 21 -48 49 -48z" />
    <glyph glyph-name="uni1E1E" unicode="&#x1e1e;" horiz-adv-x="494" 
d="M322 753l-59 64l73 63l60 -63zM67 0l75 707h352l-6 -65h-274l-28 -274h251l-7 -66h-252l-31 -302h-80z" />
    <glyph glyph-name="uni00460304" horiz-adv-x="494" 
d="M188 766l7 64h282l-7 -64h-282zM67 0l75 707h352l-6 -65h-274l-28 -274h251l-7 -66h-252l-31 -302h-80z" />
    <glyph glyph-name="Gbreve" unicode="&#x11e;" horiz-adv-x="665" 
d="M432 753c-64 0 -117 44 -136 81l44 38c19 -27 50 -58 100 -58c57 0 92 31 112 57l34 -36c-24 -32 -74 -82 -154 -82zM378 -10c-194 0 -319 120 -319 320c0 242 147 403 391 403c60 0 118 -6 166 -28l-29 -62c-51 17 -80 22 -142 22c-198 0 -303 -135 -303 -330
c0 -166 102 -254 262 -254c36 0 70 5 94 11l27 278h80l-33 -326c-63 -24 -108 -34 -194 -34z" />
    <glyph glyph-name="Gcommaaccent" unicode="&#x122;" horiz-adv-x="666" 
d="M300 -261l44 202h72l-55 -202h-61zM378 -10c-194 0 -319 120 -319 320c0 242 147 403 391 403c60 0 118 -6 166 -28l-29 -62c-51 17 -80 22 -142 22c-198 0 -303 -135 -303 -330c0 -166 102 -254 262 -254c36 0 70 5 94 11l27 278h80l-33 -326c-63 -24 -108 -34 -194 -34
z" />
    <glyph glyph-name="Gcircumflex" unicode="&#x11c;" horiz-adv-x="665" 
d="M593 737l-136 69l-155 -68l-21 54l182 85l160 -85zM378 -10c-194 0 -319 120 -319 320c0 242 147 403 391 403c60 0 118 -6 166 -28l-29 -62c-51 17 -80 22 -142 22c-198 0 -303 -135 -303 -330c0 -166 102 -254 262 -254c36 0 70 5 94 11l27 278h80l-33 -326
c-63 -24 -108 -34 -194 -34z" />
    <glyph glyph-name="Gdotaccent" unicode="&#x120;" horiz-adv-x="665" 
d="M458 753l-59 64l73 63l60 -63zM378 -10c-194 0 -319 120 -319 320c0 242 147 403 391 403c60 0 118 -6 166 -28l-29 -62c-51 17 -80 22 -142 22c-198 0 -303 -135 -303 -330c0 -166 102 -254 262 -254c36 0 70 5 94 11l27 278h80l-33 -326c-63 -24 -108 -34 -194 -34z
" />
    <glyph glyph-name="uni01E6" unicode="&#x1e6;" horiz-adv-x="665" 
d="M434 739l-159 85l30 54l135 -69l155 68l21 -54zM378 -10c-194 0 -319 120 -319 320c0 242 147 403 391 403c60 0 118 -6 166 -28l-29 -62c-51 17 -80 22 -142 22c-198 0 -303 -135 -303 -330c0 -166 102 -254 262 -254c36 0 70 5 94 11l27 278h80l-33 -326
c-63 -24 -108 -34 -194 -34z" />
    <glyph glyph-name="uni01F4" unicode="&#x1f4;" horiz-adv-x="665" 
d="M362 737l-16 54l229 80l19 -70zM378 -10c-194 0 -319 120 -319 320c0 242 147 403 391 403c60 0 118 -6 166 -28l-29 -62c-51 17 -80 22 -142 22c-198 0 -303 -135 -303 -330c0 -166 102 -254 262 -254c36 0 70 5 94 11l27 278h80l-33 -326c-63 -24 -108 -34 -194 -34z
" />
    <glyph glyph-name="uni1E20" unicode="&#x1e20;" horiz-adv-x="665" 
d="M287 766l7 64h282l-7 -64h-282zM378 -10c-194 0 -319 120 -319 320c0 242 147 403 391 403c60 0 118 -6 166 -28l-29 -62c-51 17 -80 22 -142 22c-198 0 -303 -135 -303 -330c0 -166 102 -254 262 -254c36 0 70 5 94 11l27 278h80l-33 -326c-63 -24 -108 -34 -194 -34z
" />
    <glyph glyph-name="Hbar" unicode="&#x126;" horiz-adv-x="769" 
d="M71 502l7 59h63l16 146h79l-15 -146h380l15 146h80l-16 -146h71l-6 -59h-71l-52 -502h-80l35 322h-381l-34 -322h-80l53 502h-64zM203 387h380l12 115h-380z" />
    <glyph glyph-name="Hcircumflex" unicode="&#x124;" horiz-adv-x="738" 
d="M67 0l75 707h79l-33 -320h380l33 320h80l-74 -707h-80l35 322h-381l-34 -322h-80zM558 737l-136 69l-155 -68l-21 54l182 85l160 -85z" />
    <glyph glyph-name="uni021E" unicode="&#x21e;" horiz-adv-x="738" 
d="M67 0l75 707h79l-33 -320h380l33 320h80l-74 -707h-80l35 322h-381l-34 -322h-80zM414 739l-159 85l30 54l135 -69l155 68l21 -54z" />
    <glyph glyph-name="uni1E24" unicode="&#x1e24;" horiz-adv-x="739" 
d="M67 0l75 707h79l-33 -320h380l33 320h80l-74 -707h-80l35 322h-381l-34 -322h-80zM310 -227l-58 63l72 63l60 -63z" />
    <glyph glyph-name="uni00480331" horiz-adv-x="739" 
d="M67 0l75 707h79l-33 -320h380l33 320h80l-74 -707h-80l35 322h-381l-34 -322h-80zM181 -192l7 63h261l-7 -63h-261z" />
    <glyph glyph-name="uni1E2A" unicode="&#x1e2a;" horiz-adv-x="739" 
d="M67 0l75 707h79l-33 -320h380l33 320h80l-74 -707h-80l35 322h-381l-34 -322h-80zM312 -206c-64 0 -116 45 -136 82l45 38c18 -27 50 -58 99 -58c57 0 92 31 112 57l35 -37c-25 -31 -75 -82 -155 -82z" />
    <glyph glyph-name="uni1E22" unicode="&#x1e22;" horiz-adv-x="738" 
d="M414 753l-59 64l73 63l60 -63zM67 0l75 707h79l-33 -320h380l33 320h80l-74 -707h-80l35 322h-381l-34 -322h-80z" />
    <glyph glyph-name="Iacute" unicode="&#xcd;" horiz-adv-x="278" 
d="M67 0l75 707h79l-74 -707h-80zM135 737l-16 54l229 80l19 -70z" />
    <glyph glyph-name="Icircumflex" unicode="&#xce;" horiz-adv-x="278" 
d="M67 0l75 707h79l-74 -707h-80zM332 737l-136 69l-155 -68l-21 54l182 85l160 -85z" />
    <glyph glyph-name="Idieresis" unicode="&#xcf;" horiz-adv-x="278" 
d="M67 0l75 707h79l-74 -707h-80zM84 749l-50 59l62 56l50 -56zM289 749l-49 59l61 56l51 -56z" />
    <glyph glyph-name="Igrave" unicode="&#xcc;" horiz-adv-x="278" 
d="M231 736l-220 65l27 72l211 -82zM67 0l75 707h79l-74 -707h-80z" />
    <glyph glyph-name="Ibreve" unicode="&#x12c;" horiz-adv-x="278" 
d="M67 0l75 707h79l-74 -707h-80zM185 753c-64 0 -117 44 -136 81l44 38c19 -27 50 -58 100 -58c57 0 92 31 112 57l34 -36c-24 -32 -74 -82 -154 -82z" />
    <glyph glyph-name="Idotaccent" unicode="&#x130;" horiz-adv-x="278" 
d="M185 753l-59 64l73 63l60 -63zM67 0l75 707h79l-74 -707h-80z" />
    <glyph glyph-name="Imacron" unicode="&#x12a;" horiz-adv-x="278" 
d="M67 0l75 707h79l-74 -707h-80zM48 766l7 64h282l-7 -64h-282z" />
    <glyph glyph-name="Iogonek" unicode="&#x12e;" horiz-adv-x="277" 
d="M65 -225c-88 0 -108 49 -104 102c4 54 58 102 107 132l74 698h79l-76 -708c-39 -23 -108 -71 -112 -113c-5 -39 21 -48 58 -48c20 0 38 5 45 8l12 -55c-15 -8 -30 -16 -83 -16z" />
    <glyph glyph-name="uni01CF" unicode="&#x1cf;" horiz-adv-x="278" 
d="M67 0l75 707h79l-74 -707h-80zM182 739l-159 85l30 54l135 -69l155 68l21 -54z" />
    <glyph glyph-name="uni1EC8" unicode="&#x1ec8;" horiz-adv-x="278" 
d="M67 0l75 707h79l-74 -707h-80zM274 887c0 -64 -47 -114 -96 -139l-37 39c13 6 66 37 66 90c0 26 -21 32 -38 32c-14 0 -30 -2 -47 -9l3 55c19 7 39 12 66 12c49 0 83 -31 83 -80z" />
    <glyph glyph-name="uni1ECA" unicode="&#x1eca;" horiz-adv-x="278" 
d="M67 0l75 707h79l-74 -707h-80zM85 -225l-58 64l72 62l60 -62z" />
    <glyph glyph-name="Itilde" unicode="&#x128;" horiz-adv-x="278" 
d="M67 0l75 707h79l-74 -707h-80zM246 747c-40 0 -86 37 -122 37c-34 0 -49 -9 -73 -25l-27 43c29 25 59 45 106 45s85 -36 123 -36c34 0 61 18 74 27l25 -45c-18 -16 -49 -46 -106 -46z" />
    <glyph glyph-name="uni004A0301" horiz-adv-x="279" 
d="M142 737l-16 54l229 80l19 -70zM-62 -187l-27 59c126 66 159 139 174 279l58 556h79l-58 -554c-16 -160 -67 -273 -226 -340z" />
    <glyph glyph-name="Jcircumflex" unicode="&#x134;" horiz-adv-x="279" 
d="M-62 -187l-27 59c126 66 159 139 174 279l58 556h79l-58 -554c-16 -160 -67 -273 -226 -340zM334 737l-136 69l-155 -68l-21 54l182 85l160 -85z" />
    <glyph glyph-name="Kcommaaccent" unicode="&#x136;" horiz-adv-x="602" 
d="M201 -261l44 202h72l-55 -202h-61zM480 -19l-270 386l1 16l308 324h100l-318 -327l252 -359zM67 0l75 707h79l-74 -707h-80z" />
    <glyph glyph-name="uni01E8" unicode="&#x1e8;" horiz-adv-x="602" 
d="M480 -19l-270 386l1 16l308 324h100l-318 -327l252 -359zM67 0l75 707h79l-74 -707h-80zM361 739l-159 85l30 54l135 -69l155 68l21 -54z" />
    <glyph glyph-name="uni1E34" unicode="&#x1e34;" horiz-adv-x="602" 
d="M480 -19l-270 386l1 16l308 324h100l-318 -327l252 -359zM67 0l75 707h79l-74 -707h-80zM134 -192l7 63h261l-7 -63h-261z" />
    <glyph glyph-name="uni1E32" unicode="&#x1e32;" horiz-adv-x="602" 
d="M268 -227l-58 63l72 63l60 -63zM480 -19l-270 386l1 16l308 324h100l-318 -327l252 -359zM67 0l75 707h79l-74 -707h-80z" />
    <glyph glyph-name="Lacute" unicode="&#x139;" horiz-adv-x="486" 
d="M159 737l-16 54l229 80l19 -70zM67 0l75 707h79l-67 -639h307l-7 -68h-387z" />
    <glyph glyph-name="Lcaron" unicode="&#x13d;" horiz-adv-x="486" 
d="M278 555l44 202h72l-55 -202h-61zM67 0l75 707h79l-67 -639h307l-7 -68h-387z" />
    <glyph glyph-name="Lcommaaccent" unicode="&#x13b;" horiz-adv-x="487" 
d="M184 -261l44 202h72l-55 -202h-61zM67 0l75 707h79l-67 -639h307l-7 -68h-387z" />
    <glyph glyph-name="Ldot" unicode="&#x13f;" horiz-adv-x="493" 
d="M67 0l75 707h79l-67 -639h307l-7 -68h-387zM353 294l-59 65l73 63l60 -63z" />
    <glyph glyph-name="Lslash" unicode="&#x141;" horiz-adv-x="510" 
d="M41 268l6 63l84 46l35 330h79l-30 -284l135 74l-7 -64l-135 -74l-30 -291h307l-7 -68h-387l33 313z" />
    <glyph glyph-name="uni1E3A" unicode="&#x1e3a;" horiz-adv-x="487" 
d="M67 0l75 707h79l-67 -639h307l-7 -68h-387zM114 -192l7 63h261l-7 -63h-261z" />
    <glyph glyph-name="uni1E36" unicode="&#x1e36;" horiz-adv-x="487" 
d="M241 -227l-58 63l72 63l60 -63zM67 0l75 707h79l-67 -639h307l-7 -68h-387z" />
    <glyph glyph-name="uni1E38" unicode="&#x1e38;" horiz-adv-x="487" 
d="M236 -227l-58 63l72 63l60 -63zM49 766l7 64h282l-7 -64h-282zM67 0l75 707h79l-67 -639h307l-7 -68h-387z" />
    <glyph glyph-name="uni1E42" unicode="&#x1e42;" horiz-adv-x="888" 
d="M362 -227l-58 63l72 63l60 -63zM6 0l231 707h107l53 -661l296 661h106l-20 -707h-78l24 610l-273 -610h-126l-49 612l-192 -612h-79z" />
    <glyph glyph-name="uni004D0310" horiz-adv-x="889" 
d="M6 0l231 707h107l53 -661l296 661h106l-20 -707h-78l24 610l-273 -610h-126l-49 612l-192 -612h-79zM542 865l-54 59l67 59l56 -59zM530 754c-64 0 -117 44 -136 81l45 38c18 -27 50 -57 99 -57c57 0 92 30 112 56l35 -36c-25 -32 -75 -82 -155 -82z" />
    <glyph glyph-name="uni1E40" unicode="&#x1e40;" horiz-adv-x="889" 
d="M518 753l-59 64l73 63l60 -63zM6 0l231 707h107l53 -661l296 661h106l-20 -707h-78l24 610l-273 -610h-126l-49 612l-192 -612h-79z" />
    <glyph glyph-name="uni1E3E" unicode="&#x1e3e;" horiz-adv-x="889" 
d="M460 737l-16 54l229 80l19 -70zM6 0l231 707h107l53 -661l296 661h106l-20 -707h-78l24 610l-273 -610h-126l-49 612l-192 -612h-79z" />
    <glyph glyph-name="Ntilde" unicode="&#xd1;" horiz-adv-x="724" 
d="M480 747c-40 0 -86 37 -122 37c-34 0 -49 -9 -73 -25l-27 43c29 25 59 45 106 45s85 -36 123 -36c34 0 61 18 74 27l25 -45c-18 -16 -49 -46 -106 -46zM67 0l76 707h116l264 -649l66 649h79l-76 -707h-123l-256 633l-66 -633h-80z" />
    <glyph glyph-name="Nacute" unicode="&#x143;" horiz-adv-x="724" 
d="M357 737l-16 54l229 80l19 -70zM67 0l76 707h116l264 -649l66 649h79l-76 -707h-123l-256 633l-66 -633h-80z" />
    <glyph glyph-name="Ncaron" unicode="&#x147;" horiz-adv-x="724" 
d="M412 739l-159 85l30 54l135 -69l155 68l21 -54zM67 0l76 707h116l264 -649l66 649h79l-76 -707h-123l-256 633l-66 -633h-80z" />
    <glyph glyph-name="Ncommaaccent" unicode="&#x145;" horiz-adv-x="723" 
d="M244 -261l44 202h72l-55 -202h-61zM67 0l76 707h116l264 -649l66 649h79l-76 -707h-123l-256 633l-66 -633h-80z" />
    <glyph glyph-name="uni01F8" unicode="&#x1f8;" horiz-adv-x="724" 
d="M504 736l-220 65l27 72l211 -82zM67 0l76 707h116l264 -649l66 649h79l-76 -707h-123l-256 633l-66 -633h-80z" />
    <glyph glyph-name="uni1E48" unicode="&#x1e48;" horiz-adv-x="723" 
d="M178 -192l7 63h261l-7 -63h-261zM67 0l76 707h116l264 -649l66 649h79l-76 -707h-123l-256 633l-66 -633h-80z" />
    <glyph glyph-name="uni1E44" unicode="&#x1e44;" horiz-adv-x="724" 
d="M410 753l-59 64l73 63l60 -63zM67 0l76 707h116l264 -649l66 649h79l-76 -707h-123l-256 633l-66 -633h-80z" />
    <glyph glyph-name="uni004E0304" horiz-adv-x="724" 
d="M276 766l7 64h282l-7 -64h-282zM67 0l76 707h116l264 -649l66 649h79l-76 -707h-123l-256 633l-66 -633h-80z" />
    <glyph glyph-name="Eng" unicode="&#x14a;" horiz-adv-x="723" 
d="M393 -220c-30 0 -62 8 -75 13l18 65c14 -4 40 -11 65 -11c82 0 104 54 112 131l2 22h-46l-256 633l-66 -633h-80l76 707h116l264 -649l66 649h79l-80 -739c-14 -128 -69 -188 -195 -188z" />
    <glyph glyph-name="uni1E46" unicode="&#x1e46;" horiz-adv-x="723" 
d="M303 -227l-58 63l72 63l60 -63zM67 0l76 707h116l264 -649l66 649h79l-76 -707h-123l-256 633l-66 -633h-80z" />
    <glyph glyph-name="Ograve" unicode="&#xd2;" horiz-adv-x="801" 
d="M507 736l-220 65l27 72l211 -82zM359 -11c-194 0 -299 126 -299 318c0 241 145 411 390 411c194 0 301 -125 301 -318c0 -242 -145 -411 -392 -411zM369 55c199 0 299 154 299 342c0 150 -76 253 -230 253c-195 0 -297 -151 -297 -338c0 -148 73 -257 228 -257z" />
    <glyph glyph-name="Odieresis" unicode="&#xd6;" horiz-adv-x="801" 
d="M343 749l-50 59l62 56l50 -56zM548 749l-49 59l61 56l51 -56zM359 -11c-194 0 -299 126 -299 318c0 241 145 411 390 411c194 0 301 -125 301 -318c0 -242 -145 -411 -392 -411zM369 55c199 0 299 154 299 342c0 150 -76 253 -230 253c-195 0 -297 -151 -297 -338
c0 -148 73 -257 228 -257z" />
    <glyph glyph-name="Otilde" unicode="&#xd5;" horiz-adv-x="801" 
d="M507 747c-40 0 -86 37 -122 37c-34 0 -49 -9 -73 -25l-27 43c29 25 59 45 106 45s85 -36 123 -36c34 0 61 18 74 27l25 -45c-18 -16 -49 -46 -106 -46zM359 -11c-194 0 -299 126 -299 318c0 241 145 411 390 411c194 0 301 -125 301 -318c0 -242 -145 -411 -392 -411z
M369 55c199 0 299 154 299 342c0 150 -76 253 -230 253c-195 0 -297 -151 -297 -338c0 -148 73 -257 228 -257z" />
    <glyph glyph-name="Obreve" unicode="&#x14e;" horiz-adv-x="801" 
d="M443 754c-64 0 -117 44 -136 81l44 38c19 -27 50 -58 100 -58c57 0 92 31 112 57l34 -36c-24 -32 -74 -82 -154 -82zM359 -11c-194 0 -299 126 -299 318c0 241 145 411 390 411c194 0 301 -125 301 -318c0 -242 -145 -411 -392 -411zM369 55c199 0 299 154 299 342
c0 150 -76 253 -230 253c-195 0 -297 -151 -297 -338c0 -148 73 -257 228 -257z" />
    <glyph glyph-name="Oacute" unicode="&#xd3;" horiz-adv-x="801" 
d="M362 737l-16 54l229 80l19 -70zM359 -11c-194 0 -299 126 -299 318c0 241 145 411 390 411c194 0 301 -125 301 -318c0 -242 -145 -411 -392 -411zM369 55c199 0 299 154 299 342c0 150 -76 253 -230 253c-195 0 -297 -151 -297 -338c0 -148 73 -257 228 -257z" />
    <glyph glyph-name="Ocircumflex" unicode="&#xd4;" horiz-adv-x="801" 
d="M587 737l-136 69l-155 -68l-21 54l182 85l160 -85zM359 -11c-194 0 -299 126 -299 318c0 241 145 411 390 411c194 0 301 -125 301 -318c0 -242 -145 -411 -392 -411zM369 55c199 0 299 154 299 342c0 150 -76 253 -230 253c-195 0 -297 -151 -297 -338
c0 -148 73 -257 228 -257z" />
    <glyph glyph-name="Ohungarumlaut" unicode="&#x150;" horiz-adv-x="801" 
d="M359 -11c-194 0 -299 126 -299 318c0 241 145 411 390 411c194 0 301 -125 301 -318c0 -242 -145 -411 -392 -411zM369 55c199 0 299 154 299 342c0 150 -76 253 -230 253c-195 0 -297 -151 -297 -338c0 -148 73 -257 228 -257zM313 737l-36 45l189 152l43 -60zM500 736
l-17 55l229 80l19 -71z" />
    <glyph glyph-name="Omacron" unicode="&#x14c;" horiz-adv-x="801" 
d="M306 766l7 64h282l-7 -64h-282zM359 -11c-194 0 -299 126 -299 318c0 241 145 411 390 411c194 0 301 -125 301 -318c0 -242 -145 -411 -392 -411zM369 55c199 0 299 154 299 342c0 150 -76 253 -230 253c-195 0 -297 -151 -297 -338c0 -148 73 -257 228 -257z" />
    <glyph glyph-name="Oslash" unicode="&#xd8;" horiz-adv-x="826" 
d="M88 -29l-41 39l84 87c-38 54 -58 126 -58 210c0 241 145 411 390 411c84 0 152 -24 202 -66l79 81l41 -40l-80 -84c39 -53 59 -125 59 -209c0 -242 -145 -411 -392 -411c-86 0 -153 23 -202 67zM190 157l419 438c-38 35 -90 55 -158 55c-195 0 -297 -152 -297 -338
c0 -59 11 -113 36 -155zM382 55c199 0 300 154 300 342c0 59 -13 111 -37 151l-420 -436c37 -36 89 -57 157 -57z" />
    <glyph glyph-name="Oslashacute" unicode="&#x1fe;" horiz-adv-x="826" 
d="M88 -29l-41 39l84 87c-38 54 -58 126 -58 210c0 241 145 411 390 411c84 0 152 -24 202 -66l79 81l41 -40l-80 -84c39 -53 59 -125 59 -209c0 -242 -145 -411 -392 -411c-86 0 -153 23 -202 67zM190 157l419 438c-38 35 -90 55 -158 55c-195 0 -297 -152 -297 -338
c0 -59 11 -113 36 -155zM382 55c199 0 300 154 300 342c0 59 -13 111 -37 151l-420 -436c37 -36 89 -57 157 -57zM351 737l-16 54l229 80l19 -70z" />
    <glyph glyph-name="uni01D1" unicode="&#x1d1;" horiz-adv-x="801" 
d="M450 739l-159 85l30 54l135 -69l155 68l21 -54zM359 -11c-194 0 -299 126 -299 318c0 241 145 411 390 411c194 0 301 -125 301 -318c0 -242 -145 -411 -392 -411zM369 55c199 0 299 154 299 342c0 150 -76 253 -230 253c-195 0 -297 -151 -297 -338
c0 -148 73 -257 228 -257z" />
    <glyph glyph-name="uni01EA" unicode="&#x1ea;" horiz-adv-x="802" 
d="M359 -11c-194 0 -299 126 -299 318c0 241 145 411 390 411c194 0 301 -125 301 -318c0 -192 -92 -338 -252 -390c-52 -28 -135 -78 -135 -129c0 -34 22 -46 50 -46c17 0 37 4 54 10l11 -55c-20 -8 -47 -15 -85 -15c-65 0 -102 35 -102 94c0 47 34 88 77 121
c-4 0 -7 -1 -10 -1zM369 55c199 0 299 154 299 342c0 150 -76 253 -230 253c-195 0 -297 -151 -297 -338c0 -148 73 -257 228 -257z" />
    <glyph glyph-name="uni01EC" unicode="&#x1ec;" horiz-adv-x="802" 
d="M359 -11c-194 0 -299 126 -299 318c0 241 145 411 390 411c194 0 301 -125 301 -318c0 -192 -92 -338 -252 -390c-52 -28 -135 -78 -135 -129c0 -34 22 -46 50 -46c17 0 37 4 54 10l11 -55c-20 -8 -47 -15 -85 -15c-65 0 -102 35 -102 94c0 47 34 88 77 121
c-4 0 -7 -1 -10 -1zM369 55c199 0 299 154 299 342c0 150 -76 253 -230 253c-195 0 -297 -151 -297 -338c0 -148 73 -257 228 -257zM316 766l7 64h282l-7 -64h-282z" />
    <glyph glyph-name="uni022E" unicode="&#x22e;" horiz-adv-x="801" 
d="M454 753l-59 64l73 63l60 -63zM359 -11c-194 0 -299 126 -299 318c0 241 145 411 390 411c194 0 301 -125 301 -318c0 -242 -145 -411 -392 -411zM369 55c199 0 299 154 299 342c0 150 -76 253 -230 253c-195 0 -297 -151 -297 -338c0 -148 73 -257 228 -257z" />
    <glyph glyph-name="Ohorn" unicode="&#x1a0;" horiz-adv-x="819" 
d="M359 -11c-194 0 -299 126 -299 318c0 241 145 411 390 411c81 0 147 -22 196 -62c46 21 75 63 75 124c0 16 -1 35 -4 47h74c4 -13 6 -32 6 -49c0 -78 -37 -140 -102 -175c37 -53 56 -122 56 -203c0 -242 -145 -411 -392 -411zM369 55c199 0 299 154 299 342
c0 150 -76 253 -230 253c-195 0 -297 -151 -297 -338c0 -148 73 -257 228 -257z" />
    <glyph glyph-name="uni1ED2" unicode="&#x1ed2;" horiz-adv-x="801" 
d="M629 818l-154 121l49 56l146 -134zM587 738l-133 67l-153 -66l-21 53l180 84l159 -84zM359 -11c-194 0 -299 126 -299 318c0 241 145 411 390 411c194 0 301 -125 301 -318c0 -242 -145 -411 -392 -411zM369 55c199 0 299 154 299 342c0 150 -76 253 -230 253
c-195 0 -297 -151 -297 -338c0 -148 73 -257 228 -257z" />
    <glyph glyph-name="uni1ED0" unicode="&#x1ed0;" horiz-adv-x="801" 
d="M572 836l-37 41l145 125l46 -54zM590 738l-133 67l-153 -66l-21 53l180 84l159 -84zM359 -11c-194 0 -299 126 -299 318c0 241 145 411 390 411c194 0 301 -125 301 -318c0 -242 -145 -411 -392 -411zM369 55c199 0 299 154 299 342c0 150 -76 253 -230 253
c-195 0 -297 -151 -297 -338c0 -148 73 -257 228 -257z" />
    <glyph glyph-name="uni1ED6" unicode="&#x1ed6;" horiz-adv-x="801" 
d="M586 738l-133 67l-153 -66l-22 53l180 84l159 -84zM526 889c-41 0 -86 35 -122 35c-31 0 -47 -6 -71 -24l-26 43c28 23 59 45 105 45c49 0 83 -35 122 -35c33 0 59 18 73 27l25 -44c-18 -15 -50 -47 -106 -47zM359 -11c-194 0 -299 126 -299 318c0 241 145 411 390 411
c194 0 301 -125 301 -318c0 -242 -145 -411 -392 -411zM369 55c199 0 299 154 299 342c0 150 -76 253 -230 253c-195 0 -297 -151 -297 -338c0 -148 73 -257 228 -257z" />
    <glyph glyph-name="uni1ED4" unicode="&#x1ed4;" horiz-adv-x="801" 
d="M359 -11c-194 0 -299 126 -299 318c0 241 145 411 390 411c194 0 301 -125 301 -318c0 -242 -145 -411 -392 -411zM369 55c199 0 299 154 299 342c0 150 -76 253 -230 253c-195 0 -297 -151 -297 -338c0 -148 73 -257 228 -257zM652 960c0 -62 -44 -98 -85 -121l-38 35
c12 6 60 32 60 73c0 26 -22 32 -38 32c-15 0 -32 -2 -48 -10l-1 51c19 8 38 14 68 14c16 0 41 -4 60 -22c13 -12 22 -28 22 -52zM584 738l-133 67l-152 -66l-22 53l180 84l159 -84z" />
    <glyph glyph-name="uni1ED8" unicode="&#x1ed8;" horiz-adv-x="801" 
d="M331 -225l-58 64l72 62l60 -62zM359 -11c-194 0 -299 126 -299 318c0 241 145 411 390 411c194 0 301 -125 301 -318c0 -242 -145 -411 -392 -411zM369 55c199 0 299 154 299 342c0 150 -76 253 -230 253c-195 0 -297 -151 -297 -338c0 -148 73 -257 228 -257zM598 737
l-136 69l-155 -68l-21 54l182 85l160 -85z" />
    <glyph glyph-name="uni1ECE" unicode="&#x1ece;" horiz-adv-x="801" 
d="M541 887c0 -64 -47 -114 -96 -139l-37 39c13 6 66 37 66 90c0 26 -21 32 -38 32c-14 0 -30 -2 -47 -9l3 55c19 7 39 12 66 12c49 0 83 -31 83 -80zM359 -11c-194 0 -299 126 -299 318c0 241 145 411 390 411c194 0 301 -125 301 -318c0 -242 -145 -411 -392 -411zM369 55
c199 0 299 154 299 342c0 150 -76 253 -230 253c-195 0 -297 -151 -297 -338c0 -148 73 -257 228 -257z" />
    <glyph glyph-name="uni1ECC" unicode="&#x1ecc;" horiz-adv-x="801" 
d="M330 -225l-58 64l72 62l60 -62zM359 -11c-194 0 -299 126 -299 318c0 241 145 411 390 411c194 0 301 -125 301 -318c0 -242 -145 -411 -392 -411zM369 55c199 0 299 154 299 342c0 150 -76 253 -230 253c-195 0 -297 -151 -297 -338c0 -148 73 -257 228 -257z" />
    <glyph glyph-name="uni1EDC" unicode="&#x1edc;" horiz-adv-x="819" 
d="M359 -11c-194 0 -299 126 -299 318c0 241 145 411 390 411c81 0 147 -22 196 -62c46 21 75 63 75 124c0 16 -1 35 -4 47h74c4 -13 6 -32 6 -49c0 -78 -37 -140 -102 -175c37 -53 56 -122 56 -203c0 -242 -145 -411 -392 -411zM369 55c199 0 299 154 299 342
c0 150 -76 253 -230 253c-195 0 -297 -151 -297 -338c0 -148 73 -257 228 -257zM532 736l-220 65l27 72l211 -82z" />
    <glyph glyph-name="uni1EDA" unicode="&#x1eda;" horiz-adv-x="819" 
d="M359 -11c-194 0 -299 126 -299 318c0 241 145 411 390 411c81 0 147 -22 196 -62c46 21 75 63 75 124c0 16 -1 35 -4 47h74c4 -13 6 -32 6 -49c0 -78 -37 -140 -102 -175c37 -53 56 -122 56 -203c0 -242 -145 -411 -392 -411zM369 55c199 0 299 154 299 342
c0 150 -76 253 -230 253c-195 0 -297 -151 -297 -338c0 -148 73 -257 228 -257zM402 737l-16 54l229 80l19 -70z" />
    <glyph glyph-name="uni1EE0" unicode="&#x1ee0;" horiz-adv-x="819" 
d="M359 -11c-194 0 -299 126 -299 318c0 241 145 411 390 411c81 0 147 -22 196 -62c46 21 75 63 75 124c0 16 -1 35 -4 47h74c4 -13 6 -32 6 -49c0 -78 -37 -140 -102 -175c37 -53 56 -122 56 -203c0 -242 -145 -411 -392 -411zM369 55c199 0 299 154 299 342
c0 150 -76 253 -230 253c-195 0 -297 -151 -297 -338c0 -148 73 -257 228 -257zM526 747c-40 0 -86 37 -122 37c-34 0 -49 -9 -73 -25l-27 43c29 25 59 45 106 45s85 -36 123 -36c34 0 61 18 74 27l25 -45c-18 -16 -49 -46 -106 -46z" />
    <glyph glyph-name="uni1EDE" unicode="&#x1ede;" horiz-adv-x="819" 
d="M359 -11c-194 0 -299 126 -299 318c0 241 145 411 390 411c81 0 147 -22 196 -62c46 21 75 63 75 124c0 16 -1 35 -4 47h74c4 -13 6 -32 6 -49c0 -78 -37 -140 -102 -175c37 -53 56 -122 56 -203c0 -242 -145 -411 -392 -411zM369 55c199 0 299 154 299 342
c0 150 -76 253 -230 253c-195 0 -297 -151 -297 -338c0 -148 73 -257 228 -257zM545 887c0 -64 -47 -114 -96 -139l-37 39c13 6 66 37 66 90c0 26 -21 32 -38 32c-14 0 -30 -2 -47 -9l3 55c19 7 39 12 66 12c49 0 83 -31 83 -80z" />
    <glyph glyph-name="uni1EE2" unicode="&#x1ee2;" horiz-adv-x="819" 
d="M359 -11c-194 0 -299 126 -299 318c0 241 145 411 390 411c81 0 147 -22 196 -62c46 21 75 63 75 124c0 16 -1 35 -4 47h74c4 -13 6 -32 6 -49c0 -78 -37 -140 -102 -175c37 -53 56 -122 56 -203c0 -242 -145 -411 -392 -411zM369 55c199 0 299 154 299 342
c0 150 -76 253 -230 253c-195 0 -297 -151 -297 -338c0 -148 73 -257 228 -257zM331 -225l-58 64l72 62l60 -62z" />
    <glyph glyph-name="uni1E56" unicode="&#x1e56;" horiz-adv-x="592" 
d="M333 753l-59 64l73 63l60 -63zM67 0l75 707h229c122 0 207 -62 207 -190c0 -184 -142 -258 -307 -257h-20l7 66c14 0 31 0 43 1c111 8 192 53 192 183c0 98 -62 133 -150 133h-128l-67 -643h-81z" />
    <glyph glyph-name="uni00500304" horiz-adv-x="592" 
d="M67 0l75 707h229c122 0 207 -62 207 -190c0 -184 -142 -258 -307 -257h-20l7 66c14 0 31 0 43 1c111 8 192 53 192 183c0 98 -62 133 -150 133h-128l-67 -643h-81zM205 766l7 64h282l-7 -64h-282z" />
    <glyph glyph-name="Racute" unicode="&#x154;" horiz-adv-x="641" 
d="M525 -18l-198 322c-31 -3 -57 -3 -85 -3h-61l-33 -301h-81l75 707h218c121 0 209 -60 209 -172c0 -97 -53 -182 -160 -212l192 -305zM187 365h93c124 0 204 49 204 167c0 81 -63 111 -151 111h-118zM266 737l-16 54l229 80l19 -70z" />
    <glyph glyph-name="Rcaron" unicode="&#x158;" horiz-adv-x="641" 
d="M525 -18l-198 322c-31 -3 -57 -3 -85 -3h-61l-33 -301h-81l75 707h218c121 0 209 -60 209 -172c0 -97 -53 -182 -160 -212l192 -305zM187 365h93c124 0 204 49 204 167c0 81 -63 111 -151 111h-118zM331 739l-159 85l30 54l135 -69l155 68l21 -54z" />
    <glyph glyph-name="uni00520300" horiz-adv-x="641" 
d="M525 -18l-198 322c-31 -3 -57 -3 -85 -3h-61l-33 -301h-81l75 707h218c121 0 209 -60 209 -172c0 -97 -53 -182 -160 -212l192 -305zM187 365h93c124 0 204 49 204 167c0 81 -63 111 -151 111h-118zM370 736l-220 65l27 72l211 -82z" />
    <glyph glyph-name="Rcommaaccent" unicode="&#x156;" horiz-adv-x="641" 
d="M525 -18l-198 322c-31 -3 -57 -3 -85 -3h-61l-33 -301h-81l75 707h218c121 0 209 -60 209 -172c0 -97 -53 -182 -160 -212l192 -305zM187 365h93c124 0 204 49 204 167c0 81 -63 111 -151 111h-118zM222 -261l44 202h72l-55 -202h-61z" />
    <glyph glyph-name="uni1E5E" unicode="&#x1e5e;" horiz-adv-x="641" 
d="M525 -18l-198 322c-31 -3 -57 -3 -85 -3h-61l-33 -301h-81l75 707h218c121 0 209 -60 209 -172c0 -97 -53 -182 -160 -212l192 -305zM187 365h93c124 0 204 49 204 167c0 81 -63 111 -151 111h-118zM161 -192l7 63h261l-7 -63h-261z" />
    <glyph glyph-name="uni1E5A" unicode="&#x1e5a;" horiz-adv-x="641" 
d="M525 -18l-198 322c-31 -3 -57 -3 -85 -3h-61l-33 -301h-81l75 707h218c121 0 209 -60 209 -172c0 -97 -53 -182 -160 -212l192 -305zM187 365h93c124 0 204 49 204 167c0 81 -63 111 -151 111h-118zM290 -227l-58 63l72 63l60 -63z" />
    <glyph glyph-name="uni1E5C" unicode="&#x1e5c;" horiz-adv-x="641" 
d="M525 -18l-198 322c-31 -3 -57 -3 -85 -3h-61l-33 -301h-81l75 707h218c121 0 209 -60 209 -172c0 -97 -53 -182 -160 -212l192 -305zM187 365h93c124 0 204 49 204 167c0 81 -63 111 -151 111h-118zM202 766l7 64h282l-7 -64h-282zM290 -227l-58 63l72 63l60 -63z" />
    <glyph glyph-name="uni00520325" horiz-adv-x="641" 
d="M525 -18l-198 322c-31 -3 -57 -3 -85 -3h-61l-33 -301h-81l75 707h218c121 0 209 -60 209 -172c0 -97 -53 -182 -160 -212l192 -305zM187 365h93c124 0 204 49 204 167c0 81 -63 111 -151 111h-118zM294 -288c-57 0 -109 32 -109 90c0 73 59 122 130 122
c57 0 107 -37 107 -92c0 -74 -56 -120 -128 -120zM298 -245c39 0 70 27 70 68c0 34 -26 56 -59 56c-41 0 -70 -27 -70 -68c0 -35 25 -56 59 -56z" />
    <glyph glyph-name="uni005203250304" horiz-adv-x="641" 
d="M525 -18l-198 322c-31 -3 -57 -3 -85 -3h-61l-33 -301h-81l75 707h218c121 0 209 -60 209 -172c0 -97 -53 -182 -160 -212l192 -305zM187 365h93c124 0 204 49 204 167c0 81 -63 111 -151 111h-118zM299 -288c-57 0 -109 32 -109 90c0 73 59 122 130 122
c57 0 107 -37 107 -92c0 -74 -56 -120 -128 -120zM197 766l7 64h282l-7 -64h-282zM303 -245c39 0 70 27 70 68c0 34 -26 56 -59 56c-41 0 -70 -27 -70 -68c0 -35 25 -56 59 -56z" />
    <glyph glyph-name="uni1E58" unicode="&#x1e58;" horiz-adv-x="641" 
d="M525 -18l-198 322c-31 -3 -57 -3 -85 -3h-61l-33 -301h-81l75 707h218c121 0 209 -60 209 -172c0 -97 -53 -182 -160 -212l192 -305zM187 365h93c124 0 204 49 204 167c0 81 -63 111 -151 111h-118zM332 753l-59 64l73 63l60 -63z" />
    <glyph glyph-name="Sacute" unicode="&#x15a;" horiz-adv-x="523" 
d="M210 -11c-64 0 -151 22 -196 48l31 67c49 -23 111 -45 171 -45c89 0 166 31 166 134c0 132 -291 143 -291 342c0 121 106 180 225 180c72 0 140 -20 178 -41l-26 -62c-41 18 -100 34 -155 34c-74 0 -144 -25 -144 -109c0 -131 292 -156 292 -342
c0 -139 -115 -206 -251 -206zM249 737l-16 54l229 80l19 -70z" />
    <glyph glyph-name="Scedilla" unicode="&#x15e;" horiz-adv-x="523" 
d="M210 -11c-64 0 -151 22 -196 48l31 67c49 -23 111 -45 171 -45c89 0 166 31 166 134c0 132 -291 143 -291 342c0 121 106 180 225 180c72 0 140 -20 178 -41l-26 -62c-41 18 -100 34 -155 34c-74 0 -144 -25 -144 -109c0 -131 292 -156 292 -342
c0 -139 -115 -206 -251 -206zM152 -239l-21 44c45 26 62 51 66 77c2 21 -6 43 -16 67h74c10 -20 15 -43 13 -66c-4 -44 -34 -88 -116 -122z" />
    <glyph glyph-name="Scaron" unicode="&#x160;" horiz-adv-x="523" 
d="M305 739l-159 85l30 54l135 -69l155 68l21 -54zM210 -11c-64 0 -151 22 -196 48l31 67c49 -23 111 -45 171 -45c89 0 166 31 166 134c0 132 -291 143 -291 342c0 121 106 180 225 180c72 0 140 -20 178 -41l-26 -62c-41 18 -100 34 -155 34c-74 0 -144 -25 -144 -109
c0 -131 292 -156 292 -342c0 -139 -115 -206 -251 -206z" />
    <glyph glyph-name="Scircumflex" unicode="&#x15c;" horiz-adv-x="523" 
d="M210 -11c-64 0 -151 22 -196 48l31 67c49 -23 111 -45 171 -45c89 0 166 31 166 134c0 132 -291 143 -291 342c0 121 106 180 225 180c72 0 140 -20 178 -41l-26 -62c-41 18 -100 34 -155 34c-74 0 -144 -25 -144 -109c0 -131 292 -156 292 -342
c0 -139 -115 -206 -251 -206zM466 737l-136 69l-155 -68l-21 54l182 85l160 -85z" />
    <glyph glyph-name="Scommaaccent" unicode="&#x218;" horiz-adv-x="523" 
d="M139 -261l44 202h72l-55 -202h-61zM210 -11c-64 0 -151 22 -196 48l31 67c49 -23 111 -45 171 -45c89 0 166 31 166 134c0 132 -291 143 -291 342c0 121 106 180 225 180c72 0 140 -20 178 -41l-26 -62c-41 18 -100 34 -155 34c-74 0 -144 -25 -144 -109
c0 -131 292 -156 292 -342c0 -139 -115 -206 -251 -206z" />
    <glyph glyph-name="uni00530331" horiz-adv-x="523" 
d="M210 -11c-64 0 -151 22 -196 48l31 67c49 -23 111 -45 171 -45c89 0 166 31 166 134c0 132 -291 143 -291 342c0 121 106 180 225 180c72 0 140 -20 178 -41l-26 -62c-41 18 -100 34 -155 34c-74 0 -144 -25 -144 -109c0 -131 292 -156 292 -342
c0 -139 -115 -206 -251 -206zM64 -192l7 63h261l-7 -63h-261z" />
    <glyph glyph-name="uni00530300" horiz-adv-x="523" 
d="M386 736l-220 65l27 72l211 -82zM210 -11c-64 0 -151 22 -196 48l31 67c49 -23 111 -45 171 -45c89 0 166 31 166 134c0 132 -291 143 -291 342c0 121 106 180 225 180c72 0 140 -20 178 -41l-26 -62c-41 18 -100 34 -155 34c-74 0 -144 -25 -144 -109
c0 -131 292 -156 292 -342c0 -139 -115 -206 -251 -206z" />
    <glyph glyph-name="uni1E60" unicode="&#x1e60;" horiz-adv-x="523" 
d="M323 753l-59 64l73 63l60 -63zM210 -11c-64 0 -151 22 -196 48l31 67c49 -23 111 -45 171 -45c89 0 166 31 166 134c0 132 -291 143 -291 342c0 121 106 180 225 180c72 0 140 -20 178 -41l-26 -62c-41 18 -100 34 -155 34c-74 0 -144 -25 -144 -109
c0 -131 292 -156 292 -342c0 -139 -115 -206 -251 -206z" />
    <glyph glyph-name="uni00530306" horiz-adv-x="523" 
d="M314 753c-64 0 -117 44 -136 81l44 38c19 -27 50 -58 100 -58c57 0 92 31 112 57l34 -36c-24 -32 -74 -82 -154 -82zM210 -11c-64 0 -151 22 -196 48l31 67c49 -23 111 -45 171 -45c89 0 166 31 166 134c0 132 -291 143 -291 342c0 121 106 180 225 180
c72 0 140 -20 178 -41l-26 -62c-41 18 -100 34 -155 34c-74 0 -144 -25 -144 -109c0 -131 292 -156 292 -342c0 -139 -115 -206 -251 -206z" />
    <glyph glyph-name="uni1E62" unicode="&#x1e62;" horiz-adv-x="523" 
d="M199 -227l-58 63l72 63l60 -63zM210 -11c-64 0 -151 22 -196 48l31 67c49 -23 111 -45 171 -45c89 0 166 31 166 134c0 132 -291 143 -291 342c0 121 106 180 225 180c72 0 140 -20 178 -41l-26 -62c-41 18 -100 34 -155 34c-74 0 -144 -25 -144 -109
c0 -131 292 -156 292 -342c0 -139 -115 -206 -251 -206z" />
    <glyph glyph-name="Tbar" unicode="&#x166;" horiz-adv-x="571" 
d="M98 340l7 58h148l26 242h-242l8 67h563l-8 -67h-241l-26 -242h151l-7 -58h-150l-35 -340h-80l35 340h-149z" />
    <glyph glyph-name="Tcaron" unicode="&#x164;" horiz-adv-x="571" 
d="M324 739l-159 85l30 54l135 -69l155 68l21 -54zM212 0l67 640h-242l8 67h563l-8 -67h-241l-67 -640h-80z" />
    <glyph glyph-name="Tcommaaccent" unicode="&#x162;" horiz-adv-x="569" 
d="M173 -261l44 202h72l-55 -202h-61zM211 0l67 640h-242l8 67h563l-8 -67h-241l-67 -640h-80z" />
    <glyph glyph-name="uni021A" unicode="&#x21a;" horiz-adv-x="569" 
d="M173 -261l44 202h72l-55 -202h-61zM211 0l67 640h-242l8 67h563l-8 -67h-241l-67 -640h-80z" />
    <glyph glyph-name="uni1E6E" unicode="&#x1e6e;" horiz-adv-x="569" 
d="M211 0l67 640h-242l8 67h563l-8 -67h-241l-67 -640h-80zM96 -192l7 63h261l-7 -63h-261z" />
    <glyph glyph-name="uni1E6C" unicode="&#x1e6c;" horiz-adv-x="569" 
d="M225 -227l-58 63l72 63l60 -63zM211 0l67 640h-242l8 67h563l-8 -67h-241l-67 -640h-80z" />
    <glyph glyph-name="uni00540308" horiz-adv-x="571" 
d="M228 749l-50 59l62 56l50 -56zM433 749l-49 59l61 56l51 -56zM212 0l67 640h-242l8 67h563l-8 -67h-241l-67 -640h-80z" />
    <glyph glyph-name="uni1E6A" unicode="&#x1e6a;" horiz-adv-x="571" 
d="M330 753l-59 64l73 63l60 -63zM212 0l67 640h-242l8 67h563l-8 -67h-241l-67 -640h-80z" />
    <glyph glyph-name="Uacute" unicode="&#xda;" horiz-adv-x="725" 
d="M344 737l-16 54l229 80l19 -70zM337 -12c-127 0 -255 45 -255 214c0 12 0 26 2 40l49 465h81l-48 -458c-1 -13 -2 -25 -2 -36c0 -126 81 -157 174 -157c108 0 197 47 215 217l45 434h76l-46 -437c-23 -227 -166 -282 -291 -282z" />
    <glyph glyph-name="Ucircumflex" unicode="&#xdb;" horiz-adv-x="725" 
d="M337 -12c-127 0 -255 45 -255 214c0 12 0 26 2 40l49 465h81l-48 -458c-1 -13 -2 -25 -2 -36c0 -126 81 -157 174 -157c108 0 197 47 215 217l45 434h76l-46 -437c-23 -227 -166 -282 -291 -282zM557 737l-136 69l-155 -68l-21 54l182 85l160 -85z" />
    <glyph glyph-name="Ugrave" unicode="&#xd9;" horiz-adv-x="725" 
d="M487 736l-220 65l27 72l211 -82zM337 -12c-127 0 -255 45 -255 214c0 12 0 26 2 40l49 465h81l-48 -458c-1 -13 -2 -25 -2 -36c0 -126 81 -157 174 -157c108 0 197 47 215 217l45 434h76l-46 -437c-23 -227 -166 -282 -291 -282z" />
    <glyph glyph-name="Udieresis" unicode="&#xdc;" horiz-adv-x="725" 
d="M301 749l-50 59l62 56l50 -56zM506 749l-49 59l61 56l51 -56zM337 -12c-127 0 -255 45 -255 214c0 12 0 26 2 40l49 465h81l-48 -458c-1 -13 -2 -25 -2 -36c0 -126 81 -157 174 -157c108 0 197 47 215 217l45 434h76l-46 -437c-23 -227 -166 -282 -291 -282z" />
    <glyph glyph-name="Ubreve" unicode="&#x16c;" horiz-adv-x="725" 
d="M412 746c-64 0 -117 44 -136 81l44 38c19 -27 50 -58 100 -58c57 0 92 31 112 57l34 -36c-24 -32 -74 -82 -154 -82zM337 -12c-127 0 -255 45 -255 214c0 12 0 26 2 40l49 465h81l-48 -458c-1 -13 -2 -25 -2 -36c0 -126 81 -157 174 -157c108 0 197 47 215 217l45 434h76
l-46 -437c-23 -227 -166 -282 -291 -282z" />
    <glyph glyph-name="Uhungarumlaut" unicode="&#x170;" horiz-adv-x="725" 
d="M337 -12c-127 0 -255 45 -255 214c0 12 0 26 2 40l49 465h81l-48 -458c-1 -13 -2 -25 -2 -36c0 -126 81 -157 174 -157c108 0 197 47 215 217l45 434h76l-46 -437c-23 -227 -166 -282 -291 -282zM270 737l-36 45l189 152l43 -60zM457 736l-17 55l229 80l19 -71z" />
    <glyph glyph-name="Umacron" unicode="&#x16a;" horiz-adv-x="725" 
d="M268 766l7 64h282l-7 -64h-282zM337 -12c-127 0 -255 45 -255 214c0 12 0 26 2 40l49 465h81l-48 -458c-1 -13 -2 -25 -2 -36c0 -126 81 -157 174 -157c108 0 197 47 215 217l45 434h76l-46 -437c-23 -227 -166 -282 -291 -282z" />
    <glyph glyph-name="Uogonek" unicode="&#x172;" horiz-adv-x="729" 
d="M353 -225c-93 0 -110 52 -104 108c4 41 37 77 75 105c-123 4 -241 48 -241 211c0 13 0 26 2 40l49 468h81l-48 -461c-1 -12 -2 -24 -2 -35c0 -126 82 -155 174 -155c109 0 197 44 215 214l46 437h76l-47 -440c-17 -169 -102 -242 -195 -267c-39 -23 -109 -72 -113 -114
c-5 -39 21 -48 57 -48c20 0 39 5 46 8l12 -55c-15 -8 -30 -16 -83 -16z" />
    <glyph glyph-name="Uring" unicode="&#x16e;" horiz-adv-x="724" 
d="M407 709c-48 0 -91 26 -91 74c0 62 48 103 108 103c47 0 89 -31 89 -78c0 -61 -46 -99 -106 -99zM410 744c32 0 58 23 58 56c0 29 -22 48 -49 48c-34 0 -58 -23 -58 -56c0 -30 21 -48 49 -48zM337 -12c-127 0 -255 45 -255 214c0 12 0 26 2 40l49 465h81l-48 -458
c-1 -13 -2 -25 -2 -36c0 -126 81 -157 174 -157c108 0 197 47 215 217l45 434h76l-46 -437c-23 -227 -166 -282 -291 -282z" />
    <glyph glyph-name="Utilde" unicode="&#x168;" horiz-adv-x="725" 
d="M474 747c-40 0 -86 37 -122 37c-34 0 -49 -9 -73 -25l-27 43c29 25 59 45 106 45s85 -36 123 -36c34 0 61 18 74 27l25 -45c-18 -16 -49 -46 -106 -46zM337 -12c-127 0 -255 45 -255 214c0 12 0 26 2 40l49 465h81l-48 -458c-1 -13 -2 -25 -2 -36
c0 -126 81 -157 174 -157c108 0 197 47 215 217l45 434h76l-46 -437c-23 -227 -166 -282 -291 -282z" />
    <glyph glyph-name="Uhorn" unicode="&#x1af;" horiz-adv-x="757" 
d="M337 -12c-127 0 -255 45 -255 214c0 12 0 26 2 40l49 465h81l-48 -458c-1 -13 -2 -25 -2 -36c0 -126 81 -157 174 -157c108 0 197 47 215 217l45 434h25c51 3 87 30 87 87c0 13 -2 28 -4 41h70c4 -12 5 -27 5 -40c0 -76 -43 -132 -113 -147l-40 -378
c-23 -227 -166 -282 -291 -282z" />
    <glyph glyph-name="uni1EE6" unicode="&#x1ee6;" horiz-adv-x="725" 
d="M337 -12c-127 0 -255 45 -255 214c0 12 0 26 2 40l49 465h81l-48 -458c-1 -13 -2 -25 -2 -36c0 -126 81 -157 174 -157c108 0 197 47 215 217l45 434h76l-46 -437c-23 -227 -166 -282 -291 -282zM504 887c0 -64 -47 -114 -96 -139l-37 39c13 6 66 37 66 90
c0 26 -21 32 -38 32c-14 0 -30 -2 -47 -9l3 55c19 7 39 12 66 12c49 0 83 -31 83 -80z" />
    <glyph glyph-name="uni1EE4" unicode="&#x1ee4;" horiz-adv-x="724" 
d="M307 -225l-58 64l72 62l60 -62zM337 -12c-127 0 -255 45 -255 214c0 12 0 26 2 40l49 465h81l-48 -458c-1 -13 -2 -25 -2 -36c0 -126 81 -157 174 -157c108 0 197 47 215 217l45 434h76l-46 -437c-23 -227 -166 -282 -291 -282z" />
    <glyph glyph-name="uni1EEA" unicode="&#x1eea;" horiz-adv-x="757" 
d="M337 -12c-127 0 -255 45 -255 214c0 12 0 26 2 40l49 465h81l-48 -458c-1 -13 -2 -25 -2 -36c0 -126 81 -157 174 -157c108 0 197 47 215 217l45 434h25c51 3 87 30 87 87c0 13 -2 28 -4 41h70c4 -12 5 -27 5 -40c0 -76 -43 -132 -113 -147l-40 -378
c-23 -227 -166 -282 -291 -282zM510 736l-220 65l27 72l211 -82z" />
    <glyph glyph-name="uni1EE8" unicode="&#x1ee8;" horiz-adv-x="757" 
d="M706 835h70c4 -12 5 -27 5 -40c0 -76 -43 -132 -113 -147l-40 -378c-23 -227 -166 -282 -291 -282c-127 0 -255 45 -255 214c0 12 0 26 2 40l49 465h81l-48 -458c-1 -13 -2 -25 -2 -36c0 -126 81 -157 174 -157c108 0 197 47 215 217l45 434h25c51 3 87 30 87 87
c0 13 -2 28 -4 41zM343 737l-16 54l229 80l19 -70z" />
    <glyph glyph-name="uni1EEE" unicode="&#x1eee;" horiz-adv-x="757" 
d="M337 -12c-127 0 -255 45 -255 214c0 12 0 26 2 40l49 465h81l-48 -458c-1 -13 -2 -25 -2 -36c0 -126 81 -157 174 -157c108 0 197 47 215 217l45 434h25c51 3 87 30 87 87c0 13 -2 28 -4 41h70c4 -12 5 -27 5 -40c0 -76 -43 -132 -113 -147l-40 -378
c-23 -227 -166 -282 -291 -282zM485 747c-40 0 -86 37 -122 37c-34 0 -49 -9 -73 -25l-27 43c29 25 59 45 106 45s85 -36 123 -36c34 0 61 18 74 27l25 -45c-18 -16 -49 -46 -106 -46z" />
    <glyph glyph-name="uni1EEC" unicode="&#x1eec;" horiz-adv-x="757" 
d="M337 -12c-127 0 -255 45 -255 214c0 12 0 26 2 40l49 465h81l-48 -458c-1 -13 -2 -25 -2 -36c0 -126 81 -157 174 -157c108 0 197 47 215 217l45 434h25c51 3 87 30 87 87c0 13 -2 28 -4 41h70c4 -12 5 -27 5 -40c0 -76 -43 -132 -113 -147l-40 -378
c-23 -227 -166 -282 -291 -282zM517 887c0 -64 -47 -114 -96 -139l-37 39c13 6 66 37 66 90c0 26 -21 32 -38 32c-14 0 -30 -2 -47 -9l3 55c19 7 39 12 66 12c49 0 83 -31 83 -80z" />
    <glyph glyph-name="uni1EF0" unicode="&#x1ef0;" horiz-adv-x="757" 
d="M337 -12c-127 0 -255 45 -255 214c0 12 0 26 2 40l49 465h81l-48 -458c-1 -13 -2 -25 -2 -36c0 -126 81 -157 174 -157c108 0 197 47 215 217l45 434h25c51 3 87 30 87 87c0 13 -2 28 -4 41h70c4 -12 5 -27 5 -40c0 -76 -43 -132 -113 -147l-40 -378
c-23 -227 -166 -282 -291 -282zM306 -225l-58 64l72 62l60 -62z" />
    <glyph glyph-name="uni01D3" unicode="&#x1d3;" horiz-adv-x="725" 
d="M398 739l-159 85l30 54l135 -69l155 68l21 -54zM337 -12c-127 0 -255 45 -255 214c0 12 0 26 2 40l49 465h81l-48 -458c-1 -13 -2 -25 -2 -36c0 -126 81 -157 174 -157c108 0 197 47 215 217l45 434h76l-46 -437c-23 -227 -166 -282 -291 -282z" />
    <glyph glyph-name="uni01D5" unicode="&#x1d5;" horiz-adv-x="725" 
d="M301 739l-50 59l62 56l50 -56zM506 739l-49 59l61 56l51 -56zM337 -12c-127 0 -255 45 -255 214c0 12 0 26 2 40l49 465h81l-48 -458c-1 -13 -2 -25 -2 -36c0 -126 81 -157 174 -157c108 0 197 47 215 217l45 434h76l-46 -437c-23 -227 -166 -282 -291 -282zM284 888
l7 64h261l-7 -64h-261z" />
    <glyph glyph-name="uni01D7" unicode="&#x1d7;" horiz-adv-x="725" 
d="M301 739l-50 59l62 56l50 -56zM506 739l-49 59l61 56l51 -56zM375 868l-16 54l229 80l19 -70zM337 -12c-127 0 -255 45 -255 214c0 12 0 26 2 40l49 465h81l-48 -458c-1 -13 -2 -25 -2 -36c0 -126 81 -157 174 -157c108 0 197 47 215 217l45 434h76l-46 -437
c-23 -227 -166 -282 -291 -282z" />
    <glyph glyph-name="uni01D9" unicode="&#x1d9;" horiz-adv-x="725" 
d="M301 739l-50 59l62 56l50 -56zM506 739l-49 59l61 56l51 -56zM337 -12c-127 0 -255 45 -255 214c0 12 0 26 2 40l49 465h81l-48 -458c-1 -13 -2 -25 -2 -36c0 -126 81 -157 174 -157c108 0 197 47 215 217l45 434h76l-46 -437c-23 -227 -166 -282 -291 -282zM411 855
l-159 85l30 54l135 -69l155 68l21 -54z" />
    <glyph glyph-name="uni01DB" unicode="&#x1db;" horiz-adv-x="725" 
d="M446 854l-220 65l27 72l211 -82zM301 739l-50 59l62 56l50 -56zM506 739l-49 59l61 56l51 -56zM337 -12c-127 0 -255 45 -255 214c0 12 0 26 2 40l49 465h81l-48 -458c-1 -13 -2 -25 -2 -36c0 -126 81 -157 174 -157c108 0 197 47 215 217l45 434h76l-46 -437
c-23 -227 -166 -282 -291 -282z" />
    <glyph glyph-name="uni1E7E" unicode="&#x1e7e;" horiz-adv-x="653" 
d="M255 -227l-58 63l72 63l60 -63zM226 0l-172 707h83l150 -650l330 650h84l-365 -707h-110z" />
    <glyph glyph-name="uni1E7C" unicode="&#x1e7c;" horiz-adv-x="655" 
d="M434 747c-40 0 -86 37 -122 37c-34 0 -49 -9 -73 -25l-27 43c29 25 59 45 106 45s85 -36 123 -36c34 0 61 18 74 27l25 -45c-18 -16 -49 -46 -106 -46zM226 0l-172 707h83l150 -650l330 650h84l-365 -707h-110z" />
    <glyph glyph-name="uni00560304" horiz-adv-x="655" 
d="M238 766l7 64h282l-7 -64h-282zM226 0l-172 707h83l150 -650l330 650h84l-365 -707h-110z" />
    <glyph glyph-name="Wacute" unicode="&#x1e82;" horiz-adv-x="964" 
d="M445 737l-16 54l229 80l19 -70zM182 0l-105 707h83l87 -643l232 485l-32 158h83l123 -645l253 645h80l-283 -707h-111l-91 442l-211 -442h-108z" />
    <glyph glyph-name="Wcircumflex" unicode="&#x174;" horiz-adv-x="964" 
d="M644 737l-136 69l-155 -68l-21 54l182 85l160 -85zM182 0l-105 707h83l87 -643l232 485l-32 158h83l123 -645l253 645h80l-283 -707h-111l-91 442l-211 -442h-108z" />
    <glyph glyph-name="Wdieresis" unicode="&#x1e84;" horiz-adv-x="964" 
d="M411 749l-50 59l62 56l50 -56zM616 749l-49 59l61 56l51 -56zM182 0l-105 707h83l87 -643l232 485l-32 158h83l123 -645l253 645h80l-283 -707h-111l-91 442l-211 -442h-108z" />
    <glyph glyph-name="Wgrave" unicode="&#x1e80;" horiz-adv-x="964" 
d="M584 736l-220 65l27 72l211 -82zM182 0l-105 707h83l87 -643l232 485l-32 158h83l123 -645l253 645h80l-283 -707h-111l-91 442l-211 -442h-108z" />
    <glyph glyph-name="uni1E86" unicode="&#x1e86;" horiz-adv-x="964" 
d="M533 753l-59 64l73 63l60 -63zM182 0l-105 707h83l87 -643l232 485l-32 158h83l123 -645l253 645h80l-283 -707h-111l-91 442l-211 -442h-108z" />
    <glyph glyph-name="uni1E88" unicode="&#x1e88;" horiz-adv-x="963" 
d="M430 -227l-58 63l72 63l60 -63zM182 0l-105 707h83l87 -643l232 485l-32 158h83l123 -645l253 645h80l-283 -707h-111l-91 442l-211 -442h-108z" />
    <glyph glyph-name="uni1E8A" unicode="&#x1e8a;" horiz-adv-x="588" 
d="M350 753l-59 64l73 63l60 -63zM-29 0l290 373l-163 334h89l127 -273l202 273h87l-256 -333l184 -374h-89l-148 309l-231 -309h-92z" />
    <glyph glyph-name="uni00580304" horiz-adv-x="588" 
d="M-29 0l290 373l-163 334h89l127 -273l202 273h87l-256 -333l184 -374h-89l-148 309l-231 -309h-92zM220 766l7 64h282l-7 -64h-282z" />
    <glyph glyph-name="Ydieresis" unicode="&#x178;" horiz-adv-x="591" 
d="M219 0l29 274l-184 433h89l144 -365l235 365h86l-291 -432l-28 -275h-80zM234 749l-50 59l62 56l50 -56zM439 749l-49 59l61 56l51 -56z" />
    <glyph glyph-name="Ycircumflex" unicode="&#x176;" horiz-adv-x="591" 
d="M219 0l29 274l-184 433h89l144 -365l235 365h86l-291 -432l-28 -275h-80zM486 737l-136 69l-155 -68l-21 54l182 85l160 -85z" />
    <glyph glyph-name="Ygrave" unicode="&#x1ef2;" horiz-adv-x="591" 
d="M402 736l-220 65l27 72l211 -82zM219 0l29 274l-184 433h89l144 -365l235 365h86l-291 -432l-28 -275h-80z" />
    <glyph glyph-name="Yacute" unicode="&#xdd;" horiz-adv-x="591" 
d="M219 0l29 274l-184 433h89l144 -365l235 365h86l-291 -432l-28 -275h-80zM284 737l-16 54l229 80l19 -70z" />
    <glyph glyph-name="uni0232" unicode="&#x232;" horiz-adv-x="591" 
d="M219 0l29 274l-184 433h89l144 -365l235 365h86l-291 -432l-28 -275h-80zM200 766l7 64h282l-7 -64h-282z" />
    <glyph glyph-name="uni1E8E" unicode="&#x1e8e;" horiz-adv-x="591" 
d="M219 0l29 274l-184 433h89l144 -365l235 365h86l-291 -432l-28 -275h-80zM342 753l-59 64l73 63l60 -63z" />
    <glyph glyph-name="uni1EF8" unicode="&#x1ef8;" horiz-adv-x="591" 
d="M219 0l29 274l-184 433h89l144 -365l235 365h86l-291 -432l-28 -275h-80zM406 747c-40 0 -86 37 -122 37c-34 0 -49 -9 -73 -25l-27 43c29 25 59 45 106 45s85 -36 123 -36c34 0 61 18 74 27l25 -45c-18 -16 -49 -46 -106 -46z" />
    <glyph glyph-name="uni1EF6" unicode="&#x1ef6;" horiz-adv-x="591" 
d="M219 0l29 274l-184 433h89l144 -365l235 365h86l-291 -432l-28 -275h-80zM432 887c0 -64 -47 -114 -96 -139l-37 39c13 6 66 37 66 90c0 26 -21 32 -38 32c-14 0 -30 -2 -47 -9l3 55c19 7 39 12 66 12c49 0 83 -31 83 -80z" />
    <glyph glyph-name="uni1EF4" unicode="&#x1ef4;" horiz-adv-x="589" 
d="M218 0l29 274l-184 433h89l144 -365l235 365h86l-291 -432l-28 -275h-80zM236 -225l-58 64l72 62l60 -62z" />
    <glyph glyph-name="Zacute" unicode="&#x179;" 
d="M257 737l-16 54l229 80l19 -70zM5 0l7 70l431 565h-345l7 72h438l-6 -63l-434 -573h394l-7 -71h-485z" />
    <glyph glyph-name="Zcaron" unicode="&#x17d;" 
d="M321 739l-159 85l30 54l135 -69l155 68l21 -54zM5 0l7 70l431 565h-345l7 72h438l-6 -63l-434 -573h394l-7 -71h-485z" />
    <glyph glyph-name="Zdotaccent" unicode="&#x17b;" 
d="M330 753l-59 64l73 63l60 -63zM5 0l7 70l431 565h-345l7 72h438l-6 -63l-434 -573h394l-7 -71h-485z" />
    <glyph glyph-name="uni1E94" unicode="&#x1e94;" horiz-adv-x="558" 
d="M5 0l7 70l431 565h-345l7 72h438l-6 -63l-434 -573h394l-7 -71h-485zM106 -192l7 63h261l-7 -63h-261z" />
    <glyph glyph-name="uni1E92" unicode="&#x1e92;" horiz-adv-x="558" 
d="M233 -227l-58 63l72 63l60 -63zM5 0l7 70l431 565h-345l7 72h438l-6 -63l-434 -573h394l-7 -71h-485z" />
    <glyph glyph-name="uni005A0324" horiz-adv-x="558" 
d="M133 -224l-50 56l62 56l51 -56zM329 -224l-50 56l62 56l50 -56zM5 0l7 70l431 565h-345l7 72h438l-6 -63l-434 -573h394l-7 -71h-485z" />
    <glyph glyph-name="uni018F" unicode="&#x18f;" horiz-adv-x="757" 
d="M332 -12c-196 0 -283 121 -283 300c0 15 1 30 8 100h571c6 150 -65 262 -229 262c-108 0 -210 -41 -261 -66l-19 59c66 35 172 74 295 74c202 0 294 -128 294 -305c0 -237 -130 -424 -376 -424zM342 54c176 0 255 117 279 270h-492c-1 -11 -1 -22 -1 -32
c2 -132 57 -238 214 -238z" />
    <glyph glyph-name="Thorn" unicode="&#xde;" horiz-adv-x="591" 
d="M67 0l75 707h79l-13 -129h121c129 0 233 -33 233 -186c0 -173 -122 -252 -285 -252c-9 0 -32 0 -41 1l6 66h19c130 -2 216 45 216 181c0 97 -62 125 -150 125h-126l-53 -513h-81z" />
    <glyph glyph-name="Eth" unicode="&#xd0;" horiz-adv-x="753" 
d="M55 320l7 65h71l34 322h187c197 0 349 -93 349 -312c0 -263 -155 -395 -414 -395h-197l34 320h-71zM178 66h126c204 0 318 109 318 325c0 178 -113 250 -278 250h-105l-27 -256h147l-7 -65h-147z" />
    <glyph glyph-name="uni01C4" unicode="&#x1c4;" horiz-adv-x="1264" 
d="M1025 739l-159 85l30 54l135 -69l155 68l21 -54zM710 0l7 70l431 565h-345l7 72h438l-6 -63l-434 -573h394l-7 -71h-485zM67 0l75 707h187c197 0 349 -93 349 -312c0 -263 -155 -395 -414 -395h-197zM153 66h126c204 0 318 109 318 325c0 178 -113 250 -278 250h-105z
" />
    <glyph glyph-name="uni01C5" unicode="&#x1c5;" horiz-adv-x="1152" 
d="M965 616l-161 116l37 50l132 -93l153 91l29 -48zM692 0l7 66l338 414h-268l7 66h356l-7 -63l-342 -418h302l-7 -65h-386zM45 0l75 707h187c197 0 349 -93 349 -312c0 -263 -155 -395 -414 -395h-197zM131 66h126c204 0 318 109 318 325c0 178 -113 250 -278 250h-105z
" />
    <glyph glyph-name="uni01C7" unicode="&#x1c7;" horiz-adv-x="805" 
d="M464 -187l-27 59c126 66 159 139 174 279l58 556h79l-58 -554c-16 -160 -67 -273 -226 -340zM67 0l75 707h79l-67 -639h307l-7 -68h-387z" />
    <glyph glyph-name="uni01CA" unicode="&#x1ca;" horiz-adv-x="1076" 
d="M735 -187l-27 59c126 66 159 139 174 279l58 556h79l-58 -554c-16 -160 -67 -273 -226 -340zM67 0l76 707h116l264 -649l66 649h79l-76 -707h-123l-256 633l-66 -633h-80z" />
    <glyph glyph-name="uni01F1" unicode="&#x1f1;" horiz-adv-x="1264" 
d="M710 0l7 70l431 565h-345l7 72h438l-6 -63l-434 -573h394l-7 -71h-485zM67 0l75 707h187c197 0 349 -93 349 -312c0 -263 -155 -395 -414 -395h-197zM153 66h126c204 0 318 109 318 325c0 178 -113 250 -278 250h-105z" />
    <glyph glyph-name="uni01F2" unicode="&#x1f2;" horiz-adv-x="1152" 
d="M692 0l7 66l338 414h-268l7 66h356l-7 -63l-342 -418h302l-7 -65h-386zM45 0l75 707h187c197 0 349 -93 349 -312c0 -263 -155 -395 -414 -395h-197zM131 66h126c204 0 318 109 318 325c0 178 -113 250 -278 250h-105z" />
    <glyph glyph-name="uni01C8" unicode="&#x1c8;" horiz-adv-x="742" 
d="M432 -220c-30 0 -62 8 -75 13l19 65c13 -4 39 -11 65 -11c83 0 103 54 111 136l60 563h76l-60 -564c-16 -158 -94 -202 -196 -202zM45 0l75 707h79l-67 -639h307l-7 -68h-387zM657 652l-58 63l72 63l59 -63z" />
    <glyph glyph-name="uni01CB" unicode="&#x1cb;" horiz-adv-x="1012" 
d="M703 -220c-30 0 -62 8 -75 13l19 65c13 -4 39 -11 65 -11c83 0 103 54 111 136l60 563h76l-60 -564c-16 -158 -94 -202 -196 -202zM928 652l-58 63l72 63l59 -63zM45 0l76 707h116l264 -649l66 649h79l-76 -707h-123l-256 633l-66 -633h-80z" />
    <glyph glyph-name="uni021C" unicode="&#x21c;" horiz-adv-x="529" 
d="M169 398l233 239h-316l7 70h406l-7 -65l-238 -240c115 -13 212 -83 212 -185c0 -149 -135 -229 -263 -229c-91 0 -160 22 -193 46l30 65c37 -22 106 -43 161 -43c79 0 181 36 181 153c0 87 -101 132 -190 132c-6 0 -13 -1 -19 -1z" />
    <glyph glyph-name="uni01EE" unicode="&#x1ee;" horiz-adv-x="529" 
d="M293 739l-159 85l30 54l135 -69l155 68l21 -54zM169 398l233 239h-316l7 70h406l-7 -65l-238 -240c115 -13 212 -83 212 -185c0 -149 -135 -229 -263 -229c-91 0 -160 22 -193 46l30 65c37 -22 106 -43 161 -43c79 0 181 36 181 153c0 87 -101 132 -190 132
c-6 0 -13 -1 -19 -1z" />
    <glyph glyph-name="uni018E" unicode="&#x18e;" horiz-adv-x="567" 
d="M510 707l-75 -707h-393l7 65h314l26 254h-291l6 66h292l27 257h-337l7 65h417z" />
    <glyph glyph-name="AE" unicode="&#xc6;" horiz-adv-x="906" 
d="M-50 0l468 707h455l-6 -65h-314l-27 -254h293l-8 -66h-291l-28 -257h338l-7 -65h-416l35 322h-197l-206 -322h-89zM286 387h162l28 255h-26z" />
    <glyph glyph-name="AEacute" unicode="&#x1fc;" horiz-adv-x="906" 
d="M563 737l-16 54l229 80l19 -70zM-50 0l468 707h455l-6 -65h-314l-27 -254h293l-8 -66h-291l-28 -257h338l-7 -65h-416l35 322h-197l-206 -322h-89zM286 387h162l28 255h-26z" />
    <glyph glyph-name="uni01E2" unicode="&#x1e2;" horiz-adv-x="906" 
d="M505 766l7 64h282l-7 -64h-282zM-50 0l468 707h455l-6 -65h-314l-27 -254h293l-8 -66h-291l-28 -257h338l-7 -65h-416l35 322h-197l-206 -322h-89zM286 387h162l28 255h-26z" />
    <glyph glyph-name="OE" unicode="&#x152;" horiz-adv-x="1090" 
d="M359 -11c-194 0 -299 125 -299 318c0 241 145 411 390 411c90 0 159 -28 207 -76l7 65h393l-7 -65h-313l-27 -254h292l-7 -66h-291l-28 -257h337l-6 -65h-417l6 61c-61 -46 -141 -72 -237 -72zM369 56c111 0 190 47 240 122l36 345c-33 78 -102 126 -207 126
c-195 0 -297 -151 -297 -337c0 -148 73 -256 228 -256z" />
    <glyph glyph-name="IJ" unicode="&#x132;" horiz-adv-x="557" 
d="M67 0l75 707h79l-74 -707h-80zM216 -187l-27 59c126 66 159 139 174 279l58 556h79l-58 -554c-16 -160 -67 -273 -226 -340z" />
    <glyph glyph-name="Iacute_Jacute" horiz-adv-x="557" 
d="M149 737l-15 54l229 80l18 -70zM432 737l-16 54l230 80l18 -70zM67 0l75 707h79l-74 -707h-80zM216 -187l-27 59c126 66 159 139 174 279l58 556h79l-58 -554c-16 -160 -67 -273 -226 -340z" />
    <glyph glyph-name="a" unicode="a" horiz-adv-x="510" 
d="M142 -13c-77 0 -110 69 -110 163c0 178 120 401 325 401c33 0 76 -4 99 -8l-56 -543h-76l11 99c-77 -69 -137 -112 -193 -112zM161 59c48 0 152 90 181 117l33 307c-8 2 -23 2 -34 2c-149 0 -232 -189 -232 -327c0 -56 16 -99 52 -99z" />
    <glyph glyph-name="b" unicode="b" horiz-adv-x="528" 
d="M189 -8c-58 0 -101 10 -142 22l78 741h75l-29 -284c49 33 116 78 190 78c83 0 122 -57 122 -160c0 -173 -87 -397 -294 -397zM196 56c161 0 210 211 210 333c0 76 -26 93 -65 93c-52 0 -133 -47 -178 -77l-36 -339c27 -6 40 -10 69 -10z" />
    <glyph glyph-name="c" unicode="c" horiz-adv-x="450" 
d="M172 -12c-102 0 -130 111 -130 196c0 205 97 376 268 376c59 0 103 -25 128 -49l-42 -48c-21 16 -51 33 -91 33c-144 0 -183 -186 -183 -298c0 -92 27 -141 56 -141c51 0 103 16 182 57l27 -54c-53 -32 -120 -72 -215 -72z" />
    <glyph glyph-name="d" unicode="d" horiz-adv-x="513" 
d="M144 -13c-82 0 -107 84 -107 178c0 226 138 386 323 385h25l22 204h76l-81 -754h-76l11 99c-67 -67 -134 -112 -193 -112zM163 59c54 0 138 71 181 116l33 310c-9 1 -24 1 -43 1c-123 1 -221 -153 -221 -301c0 -105 20 -126 50 -126z" />
    <glyph glyph-name="e" unicode="e" horiz-adv-x="468" 
d="M173 -12c-101 0 -129 100 -129 204c0 196 90 369 263 369c97 0 137 -58 137 -125c0 -79 -71 -120 -143 -146l-178 -66v-27c0 -92 17 -141 63 -141c55 0 115 26 171 55l27 -57c-57 -32 -121 -66 -211 -66zM130 291l159 62c50 20 81 49 81 80c0 47 -34 63 -66 63
c-111 0 -156 -105 -174 -205z" />
    <glyph glyph-name="f" unicode="f" horiz-adv-x="311" 
d="M49 -205l72 688h-80l7 63h80l4 43c13 154 112 185 214 185c39 0 79 -9 103 -18l-20 -61c-25 7 -50 14 -92 14c-84 0 -123 -33 -130 -115l-5 -48h119l-6 -63h-119l-73 -688h-74z" />
    <glyph glyph-name="g" unicode="g" horiz-adv-x="509" 
d="M147 -230c-79 0 -151 16 -172 22l18 68c30 -8 98 -23 142 -23c97 0 173 19 186 143l13 119c-77 -73 -134 -112 -193 -112c-77 0 -107 56 -107 164c0 209 138 400 323 400c32 0 75 -4 99 -8l-61 -579c-15 -151 -138 -194 -248 -194zM160 59c48 0 153 90 181 117l33 307
c-8 2 -21 2 -34 2c-132 0 -230 -167 -230 -323c0 -83 20 -103 50 -103z" />
    <glyph glyph-name="h" unicode="h" horiz-adv-x="525" 
d="M46 0l80 754h77l-32 -298c61 52 121 104 198 104c71 0 95 -33 95 -105c0 -18 -1 -38 -4 -61l-43 -394h-76l42 378c2 21 3 38 3 55c0 39 -11 55 -43 55c-43 0 -95 -31 -180 -101l-41 -387h-76z" />
    <glyph glyph-name="i" unicode="i" horiz-adv-x="233" 
d="M47 0l57 546h76l-57 -546h-76zM152 652l-58 63l72 63l59 -63z" />
    <glyph glyph-name="j" unicode="j" horiz-adv-x="233" 
d="M-76 -220c-30 0 -62 8 -75 13l19 65c13 -4 39 -11 65 -11c83 0 103 54 111 136l60 563h76l-60 -564c-16 -158 -94 -202 -196 -202zM149 652l-58 63l72 63l59 -63z" />
    <glyph glyph-name="k" unicode="k" horiz-adv-x="482" 
d="M365 -14l-192 302l201 258h90l-203 -255l181 -280zM46 0l79 754h77l-80 -754h-76z" />
    <glyph glyph-name="l" unicode="l" horiz-adv-x="233" 
d="M46 0l79 754h77l-80 -754h-76z" />
    <glyph glyph-name="m" unicode="m" horiz-adv-x="799" 
d="M47 0l57 546h77l-9 -89c46 40 116 103 190 103c69 0 94 -31 93 -95c57 48 121 95 191 95c69 0 92 -32 92 -103c0 -19 -1 -40 -4 -63l-42 -394h-76l41 378c3 22 4 40 4 55c0 42 -12 56 -46 56c-46 0 -95 -36 -165 -95l-42 -394h-76l41 378c3 22 5 40 5 55
c0 42 -12 54 -46 54c-41 0 -91 -34 -168 -100l-41 -387h-76z" />
    <glyph glyph-name="n" unicode="n" horiz-adv-x="526" 
d="M47 0l57 546h77l-9 -90c61 52 121 104 198 104c71 0 94 -33 94 -105c0 -18 -1 -38 -3 -61l-43 -394h-76l41 378c3 20 4 38 4 52c0 42 -11 58 -44 58c-42 0 -94 -31 -179 -101l-41 -387h-76z" />
    <glyph glyph-name="o" unicode="o" horiz-adv-x="515" 
d="M200 -12c-103 0 -160 88 -160 192c0 232 111 380 272 380c107 0 157 -95 157 -187c0 -173 -69 -385 -269 -385zM219 54c92 0 172 126 172 304c0 95 -29 138 -102 138c-91 0 -170 -133 -170 -301c0 -63 13 -141 100 -141z" />
    <glyph glyph-name="p" unicode="p" horiz-adv-x="529" 
d="M22 -220l83 766h75l-7 -76c47 35 115 78 189 78c83 0 122 -56 122 -160c0 -173 -86 -396 -293 -396c-27 0 -49 3 -69 7l-24 -219h-76zM197 56c161 0 210 210 210 333c0 75 -27 93 -65 93c-52 0 -133 -48 -177 -78l-36 -338c28 -5 39 -10 68 -10z" />
    <glyph glyph-name="q" unicode="q" horiz-adv-x="510" 
d="M301 -220l34 319c-78 -68 -137 -112 -193 -112c-77 0 -107 59 -107 168c0 209 138 396 322 396c33 0 76 -4 99 -8l-79 -763h-76zM161 59c48 0 152 90 181 117l33 307s-9 2 -34 2c-133 0 -230 -164 -230 -320c0 -88 20 -106 50 -106z" />
    <glyph glyph-name="r" unicode="r" horiz-adv-x="350" 
d="M47 0l57 546h76l-9 -91c32 29 104 101 175 101c11 0 16 -1 26 -2l-15 -71c-10 2 -12 1 -24 1c-49 0 -128 -68 -170 -103l-40 -381h-76z" />
    <glyph glyph-name="s" unicode="s" horiz-adv-x="417" 
d="M154 -9c-51 0 -101 4 -149 25l22 66c41 -15 85 -25 132 -25c41 0 122 12 122 80c0 107 -211 130 -211 270c0 111 85 149 179 149c50 0 110 -14 142 -30l-23 -59c-47 17 -80 26 -129 26c-47 0 -97 -18 -97 -75c0 -107 213 -128 213 -278c0 -115 -111 -149 -201 -149z" />
    <glyph glyph-name="t" unicode="t" horiz-adv-x="373" 
d="M181 -12c-58 0 -100 30 -102 106c-1 13 -1 26 1 41l38 347h-80l7 64h81l11 112h75l-11 -112h169l-6 -64h-170l-37 -345c-7 -59 11 -80 45 -80c31 0 77 14 114 33l17 -58c-32 -21 -87 -44 -152 -44z" />
    <glyph glyph-name="u" unicode="u" horiz-adv-x="525" 
d="M159 -11c-75 0 -104 33 -104 112c0 14 1 31 3 48l43 397h76l-42 -378c-2 -21 -3 -39 -3 -53c0 -45 12 -60 47 -60c63 0 123 52 175 103l42 388h76l-58 -546h-76l9 90c-57 -57 -112 -101 -188 -101z" />
    <glyph glyph-name="v" unicode="v" horiz-adv-x="473" 
d="M135 0l-92 546h83l71 -492l146 307c25 54 45 124 45 166c0 7 -1 13 -2 19h78c1 -3 1 -15 1 -19c0 -51 -21 -119 -48 -174l-171 -353h-111z" />
    <glyph glyph-name="w" unicode="w" horiz-adv-x="776" 
d="M135 0l-91 546h82l71 -492l180 313l-30 179h82l71 -492c6 10 146 307 146 307c26 54 44 122 44 165c0 7 0 14 -1 20h79c0 -3 1 -16 1 -19c0 -51 -22 -120 -48 -174l-171 -353h-113l-44 273l-157 -273h-101z" />
    <glyph glyph-name="x" unicode="x" horiz-adv-x="460" 
d="M-24 0l218 291l-114 255h81l83 -192l138 192h83l-192 -257l126 -289h-82l-93 224l-163 -224h-85z" />
    <glyph glyph-name="y" unicode="y" horiz-adv-x="477" 
d="M66 -220l107 220h-41l-85 546h82l70 -492c5 9 147 307 147 307c27 54 45 124 45 166c0 7 -1 13 -1 19h79c0 -3 1 -16 1 -19c0 -50 -22 -119 -48 -174l-277 -573h-79z" />
    <glyph glyph-name="z" unicode="z" horiz-adv-x="460" 
d="M1 0l7 66l338 414h-268l7 66h356l-7 -63l-342 -418h302l-7 -65h-386z" />
    <glyph glyph-name="aacute" unicode="&#xe1;" horiz-adv-x="510" 
d="M142 -13c-77 0 -110 69 -110 163c0 178 120 401 325 401c33 0 76 -4 99 -8l-56 -543h-76l11 99c-77 -69 -137 -112 -193 -112zM161 59c48 0 152 90 181 117l33 307c-8 2 -23 2 -34 2c-149 0 -232 -189 -232 -327c0 -56 16 -99 52 -99zM300 618l-30 48l186 135l38 -60z
" />
    <glyph glyph-name="agrave" unicode="&#xe0;" horiz-adv-x="510" 
d="M142 -13c-77 0 -110 69 -110 163c0 178 120 401 325 401c33 0 76 -4 99 -8l-56 -543h-76l11 99c-77 -69 -137 -112 -193 -112zM161 59c48 0 152 90 181 117l33 307c-8 2 -23 2 -34 2c-149 0 -232 -189 -232 -327c0 -56 16 -99 52 -99zM413 615l-184 119l38 60l177 -129z
" />
    <glyph glyph-name="acircumflex" unicode="&#xe2;" horiz-adv-x="510" 
d="M491 621l-132 90l-151 -90l-32 50l191 115l160 -115zM142 -13c-77 0 -110 69 -110 163c0 178 120 401 325 401c33 0 76 -4 99 -8l-56 -543h-76l11 99c-77 -69 -137 -112 -193 -112zM161 59c48 0 152 90 181 117l33 307c-8 2 -23 2 -34 2c-149 0 -232 -189 -232 -327
c0 -56 16 -99 52 -99z" />
    <glyph glyph-name="adieresis" unicode="&#xe4;" horiz-adv-x="510" 
d="M258 658l-51 56l62 56l51 -56zM453 658l-49 56l61 56l51 -56zM142 -13c-77 0 -110 69 -110 163c0 178 120 401 325 401c33 0 76 -4 99 -8l-56 -543h-76l11 99c-77 -69 -137 -112 -193 -112zM161 59c48 0 152 90 181 117l33 307c-8 2 -23 2 -34 2
c-149 0 -232 -189 -232 -327c0 -56 16 -99 52 -99z" />
    <glyph glyph-name="atilde" unicode="&#xe3;" horiz-adv-x="510" 
d="M142 -13c-77 0 -110 69 -110 163c0 178 120 401 325 401c33 0 76 -4 99 -8l-56 -543h-76l11 99c-77 -69 -137 -112 -193 -112zM161 59c48 0 152 90 181 117l33 307c-8 2 -23 2 -34 2c-149 0 -232 -189 -232 -327c0 -56 16 -99 52 -99zM416 646c-40 0 -86 36 -122 36
c-31 0 -46 -6 -70 -24l-29 42c11 11 44 47 105 47c49 0 82 -36 121 -36c34 0 60 18 73 27l27 -43c-10 -11 -47 -49 -105 -49z" />
    <glyph glyph-name="aring" unicode="&#xe5;" horiz-adv-x="510" 
d="M142 -13c-77 0 -110 69 -110 163c0 178 120 401 325 401c33 0 76 -4 99 -8l-56 -543h-76l11 99c-77 -69 -137 -112 -193 -112zM161 59c48 0 152 90 181 117l33 307c-8 2 -23 2 -34 2c-149 0 -232 -189 -232 -327c0 -56 16 -99 52 -99zM354 616c-54 0 -101 30 -101 83
c0 69 54 114 120 114c53 0 99 -34 99 -86c0 -68 -52 -111 -118 -111zM357 657c36 0 64 24 64 61c0 32 -23 52 -53 52c-38 0 -64 -25 -64 -62c0 -32 22 -51 53 -51z" />
    <glyph glyph-name="abreve" unicode="&#x103;" horiz-adv-x="510" 
d="M142 -13c-77 0 -110 69 -110 163c0 178 120 401 325 401c33 0 76 -4 99 -8l-56 -543h-76l11 99c-77 -69 -137 -112 -193 -112zM161 59c48 0 152 90 181 117l33 307c-8 2 -23 2 -34 2c-149 0 -232 -189 -232 -327c0 -56 16 -99 52 -99zM343 645c-64 0 -117 45 -136 81
l44 39c18 -27 50 -58 100 -58c56 0 92 31 112 57l34 -37c-24 -31 -74 -82 -154 -82z" />
    <glyph glyph-name="amacron" unicode="&#x101;" horiz-adv-x="510" 
d="M142 -13c-77 0 -110 69 -110 163c0 178 120 401 325 401c33 0 76 -4 99 -8l-56 -543h-76l11 99c-77 -69 -137 -112 -193 -112zM161 59c48 0 152 90 181 117l33 307c-8 2 -23 2 -34 2c-149 0 -232 -189 -232 -327c0 -56 16 -99 52 -99zM222 670l7 64h261l-7 -64h-261z" />
    <glyph glyph-name="aogonek" unicode="&#x105;" horiz-adv-x="510" 
d="M318 -225c-76 0 -105 41 -105 93c0 56 62 112 112 142l10 89c-77 -69 -137 -112 -193 -112c-77 0 -110 69 -110 163c0 178 120 401 325 401c33 0 76 -4 99 -8l-57 -543c-39 -23 -112 -74 -113 -116c-1 -39 21 -46 58 -46c20 0 38 5 45 8l12 -55c-15 -8 -30 -16 -83 -16z
M161 59c48 0 152 90 181 117l33 307c-8 2 -23 2 -34 2c-149 0 -232 -189 -232 -327c0 -56 16 -99 52 -99z" />
    <glyph glyph-name="uni01FB" unicode="&#x1fb;" horiz-adv-x="510" 
d="M142 -13c-77 0 -110 69 -110 163c0 178 120 401 325 401c33 0 76 -4 99 -8l-56 -543h-76l11 99c-77 -69 -137 -112 -193 -112zM161 59c48 0 152 90 181 117l33 307c-8 2 -23 2 -34 2c-149 0 -232 -189 -232 -327c0 -56 16 -99 52 -99zM251 843l-16 54l229 80l19 -70z
M317 607c-58 0 -109 32 -109 90c0 74 58 123 129 123c57 0 107 -37 107 -93c0 -74 -55 -120 -127 -120zM320 650c40 0 70 27 70 68c0 34 -25 56 -58 56c-41 0 -70 -26 -70 -67c0 -35 25 -57 58 -57z" />
    <glyph glyph-name="uni01CE" unicode="&#x1ce;" horiz-adv-x="510" 
d="M142 -13c-77 0 -110 69 -110 163c0 178 120 401 325 401c33 0 76 -4 99 -8l-56 -543h-76l11 99c-77 -69 -137 -112 -193 -112zM161 59c48 0 152 90 181 117l33 307c-8 2 -23 2 -34 2c-149 0 -232 -189 -232 -327c0 -56 16 -99 52 -99zM319 616l-161 116l37 50l132 -93
l153 91l29 -48z" />
    <glyph glyph-name="uni0227" unicode="&#x227;" horiz-adv-x="510" 
d="M142 -13c-77 0 -110 69 -110 163c0 178 120 401 325 401c33 0 76 -4 99 -8l-56 -543h-76l11 99c-77 -69 -137 -112 -193 -112zM161 59c48 0 152 90 181 117l33 307c-8 2 -23 2 -34 2c-149 0 -232 -189 -232 -327c0 -56 16 -99 52 -99zM334 652l-58 63l72 63l59 -63z" />
    <glyph glyph-name="uni1EA7" unicode="&#x1ea7;" horiz-adv-x="510" 
d="M142 -13c-77 0 -110 69 -110 163c0 178 120 401 325 401c33 0 76 -4 99 -8l-56 -543h-76l11 99c-77 -69 -137 -112 -193 -112zM161 59c48 0 152 90 181 117l33 307c-8 2 -23 2 -34 2c-149 0 -232 -189 -232 -327c0 -56 16 -99 52 -99zM527 695l-146 144l56 49l136 -155z
M188 618l-31 50l191 113l159 -113l-35 -50l-133 87z" />
    <glyph glyph-name="uni1EA5" unicode="&#x1ea5;" horiz-adv-x="510" 
d="M142 -13c-77 0 -110 69 -110 163c0 178 120 401 325 401c33 0 76 -4 99 -8l-56 -543h-76l11 99c-77 -69 -137 -112 -193 -112zM161 59c48 0 152 90 181 117l33 307c-8 2 -23 2 -34 2c-149 0 -232 -189 -232 -327c0 -56 16 -99 52 -99zM450 726l-38 43l142 122l46 -56z
M173 617l-32 50l191 113l159 -113l-34 -50l-134 87z" />
    <glyph glyph-name="uni1EAB" unicode="&#x1eab;" horiz-adv-x="510" 
d="M142 -13c-77 0 -110 69 -110 163c0 178 120 401 325 401c33 0 76 -4 99 -8l-56 -543h-76l11 99c-77 -69 -137 -112 -193 -112zM161 59c48 0 152 90 181 117l33 307c-8 2 -23 2 -34 2c-149 0 -232 -189 -232 -327c0 -56 16 -99 52 -99zM198 618l-32 50l191 113l159 -113
l-35 -51l-133 87zM433 794c-40 0 -86 34 -122 34c-31 0 -46 -7 -70 -24l-26 43c11 10 43 44 104 44c49 0 82 -34 121 -34c33 0 58 18 72 27l25 -44c-11 -10 -46 -46 -104 -46z" />
    <glyph glyph-name="uni1EA9" unicode="&#x1ea9;" horiz-adv-x="510" 
d="M142 -13c-77 0 -110 69 -110 163c0 178 120 401 325 401c33 0 76 -4 99 -8l-56 -543h-76l11 99c-77 -69 -137 -112 -193 -112zM161 59c48 0 152 90 181 117l33 307c-8 2 -23 2 -34 2c-149 0 -232 -189 -232 -327c0 -56 16 -99 52 -99zM552 845c0 -65 -53 -104 -84 -119
l-39 36c12 6 58 31 58 72c0 27 -22 34 -39 34c-14 0 -30 -2 -47 -9l1 52c19 8 40 13 67 13c17 0 43 -4 63 -23c13 -13 20 -31 20 -56zM469 617l-133 87l-151 -87l-31 50l190 113l160 -113z" />
    <glyph glyph-name="uni1EAD" unicode="&#x1ead;" horiz-adv-x="510" 
d="M142 -13c-77 0 -110 69 -110 163c0 178 120 401 325 401c33 0 76 -4 99 -8l-56 -543h-76l11 99c-77 -69 -137 -112 -193 -112zM161 59c48 0 152 90 181 117l33 307c-8 2 -23 2 -34 2c-149 0 -232 -189 -232 -327c0 -56 16 -99 52 -99zM469 621l-132 90l-151 -90l-32 50
l191 115l160 -115zM213 -225l-58 64l72 62l60 -62z" />
    <glyph glyph-name="uni1EB1" unicode="&#x1eb1;" horiz-adv-x="510" 
d="M142 -13c-77 0 -110 69 -110 163c0 178 120 401 325 401c33 0 76 -4 99 -8l-56 -543h-76l11 99c-77 -69 -137 -112 -193 -112zM161 59c48 0 152 90 181 117l33 307c-8 2 -23 2 -34 2c-149 0 -232 -189 -232 -327c0 -56 16 -99 52 -99zM331 736l-118 143l58 47l106 -155z
M327 639c-72 0 -119 48 -136 81l45 39c18 -25 49 -57 101 -57c56 0 90 31 110 56l35 -37c-24 -31 -70 -82 -155 -82z" />
    <glyph glyph-name="uni1EAF" unicode="&#x1eaf;" horiz-adv-x="510" 
d="M142 -13c-77 0 -110 69 -110 163c0 178 120 401 325 401c33 0 76 -4 99 -8l-56 -543h-76l11 99c-77 -69 -137 -112 -193 -112zM161 59c48 0 152 90 181 117l33 307c-8 2 -23 2 -34 2c-149 0 -232 -189 -232 -327c0 -56 16 -99 52 -99zM498 865l-158 -121l-34 42l148 135z
M334 639c-72 0 -119 48 -136 81l45 39c18 -25 49 -57 101 -57c56 0 90 31 110 56l35 -37c-24 -31 -70 -82 -155 -82z" />
    <glyph glyph-name="uni1EB5" unicode="&#x1eb5;" horiz-adv-x="510" 
d="M142 -13c-77 0 -110 69 -110 163c0 178 120 401 325 401c33 0 76 -4 99 -8l-56 -543h-76l11 99c-77 -69 -137 -112 -193 -112zM161 59c48 0 152 90 181 117l33 307c-8 2 -23 2 -34 2c-149 0 -232 -189 -232 -327c0 -56 16 -99 52 -99zM327 638c-72 0 -119 49 -136 82
l45 38c18 -25 49 -57 100 -57c57 0 90 31 110 56l36 -37c-25 -31 -71 -82 -155 -82zM406 777c-40 0 -86 34 -122 34c-31 0 -46 -7 -70 -24l-26 43c12 10 43 45 104 45c49 0 82 -35 122 -35c32 0 57 18 71 27l26 -44c-12 -10 -47 -46 -105 -46z" />
    <glyph glyph-name="uni1EB3" unicode="&#x1eb3;" horiz-adv-x="510" 
d="M142 -13c-77 0 -110 69 -110 163c0 178 120 401 325 401c33 0 76 -4 99 -8l-56 -543h-76l11 99c-77 -69 -137 -112 -193 -112zM161 59c48 0 152 90 181 117l33 307c-8 2 -23 2 -34 2c-149 0 -232 -189 -232 -327c0 -56 16 -99 52 -99zM409 844c0 -58 -47 -98 -77 -113
l-40 37c11 6 54 31 54 69c0 30 -26 36 -43 36c-14 0 -28 -2 -44 -9l-1 52c18 7 35 13 63 13c17 0 43 -4 64 -24c15 -14 24 -32 24 -61zM319 638c-72 0 -119 49 -136 82l45 38c18 -25 49 -57 100 -57c57 0 90 31 111 56l35 -37c-25 -31 -71 -82 -155 -82z" />
    <glyph glyph-name="uni1EB7" unicode="&#x1eb7;" horiz-adv-x="510" 
d="M142 -13c-77 0 -110 69 -110 163c0 178 120 401 325 401c33 0 76 -4 99 -8l-56 -543h-76l11 99c-77 -69 -137 -112 -193 -112zM161 59c48 0 152 90 181 117l33 307c-8 2 -23 2 -34 2c-149 0 -232 -189 -232 -327c0 -56 16 -99 52 -99zM231 -225l-58 64l72 62l60 -62z
M330 645c-64 0 -117 45 -136 81l44 39c18 -27 50 -58 100 -58c56 0 92 31 112 57l34 -37c-24 -31 -74 -82 -154 -82z" />
    <glyph glyph-name="uni1EA3" unicode="&#x1ea3;" horiz-adv-x="510" 
d="M142 -13c-77 0 -110 69 -110 163c0 178 120 401 325 401c33 0 76 -4 99 -8l-56 -543h-76l11 99c-77 -69 -137 -112 -193 -112zM161 59c48 0 152 90 181 117l33 307c-8 2 -23 2 -34 2c-149 0 -232 -189 -232 -327c0 -56 16 -99 52 -99zM424 766c0 -75 -61 -117 -93 -130
l-36 39c28 12 65 42 65 79c0 28 -23 37 -40 37c-14 0 -30 -2 -47 -9l2 53c19 8 39 13 66 13c24 0 45 -8 59 -20c16 -15 24 -36 24 -62z" />
    <glyph glyph-name="uni1EA1" unicode="&#x1ea1;" horiz-adv-x="510" 
d="M142 -13c-77 0 -110 69 -110 163c0 178 120 401 325 401c33 0 76 -4 99 -8l-56 -543h-76l11 99c-77 -69 -137 -112 -193 -112zM161 59c48 0 152 90 181 117l33 307c-8 2 -23 2 -34 2c-149 0 -232 -189 -232 -327c0 -56 16 -99 52 -99zM230 -225l-58 64l72 62l60 -62z" />
    <glyph glyph-name="uni1E05" unicode="&#x1e05;" horiz-adv-x="527" 
d="M195 -227l-58 63l72 63l60 -63zM189 -8c-58 0 -101 10 -142 22l78 741h75l-29 -284c49 33 116 78 190 78c83 0 122 -57 122 -160c0 -173 -87 -397 -294 -397zM196 56c161 0 210 211 210 333c0 76 -26 93 -65 93c-52 0 -133 -47 -178 -77l-36 -339c27 -6 40 -10 69 -10z
" />
    <glyph glyph-name="uni1E07" unicode="&#x1e07;" horiz-adv-x="527" 
d="M189 -8c-58 0 -101 10 -142 22l78 741h75l-29 -284c49 33 116 78 190 78c83 0 122 -57 122 -160c0 -173 -87 -397 -294 -397zM196 56c161 0 210 211 210 333c0 76 -26 93 -65 93c-52 0 -133 -47 -178 -77l-36 -339c27 -6 40 -10 69 -10zM74 -192l7 63h261l-7 -63h-261z
" />
    <glyph glyph-name="uni1E03" unicode="&#x1e03;" horiz-adv-x="528" 
d="M189 -8c-58 0 -101 10 -142 22l78 741h75l-29 -284c49 33 116 78 190 78c83 0 122 -57 122 -160c0 -173 -87 -397 -294 -397zM196 56c161 0 210 211 210 333c0 76 -26 93 -65 93c-52 0 -133 -47 -178 -77l-36 -339c27 -6 40 -10 69 -10zM323 652l-58 63l72 63l59 -63z
" />
    <glyph glyph-name="ccedilla" unicode="&#xe7;" horiz-adv-x="449" 
d="M172 -12c-102 0 -130 111 -130 196c0 205 97 376 268 376c59 0 103 -25 128 -49l-42 -48c-21 16 -51 33 -91 33c-144 0 -183 -186 -183 -298c0 -92 27 -141 56 -141c51 0 103 16 182 57l27 -54c-53 -32 -120 -72 -215 -72zM147 -239l-21 44c45 26 62 51 66 77
c2 21 -6 43 -16 67h74c10 -20 15 -43 13 -66c-4 -44 -34 -88 -116 -122z" />
    <glyph glyph-name="cacute" unicode="&#x107;" horiz-adv-x="450" 
d="M250 618l-30 48l186 135l38 -60zM172 -12c-102 0 -130 111 -130 196c0 205 97 376 268 376c59 0 103 -25 128 -49l-42 -48c-21 16 -51 33 -91 33c-144 0 -183 -186 -183 -298c0 -92 27 -141 56 -141c51 0 103 16 182 57l27 -54c-53 -32 -120 -72 -215 -72z" />
    <glyph glyph-name="ccaron" unicode="&#x10d;" horiz-adv-x="450" 
d="M298 616l-161 116l37 50l132 -93l153 91l29 -48zM172 -12c-102 0 -130 111 -130 196c0 205 97 376 268 376c59 0 103 -25 128 -49l-42 -48c-21 16 -51 33 -91 33c-144 0 -183 -186 -183 -298c0 -92 27 -141 56 -141c51 0 103 16 182 57l27 -54c-53 -32 -120 -72 -215 -72
z" />
    <glyph glyph-name="ccircumflex" unicode="&#x109;" horiz-adv-x="450" 
d="M448 621l-132 90l-151 -90l-32 50l191 115l160 -115zM172 -12c-102 0 -130 111 -130 196c0 205 97 376 268 376c59 0 103 -25 128 -49l-42 -48c-21 16 -51 33 -91 33c-144 0 -183 -186 -183 -298c0 -92 27 -141 56 -141c51 0 103 16 182 57l27 -54
c-53 -32 -120 -72 -215 -72z" />
    <glyph glyph-name="cdotaccent" unicode="&#x10b;" horiz-adv-x="450" 
d="M172 -12c-102 0 -130 111 -130 196c0 205 97 376 268 376c59 0 103 -25 128 -49l-42 -48c-21 16 -51 33 -91 33c-144 0 -183 -186 -183 -298c0 -92 27 -141 56 -141c51 0 103 16 182 57l27 -54c-53 -32 -120 -72 -215 -72zM314 652l-58 63l72 63l59 -63z" />
    <glyph glyph-name="dcaron" unicode="&#x10f;" horiz-adv-x="513" 
d="M144 -13c-82 0 -107 84 -107 178c0 226 138 386 323 385h25l22 204h76l-81 -754h-76l11 99c-67 -67 -134 -112 -193 -112zM163 59c54 0 138 71 181 116l33 310c-9 1 -24 1 -43 1c-123 1 -221 -153 -221 -301c0 -105 20 -126 50 -126zM511 553l44 202h72l-55 -202h-61z
" />
    <glyph glyph-name="dcroat" unicode="&#x111;" horiz-adv-x="513" 
d="M251 617l7 57h140l9 80h76l-9 -80h87l-7 -57h-86l-66 -617h-76l11 99c-67 -67 -134 -112 -193 -112c-82 0 -107 84 -107 178c0 226 138 386 323 385h25l7 67h-141zM163 59c54 0 138 71 181 116l33 310c-9 1 -24 1 -43 1c-123 1 -221 -153 -221 -301
c0 -105 20 -126 50 -126z" />
    <glyph glyph-name="uni1E0F" unicode="&#x1e0f;" horiz-adv-x="513" 
d="M144 -13c-82 0 -107 84 -107 178c0 226 138 386 323 385h25l22 204h76l-81 -754h-76l11 99c-67 -67 -134 -112 -193 -112zM163 59c54 0 138 71 181 116l33 310c-9 1 -24 1 -43 1c-123 1 -221 -153 -221 -301c0 -105 20 -126 50 -126zM87 -192l7 63h261l-7 -63h-261z" />
    <glyph glyph-name="uni1E0D" unicode="&#x1e0d;" horiz-adv-x="513" 
d="M144 -13c-82 0 -107 84 -107 178c0 226 138 386 323 385h25l22 204h76l-81 -754h-76l11 99c-67 -67 -134 -112 -193 -112zM163 59c54 0 138 71 181 116l33 310c-9 1 -24 1 -43 1c-123 1 -221 -153 -221 -301c0 -105 20 -126 50 -126zM226 -227l-58 63l72 63l60 -63z" />
    <glyph glyph-name="uni1E0B" unicode="&#x1e0b;" horiz-adv-x="513" 
d="M144 -13c-82 0 -107 84 -107 178c0 226 138 386 323 385h25l22 204h76l-81 -754h-76l11 99c-67 -67 -134 -112 -193 -112zM163 59c54 0 138 71 181 116l33 310c-9 1 -24 1 -43 1c-123 1 -221 -153 -221 -301c0 -105 20 -126 50 -126zM249 652l-58 63l72 63l59 -63z" />
    <glyph glyph-name="eacute" unicode="&#xe9;" horiz-adv-x="468" 
d="M173 -12c-101 0 -129 100 -129 204c0 196 90 369 263 369c97 0 137 -58 137 -125c0 -79 -71 -120 -143 -146l-178 -66v-27c0 -92 17 -141 63 -141c55 0 115 26 171 55l27 -57c-57 -32 -121 -66 -211 -66zM130 291l159 62c50 20 81 49 81 80c0 47 -34 63 -66 63
c-111 0 -156 -105 -174 -205zM234 618l-30 48l186 135l38 -60z" />
    <glyph glyph-name="egrave" unicode="&#xe8;" horiz-adv-x="468" 
d="M173 -12c-101 0 -129 100 -129 204c0 196 90 369 263 369c97 0 137 -58 137 -125c0 -79 -71 -120 -143 -146l-178 -66v-27c0 -92 17 -141 63 -141c55 0 115 26 171 55l27 -57c-57 -32 -121 -66 -211 -66zM130 291l159 62c50 20 81 49 81 80c0 47 -34 63 -66 63
c-111 0 -156 -105 -174 -205zM333 615l-184 119l38 60l177 -129z" />
    <glyph glyph-name="ecircumflex" unicode="&#xea;" horiz-adv-x="468" 
d="M173 -12c-101 0 -129 100 -129 204c0 196 90 369 263 369c97 0 137 -58 137 -125c0 -79 -71 -120 -143 -146l-178 -66v-27c0 -92 17 -141 63 -141c55 0 115 26 171 55l27 -57c-57 -32 -121 -66 -211 -66zM130 291l159 62c50 20 81 49 81 80c0 47 -34 63 -66 63
c-111 0 -156 -105 -174 -205zM440 621l-132 90l-151 -90l-32 50l191 115l160 -115z" />
    <glyph glyph-name="edieresis" unicode="&#xeb;" horiz-adv-x="468" 
d="M173 -12c-101 0 -129 100 -129 204c0 196 90 369 263 369c97 0 137 -58 137 -125c0 -79 -71 -120 -143 -146l-178 -66v-27c0 -92 17 -141 63 -141c55 0 115 26 171 55l27 -57c-57 -32 -121 -66 -211 -66zM130 291l159 62c50 20 81 49 81 80c0 47 -34 63 -66 63
c-111 0 -156 -105 -174 -205zM206 658l-51 56l62 56l51 -56zM401 658l-49 56l61 56l51 -56z" />
    <glyph glyph-name="ebreve" unicode="&#x115;" horiz-adv-x="468" 
d="M173 -12c-101 0 -129 100 -129 204c0 196 90 369 263 369c97 0 137 -58 137 -125c0 -79 -71 -120 -143 -146l-178 -66v-27c0 -92 17 -141 63 -141c55 0 115 26 171 55l27 -57c-57 -32 -121 -66 -211 -66zM130 291l159 62c50 20 81 49 81 80c0 47 -34 63 -66 63
c-111 0 -156 -105 -174 -205zM312 645c-64 0 -117 45 -136 81l44 39c18 -27 50 -58 100 -58c56 0 92 31 112 57l34 -37c-24 -31 -74 -82 -154 -82z" />
    <glyph glyph-name="ecaron" unicode="&#x11b;" horiz-adv-x="468" 
d="M173 -12c-101 0 -129 100 -129 204c0 196 90 369 263 369c97 0 137 -58 137 -125c0 -79 -71 -120 -143 -146l-178 -66v-27c0 -92 17 -141 63 -141c55 0 115 26 171 55l27 -57c-57 -32 -121 -66 -211 -66zM130 291l159 62c50 20 81 49 81 80c0 47 -34 63 -66 63
c-111 0 -156 -105 -174 -205zM288 616l-161 116l37 50l132 -93l153 91l29 -48z" />
    <glyph glyph-name="edotaccent" unicode="&#x117;" horiz-adv-x="468" 
d="M173 -12c-101 0 -129 100 -129 204c0 196 90 369 263 369c97 0 137 -58 137 -125c0 -79 -71 -120 -143 -146l-178 -66v-27c0 -92 17 -141 63 -141c55 0 115 26 171 55l27 -57c-57 -32 -121 -66 -211 -66zM130 291l159 62c50 20 81 49 81 80c0 47 -34 63 -66 63
c-111 0 -156 -105 -174 -205zM288 652l-58 63l72 63l59 -63z" />
    <glyph glyph-name="emacron" unicode="&#x113;" horiz-adv-x="468" 
d="M173 -12c-101 0 -129 100 -129 204c0 196 90 369 263 369c97 0 137 -58 137 -125c0 -79 -71 -120 -143 -146l-178 -66v-27c0 -92 17 -141 63 -141c55 0 115 26 171 55l27 -57c-57 -32 -121 -66 -211 -66zM130 291l159 62c50 20 81 49 81 80c0 47 -34 63 -66 63
c-111 0 -156 -105 -174 -205zM181 670l7 64h261l-7 -64h-261z" />
    <glyph glyph-name="uni1EBD" unicode="&#x1ebd;" horiz-adv-x="468" 
d="M173 -12c-101 0 -129 100 -129 204c0 196 90 369 263 369c97 0 137 -58 137 -125c0 -79 -71 -120 -143 -146l-178 -66v-27c0 -92 17 -141 63 -141c55 0 115 26 171 55l27 -57c-57 -32 -121 -66 -211 -66zM130 291l159 62c50 20 81 49 81 80c0 47 -34 63 -66 63
c-111 0 -156 -105 -174 -205zM375 646c-40 0 -86 36 -122 36c-31 0 -46 -6 -70 -24l-29 42c11 11 44 47 105 47c49 0 82 -36 121 -36c34 0 60 18 73 27l27 -43c-10 -11 -47 -49 -105 -49z" />
    <glyph glyph-name="eogonek" unicode="&#x119;" horiz-adv-x="469" 
d="M268 -225c-71 0 -101 39 -101 95c0 41 30 86 69 125c-20 -4 -41 -7 -63 -7c-101 0 -129 100 -129 204c0 196 90 369 263 369c97 0 137 -58 137 -125c0 -79 -71 -120 -143 -146l-178 -66v-27c0 -92 17 -141 63 -141c55 0 115 26 171 55l27 -57
c-59 -34 -145 -118 -145 -172c0 -35 22 -45 49 -45c18 0 38 4 55 9l12 -55c-19 -8 -46 -16 -87 -16zM130 291l159 62c50 20 81 49 81 80c0 47 -34 63 -66 63c-111 0 -156 -105 -174 -205z" />
    <glyph glyph-name="uni0229" unicode="&#x229;" horiz-adv-x="468" 
d="M173 -12c-101 0 -129 100 -129 204c0 196 90 369 263 369c97 0 137 -58 137 -125c0 -79 -71 -120 -143 -146l-178 -66v-27c0 -92 17 -141 63 -141c55 0 115 26 171 55l27 -57c-57 -32 -121 -66 -211 -66zM130 291l159 62c50 20 81 49 81 80c0 47 -34 63 -66 63
c-111 0 -156 -105 -174 -205zM154 -239l-21 44c45 26 62 51 66 77c2 21 -6 43 -16 67h74c10 -20 15 -43 13 -66c-4 -44 -34 -88 -116 -122z" />
    <glyph glyph-name="uni1EC1" unicode="&#x1ec1;" horiz-adv-x="468" 
d="M173 -12c-101 0 -129 100 -129 204c0 196 90 369 263 369c97 0 137 -58 137 -125c0 -79 -71 -120 -143 -146l-178 -66v-27c0 -92 17 -141 63 -141c55 0 115 26 171 55l27 -57c-57 -32 -121 -66 -211 -66zM130 291l159 62c50 20 81 49 81 80c0 47 -34 63 -66 63
c-111 0 -156 -105 -174 -205zM151 618l-31 50l191 113l159 -113l-35 -50l-133 87zM490 695l-146 144l56 49l136 -155z" />
    <glyph glyph-name="uni1EBF" unicode="&#x1ebf;" horiz-adv-x="468" 
d="M173 -12c-101 0 -129 100 -129 204c0 196 90 369 263 369c97 0 137 -58 137 -125c0 -79 -71 -120 -143 -146l-178 -66v-27c0 -92 17 -141 63 -141c55 0 115 26 171 55l27 -57c-57 -32 -121 -66 -211 -66zM130 291l159 62c50 20 81 49 81 80c0 47 -34 63 -66 63
c-111 0 -156 -105 -174 -205zM164 617l-32 50l191 113l159 -113l-34 -50l-134 87zM441 726l-38 43l142 122l46 -56z" />
    <glyph glyph-name="uni1EC5" unicode="&#x1ec5;" horiz-adv-x="468" 
d="M173 -12c-101 0 -129 100 -129 204c0 196 90 369 263 369c97 0 137 -58 137 -125c0 -79 -71 -120 -143 -146l-178 -66v-27c0 -92 17 -141 63 -141c55 0 115 26 171 55l27 -57c-57 -32 -121 -66 -211 -66zM130 291l159 62c50 20 81 49 81 80c0 47 -34 63 -66 63
c-111 0 -156 -105 -174 -205zM155 618l-32 50l191 113l159 -113l-35 -51l-133 87zM390 794c-40 0 -86 34 -122 34c-31 0 -46 -7 -70 -24l-26 43c11 10 43 44 104 44c49 0 82 -34 121 -34c33 0 58 18 72 27l25 -44c-11 -10 -46 -46 -104 -46z" />
    <glyph glyph-name="uni1EC3" unicode="&#x1ec3;" horiz-adv-x="468" 
d="M173 -12c-101 0 -129 100 -129 204c0 196 90 369 263 369c97 0 137 -58 137 -125c0 -79 -71 -120 -143 -146l-178 -66v-27c0 -92 17 -141 63 -141c55 0 115 26 171 55l27 -57c-57 -32 -121 -66 -211 -66zM130 291l159 62c50 20 81 49 81 80c0 47 -34 63 -66 63
c-111 0 -156 -105 -174 -205zM438 617l-133 87l-151 -87l-31 50l190 113l160 -113zM521 845c0 -65 -53 -104 -84 -119l-39 36c12 6 58 31 58 72c0 27 -22 34 -39 34c-14 0 -30 -2 -47 -9l1 52c19 8 40 13 67 13c17 0 43 -4 63 -23c13 -13 20 -31 20 -56z" />
    <glyph glyph-name="uni1EC7" unicode="&#x1ec7;" horiz-adv-x="468" 
d="M173 -12c-101 0 -129 100 -129 204c0 196 90 369 263 369c97 0 137 -58 137 -125c0 -79 -71 -120 -143 -146l-178 -66v-27c0 -92 17 -141 63 -141c55 0 115 26 171 55l27 -57c-57 -32 -121 -66 -211 -66zM130 291l159 62c50 20 81 49 81 80c0 47 -34 63 -66 63
c-111 0 -156 -105 -174 -205zM441 621l-132 90l-151 -90l-32 50l191 115l160 -115zM202 -225l-58 64l72 62l60 -62z" />
    <glyph glyph-name="uni1EBB" unicode="&#x1ebb;" horiz-adv-x="468" 
d="M173 -12c-101 0 -129 100 -129 204c0 196 90 369 263 369c97 0 137 -58 137 -125c0 -79 -71 -120 -143 -146l-178 -66v-27c0 -92 17 -141 63 -141c55 0 115 26 171 55l27 -57c-57 -32 -121 -66 -211 -66zM130 291l159 62c50 20 81 49 81 80c0 47 -34 63 -66 63
c-111 0 -156 -105 -174 -205zM385 766c0 -75 -61 -117 -93 -130l-36 39c28 12 65 42 65 79c0 28 -23 37 -40 37c-14 0 -30 -2 -47 -9l2 53c19 8 39 13 66 13c24 0 45 -8 59 -20c16 -15 24 -36 24 -62z" />
    <glyph glyph-name="uni1EB9" unicode="&#x1eb9;" horiz-adv-x="468" 
d="M173 -12c-101 0 -129 100 -129 204c0 196 90 369 263 369c97 0 137 -58 137 -125c0 -79 -71 -120 -143 -146l-178 -66v-27c0 -92 17 -141 63 -141c55 0 115 26 171 55l27 -57c-57 -32 -121 -66 -211 -66zM130 291l159 62c50 20 81 49 81 80c0 47 -34 63 -66 63
c-111 0 -156 -105 -174 -205zM210 -225l-58 64l72 62l60 -62z" />
    <glyph glyph-name="uni0065030A" horiz-adv-x="468" 
d="M173 -12c-101 0 -129 100 -129 204c0 196 90 369 263 369c97 0 137 -58 137 -125c0 -79 -71 -120 -143 -146l-178 -66v-27c0 -92 17 -141 63 -141c55 0 115 26 171 55l27 -57c-57 -32 -121 -66 -211 -66zM297 616c-54 0 -101 30 -101 83c0 69 54 114 120 114
c53 0 99 -34 99 -86c0 -68 -52 -111 -118 -111zM130 291l159 62c50 20 81 49 81 80c0 47 -34 63 -66 63c-111 0 -156 -105 -174 -205zM300 657c36 0 64 24 64 61c0 32 -23 52 -53 52c-38 0 -64 -25 -64 -62c0 -32 22 -51 53 -51z" />
    <glyph glyph-name="uni1E1F" unicode="&#x1e1f;" horiz-adv-x="311" 
d="M129 753l-59 64l73 63l60 -63zM50 -205l71 688h-80l7 63h80l4 43c13 154 112 185 214 185c39 0 79 -9 103 -18l-20 -61c-25 7 -50 14 -92 14c-84 0 -123 -33 -130 -115l-5 -48h119l-6 -63h-119l-72 -688h-74z" />
    <glyph glyph-name="uni00660304" horiz-adv-x="311" 
d="M192 823l7 64h261l-7 -64h-261zM50 -205l71 688h-80l7 63h80l4 43c13 154 112 185 214 185c39 0 79 -9 103 -18l-20 -61c-25 7 -50 14 -92 14c-84 0 -123 -33 -130 -115l-5 -48h119l-6 -63h-119l-72 -688h-74z" />
    <glyph glyph-name="gbreve" unicode="&#x11f;" horiz-adv-x="509" 
d="M147 -230c-79 0 -151 16 -172 22l18 68c30 -8 98 -23 142 -23c97 0 173 19 186 143l13 119c-77 -73 -134 -112 -193 -112c-77 0 -107 56 -107 164c0 209 138 400 323 400c32 0 75 -4 99 -8l-61 -579c-15 -151 -138 -194 -248 -194zM160 59c48 0 153 90 181 117l33 307
c-8 2 -21 2 -34 2c-132 0 -230 -167 -230 -323c0 -83 20 -103 50 -103zM329 645c-64 0 -117 45 -136 81l44 39c18 -27 50 -58 100 -58c56 0 92 31 112 57l34 -37c-24 -31 -74 -82 -154 -82z" />
    <glyph glyph-name="gcircumflex" unicode="&#x11d;" horiz-adv-x="509" 
d="M481 621l-132 90l-151 -90l-32 50l191 115l160 -115zM147 -230c-79 0 -151 16 -172 22l18 68c30 -8 98 -23 142 -23c97 0 173 19 186 143l13 119c-77 -73 -134 -112 -193 -112c-77 0 -107 56 -107 164c0 209 138 400 323 400c32 0 75 -4 99 -8l-61 -579
c-15 -151 -138 -194 -248 -194zM160 59c48 0 153 90 181 117l33 307c-8 2 -21 2 -34 2c-132 0 -230 -167 -230 -323c0 -83 20 -103 50 -103z" />
    <glyph glyph-name="gcommaaccent" unicode="&#x123;" horiz-adv-x="509" 
d="M431 807l-44 -202h-72l55 202h61zM147 -230c-79 0 -151 16 -172 22l18 68c30 -8 98 -23 142 -23c97 0 173 19 186 143l13 119c-77 -73 -134 -112 -193 -112c-77 0 -107 56 -107 164c0 209 138 400 323 400c32 0 75 -4 99 -8l-61 -579c-15 -151 -138 -194 -248 -194z
M160 59c48 0 153 90 181 117l33 307c-8 2 -21 2 -34 2c-132 0 -230 -167 -230 -323c0 -83 20 -103 50 -103z" />
    <glyph glyph-name="gdotaccent" unicode="&#x121;" horiz-adv-x="509" 
d="M334 652l-58 63l72 63l59 -63zM147 -230c-79 0 -151 16 -172 22l18 68c30 -8 98 -23 142 -23c97 0 173 19 186 143l13 119c-77 -73 -134 -112 -193 -112c-77 0 -107 56 -107 164c0 209 138 400 323 400c32 0 75 -4 99 -8l-61 -579c-15 -151 -138 -194 -248 -194zM160 59
c48 0 153 90 181 117l33 307c-8 2 -21 2 -34 2c-132 0 -230 -167 -230 -323c0 -83 20 -103 50 -103z" />
    <glyph glyph-name="uni01E7" unicode="&#x1e7;" horiz-adv-x="509" 
d="M301 616l-161 116l37 50l132 -93l153 91l29 -48zM147 -230c-79 0 -151 16 -172 22l18 68c30 -8 98 -23 142 -23c97 0 173 19 186 143l13 119c-77 -73 -134 -112 -193 -112c-77 0 -107 56 -107 164c0 209 138 400 323 400c32 0 75 -4 99 -8l-61 -579
c-15 -151 -138 -194 -248 -194zM160 59c48 0 153 90 181 117l33 307c-8 2 -21 2 -34 2c-132 0 -230 -167 -230 -323c0 -83 20 -103 50 -103z" />
    <glyph glyph-name="uni01F5" unicode="&#x1f5;" horiz-adv-x="509" 
d="M264 618l-30 48l186 135l38 -60zM147 -230c-79 0 -151 16 -172 22l18 68c30 -8 98 -23 142 -23c97 0 173 19 186 143l13 119c-77 -73 -134 -112 -193 -112c-77 0 -107 56 -107 164c0 209 138 400 323 400c32 0 75 -4 99 -8l-61 -579c-15 -151 -138 -194 -248 -194z
M160 59c48 0 153 90 181 117l33 307c-8 2 -21 2 -34 2c-132 0 -230 -167 -230 -323c0 -83 20 -103 50 -103z" />
    <glyph glyph-name="uni1E21" unicode="&#x1e21;" horiz-adv-x="509" 
d="M187 670l7 64h261l-7 -64h-261zM147 -230c-79 0 -151 16 -172 22l18 68c30 -8 98 -23 142 -23c97 0 173 19 186 143l13 119c-77 -73 -134 -112 -193 -112c-77 0 -107 56 -107 164c0 209 138 400 323 400c32 0 75 -4 99 -8l-61 -579c-15 -151 -138 -194 -248 -194zM160 59
c48 0 153 90 181 117l33 307c-8 2 -21 2 -34 2c-132 0 -230 -167 -230 -323c0 -83 20 -103 50 -103z" />
    <glyph glyph-name="hbar" unicode="&#x127;" horiz-adv-x="525" 
d="M30 617l6 55h81l9 82h77l-9 -82h133l-7 -55h-132l-17 -161c61 52 121 104 198 104c71 0 95 -33 95 -105c0 -18 -1 -38 -4 -61l-43 -394h-76l42 378c2 21 3 38 3 55c0 39 -11 55 -43 55c-43 0 -95 -31 -180 -101l-41 -387h-76l65 617h-81z" />
    <glyph glyph-name="hcircumflex" unicode="&#x125;" horiz-adv-x="525" 
d="M46 0l80 754h77l-32 -298c61 52 121 104 198 104c71 0 95 -33 95 -105c0 -18 -1 -38 -4 -61l-43 -394h-76l42 378c2 21 3 38 3 55c0 39 -11 55 -43 55c-43 0 -95 -31 -180 -101l-41 -387h-76zM309 745l-136 69l-155 -68l-21 54l182 85l160 -85z" />
    <glyph glyph-name="uni021F" unicode="&#x21f;" horiz-adv-x="525" 
d="M46 0l80 754h77l-32 -298c61 52 121 104 198 104c71 0 95 -33 95 -105c0 -18 -1 -38 -4 -61l-43 -394h-76l42 378c2 21 3 38 3 55c0 39 -11 55 -43 55c-43 0 -95 -31 -180 -101l-41 -387h-76zM334 739l-159 85l30 54l135 -69l155 68l21 -54z" />
    <glyph glyph-name="uni1E25" unicode="&#x1e25;" horiz-adv-x="525" 
d="M46 0l80 754h77l-32 -298c61 52 121 104 198 104c71 0 95 -33 95 -105c0 -18 -1 -38 -4 -61l-43 -394h-76l42 378c2 21 3 38 3 55c0 39 -11 55 -43 55c-43 0 -95 -31 -180 -101l-41 -387h-76zM206 -227l-58 63l72 63l60 -63z" />
    <glyph glyph-name="uni1E96" unicode="&#x1e96;" horiz-adv-x="525" 
d="M46 0l80 754h77l-32 -298c61 52 121 104 198 104c71 0 95 -33 95 -105c0 -18 -1 -38 -4 -61l-43 -394h-76l42 378c2 21 3 38 3 55c0 39 -11 55 -43 55c-43 0 -95 -31 -180 -101l-41 -387h-76zM80 -192l7 63h261l-7 -63h-261z" />
    <glyph glyph-name="uni1E2B" unicode="&#x1e2b;" horiz-adv-x="525" 
d="M46 0l80 754h77l-32 -298c61 52 121 104 198 104c71 0 95 -33 95 -105c0 -18 -1 -38 -4 -61l-43 -394h-76l42 378c2 21 3 38 3 55c0 39 -11 55 -43 55c-43 0 -95 -31 -180 -101l-41 -387h-76zM201 -206c-64 0 -116 45 -136 82l45 38c18 -27 50 -58 99 -58
c57 0 92 31 112 57l35 -37c-25 -31 -75 -82 -155 -82z" />
    <glyph glyph-name="uni1E23" unicode="&#x1e23;" horiz-adv-x="525" 
d="M46 0l80 754h77l-32 -298c61 52 121 104 198 104c71 0 95 -33 95 -105c0 -18 -1 -38 -4 -61l-43 -394h-76l42 378c2 21 3 38 3 55c0 39 -11 55 -43 55c-43 0 -95 -31 -180 -101l-41 -387h-76zM329 652l-58 63l72 63l59 -63z" />
    <glyph glyph-name="iacute" unicode="&#xed;" horiz-adv-x="233" 
d="M103 618l-30 48l186 135l38 -60zM47 0l57 546h76l-57 -546h-76z" />
    <glyph glyph-name="igrave" unicode="&#xec;" horiz-adv-x="233" 
d="M47 0l57 546h76l-57 -546h-76zM191 615l-184 119l38 60l177 -129z" />
    <glyph glyph-name="icircumflex" unicode="&#xee;" horiz-adv-x="233" 
d="M298 621l-132 90l-151 -90l-32 50l191 115l160 -115zM47 0l57 546h76l-57 -546h-76z" />
    <glyph glyph-name="idieresis" unicode="&#xef;" horiz-adv-x="233" 
d="M56 658l-51 56l62 56l51 -56zM251 658l-49 56l61 56l51 -56zM47 0l57 546h76l-57 -546h-76z" />
    <glyph glyph-name="ibreve" unicode="&#x12d;" horiz-adv-x="233" 
d="M47 0l57 546h76l-57 -546h-76zM150 645c-64 0 -117 45 -136 81l44 39c18 -27 50 -58 100 -58c56 0 92 31 112 57l34 -37c-24 -31 -74 -82 -154 -82z" />
    <glyph glyph-name="dotlessi" unicode="&#x131;" horiz-adv-x="233" 
d="M47 0l57 546h76l-57 -546h-76z" />
    <glyph glyph-name="imacron" unicode="&#x12b;" horiz-adv-x="233" 
d="M47 0l57 546h76l-57 -546h-76zM30 670l7 64h261l-7 -64h-261z" />
    <glyph glyph-name="iogonek" unicode="&#x12f;" horiz-adv-x="233" 
d="M128 -154l12 -55c-16 -7 -46 -15 -75 -15c-70 0 -112 32 -112 97c0 49 51 106 95 138l56 535h76l-57 -546c-40 -23 -97 -78 -98 -120c-1 -31 26 -41 54 -41c16 0 35 2 49 7zM158 652l-58 63l72 63l59 -63z" />
    <glyph glyph-name="itilde" unicode="&#x129;" horiz-adv-x="233" 
d="M47 0l57 546h76l-57 -546h-76zM223 646c-40 0 -86 36 -122 36c-31 0 -46 -6 -70 -24l-29 42c11 11 44 47 105 47c49 0 82 -36 121 -36c34 0 60 18 73 27l27 -43c-10 -11 -47 -49 -105 -49z" />
    <glyph glyph-name="uni01D0" unicode="&#x1d0;" horiz-adv-x="233" 
d="M145 616l-161 116l37 50l132 -93l153 91l29 -48zM47 0l57 546h76l-57 -546h-76z" />
    <glyph glyph-name="uni1EC9" unicode="&#x1ec9;" horiz-adv-x="233" 
d="M47 0l57 546h76l-57 -546h-76zM233 766c0 -75 -61 -117 -93 -130l-36 39c28 12 65 42 65 79c0 28 -23 37 -40 37c-14 0 -30 -2 -47 -9l2 53c19 8 39 13 66 13c24 0 45 -8 59 -20c16 -15 24 -36 24 -62z" />
    <glyph glyph-name="uni1ECB" unicode="&#x1ecb;" horiz-adv-x="232" 
d="M64 -225l-58 64l72 62l60 -62zM47 0l57 546h76l-57 -546h-76zM151 652l-58 63l72 63l59 -63z" />
    <glyph glyph-name="jcircumflex" unicode="&#x135;" horiz-adv-x="233" 
d="M294 621l-132 90l-151 -90l-32 50l191 115l160 -115zM-76 -220c-30 0 -62 8 -75 13l19 65c13 -4 39 -11 65 -11c83 0 103 54 111 136l60 563h76l-60 -564c-16 -158 -94 -202 -196 -202z" />
    <glyph glyph-name="uni006A0301" horiz-adv-x="233" 
d="M121 618l-30 48l186 135l38 -60zM-76 -220c-30 0 -62 8 -75 13l19 65c13 -4 39 -11 65 -11c83 0 103 54 111 136l60 563h76l-60 -564c-16 -158 -94 -202 -196 -202z" />
    <glyph glyph-name="uni0237" unicode="&#x237;" horiz-adv-x="233" 
d="M-76 -220c-30 0 -62 8 -75 13l19 65c13 -4 39 -11 65 -11c83 0 103 54 111 136l60 563h76l-60 -564c-16 -158 -94 -202 -196 -202z" />
    <glyph glyph-name="kcommaaccent" unicode="&#x137;" horiz-adv-x="481" 
d="M144 -261l44 202h72l-55 -202h-61zM365 -14l-192 302l201 258h90l-203 -255l181 -280zM46 0l79 754h77l-80 -754h-76z" />
    <glyph glyph-name="uni01E9" unicode="&#x1e9;" horiz-adv-x="482" 
d="M365 -14l-192 302l201 258h90l-203 -255l181 -280zM46 0l79 754h77l-80 -754h-76zM326 739l-159 85l30 54l135 -69l155 68l21 -54z" />
    <glyph glyph-name="uni1E35" unicode="&#x1e35;" horiz-adv-x="481" 
d="M365 -14l-192 302l201 258h90l-203 -255l181 -280zM46 0l79 754h77l-80 -754h-76zM76 -192l7 63h261l-7 -63h-261z" />
    <glyph glyph-name="uni1E33" unicode="&#x1e33;" horiz-adv-x="481" 
d="M209 -227l-58 63l72 63l60 -63zM365 -14l-192 302l201 258h90l-203 -255l181 -280zM46 0l79 754h77l-80 -754h-76z" />
    <glyph glyph-name="lacute" unicode="&#x13a;" horiz-adv-x="233" 
d="M126 785l-16 54l229 80l19 -70zM46 0l79 754h77l-80 -754h-76z" />
    <glyph glyph-name="lcaron" unicode="&#x13e;" horiz-adv-x="263" 
d="M227 553l44 202h72l-55 -202h-61zM46 0l79 754h77l-80 -754h-76z" />
    <glyph glyph-name="lcommaaccent" unicode="&#x13c;" horiz-adv-x="232" 
d="M10 -261l44 202h72l-55 -202h-61zM46 0l79 754h77l-80 -754h-76z" />
    <glyph glyph-name="ldot" unicode="&#x140;" horiz-adv-x="299" 
d="M272 294l-59 65l73 63l60 -63zM46 0l79 754h77l-80 -754h-76z" />
    <glyph glyph-name="lslash" unicode="&#x142;" horiz-adv-x="308" 
d="M26 286l7 63l84 45l38 360h77l-34 -316l94 50l-6 -61l-94 -51l-40 -376h-76l35 332z" />
    <glyph glyph-name="uni1E3B" unicode="&#x1e3b;" horiz-adv-x="232" 
d="M46 0l79 754h77l-80 -754h-76zM-68 -192l7 63h261l-7 -63h-261z" />
    <glyph glyph-name="uni1E37" unicode="&#x1e37;" horiz-adv-x="232" 
d="M57 -227l-58 63l72 63l60 -63zM46 0l79 754h77l-80 -754h-76z" />
    <glyph glyph-name="uni1E39" unicode="&#x1e39;" horiz-adv-x="232" 
d="M58 -227l-58 63l72 63l60 -63zM24 793l7 64h282l-7 -64h-282zM46 0l79 754h77l-80 -754h-76z" />
    <glyph glyph-name="uni1E43" unicode="&#x1e43;" horiz-adv-x="798" 
d="M348 -227l-58 63l72 63l60 -63zM46 0l57 546h77l-9 -89c46 40 116 103 190 103c69 0 94 -31 93 -95c57 48 121 95 191 95c69 0 92 -32 92 -103c0 -19 -1 -40 -4 -63l-42 -394h-76l41 378c3 22 4 40 4 55c0 42 -12 56 -46 56c-46 0 -95 -36 -165 -95l-42 -394h-76l41 378
c3 22 5 40 5 55c0 42 -12 54 -46 54c-41 0 -91 -34 -168 -100l-41 -387h-76z" />
    <glyph glyph-name="uni006D0310" horiz-adv-x="799" 
d="M455 759l-54 60l67 58l56 -58zM444 645c-63 0 -116 45 -136 81l45 39c18 -27 50 -58 99 -58c57 0 92 31 112 57l35 -37c-24 -31 -74 -82 -155 -82zM47 0l57 546h77l-9 -89c46 40 116 103 190 103c69 0 94 -31 93 -95c57 48 121 95 191 95c69 0 92 -32 92 -103
c0 -19 -1 -40 -4 -63l-42 -394h-76l41 378c3 22 4 40 4 55c0 42 -12 56 -46 56c-46 0 -95 -36 -165 -95l-42 -394h-76l41 378c3 22 5 40 5 55c0 42 -12 54 -46 54c-41 0 -91 -34 -168 -100l-41 -387h-76z" />
    <glyph glyph-name="uni1E41" unicode="&#x1e41;" horiz-adv-x="799" 
d="M47 0l57 546h77l-9 -89c46 40 116 103 190 103c69 0 94 -31 93 -95c57 48 121 95 191 95c69 0 92 -32 92 -103c0 -19 -1 -40 -4 -63l-42 -394h-76l41 378c3 22 4 40 4 55c0 42 -12 56 -46 56c-46 0 -95 -36 -165 -95l-42 -394h-76l41 378c3 22 5 40 5 55
c0 42 -12 54 -46 54c-41 0 -91 -34 -168 -100l-41 -387h-76zM438 652l-58 63l72 63l59 -63z" />
    <glyph glyph-name="uni1E3F" unicode="&#x1e3f;" horiz-adv-x="799" 
d="M404 618l-30 48l186 135l38 -60zM47 0l57 546h77l-9 -89c46 40 116 103 190 103c69 0 94 -31 93 -95c57 48 121 95 191 95c69 0 92 -32 92 -103c0 -19 -1 -40 -4 -63l-42 -394h-76l41 378c3 22 4 40 4 55c0 42 -12 56 -46 56c-46 0 -95 -36 -165 -95l-42 -394h-76l41 378
c3 22 5 40 5 55c0 42 -12 54 -46 54c-41 0 -91 -34 -168 -100l-41 -387h-76z" />
    <glyph glyph-name="ntilde" unicode="&#xf1;" horiz-adv-x="526" 
d="M380 646c-40 0 -86 36 -122 36c-31 0 -46 -6 -70 -24l-29 42c11 11 44 47 105 47c49 0 82 -36 121 -36c34 0 60 18 73 27l27 -43c-10 -11 -47 -49 -105 -49zM47 0l57 546h77l-9 -90c61 52 121 104 198 104c71 0 94 -33 94 -105c0 -18 -1 -38 -3 -61l-43 -394h-76l41 378
c3 20 4 38 4 52c0 42 -11 58 -44 58c-42 0 -94 -31 -179 -101l-41 -387h-76z" />
    <glyph glyph-name="nacute" unicode="&#x144;" horiz-adv-x="526" 
d="M267 618l-30 48l186 135l38 -60zM47 0l57 546h77l-9 -90c61 52 121 104 198 104c71 0 94 -33 94 -105c0 -18 -1 -38 -3 -61l-43 -394h-76l41 378c3 20 4 38 4 52c0 42 -11 58 -44 58c-42 0 -94 -31 -179 -101l-41 -387h-76z" />
    <glyph glyph-name="napostrophe" unicode="&#x149;" horiz-adv-x="546" 
d="M-7 556c32 71 43 153 47 207h83c-4 -99 -33 -155 -67 -207h-63zM66 0l57 546h77l-9 -90c61 52 121 104 198 104c71 0 94 -33 94 -105c0 -18 -1 -38 -3 -61l-43 -394h-76l41 378c3 20 4 38 4 52c0 42 -11 58 -44 58c-42 0 -94 -31 -179 -101l-41 -387h-76z" />
    <glyph glyph-name="ncaron" unicode="&#x148;" horiz-adv-x="526" 
d="M304 616l-161 116l37 50l132 -93l153 91l29 -48zM47 0l57 546h77l-9 -90c61 52 121 104 198 104c71 0 94 -33 94 -105c0 -18 -1 -38 -3 -61l-43 -394h-76l41 378c3 20 4 38 4 52c0 42 -11 58 -44 58c-42 0 -94 -31 -179 -101l-41 -387h-76z" />
    <glyph glyph-name="ncommaaccent" unicode="&#x146;" horiz-adv-x="525" 
d="M159 -261l44 202h72l-55 -202h-61zM46 0l57 546h77l-9 -90c61 52 121 104 198 104c71 0 94 -33 94 -105c0 -18 -1 -38 -3 -61l-43 -394h-76l41 378c3 20 4 38 4 52c0 42 -11 58 -44 58c-42 0 -94 -31 -179 -101l-41 -387h-76z" />
    <glyph glyph-name="uni01F9" unicode="&#x1f9;" horiz-adv-x="526" 
d="M335 614l-184 119l38 60l177 -129zM47 0l57 546h77l-9 -90c61 52 121 104 198 104c71 0 94 -33 94 -105c0 -18 -1 -38 -3 -61l-43 -394h-76l41 378c3 20 4 38 4 52c0 42 -11 58 -44 58c-42 0 -94 -31 -179 -101l-41 -387h-76z" />
    <glyph glyph-name="uni1E49" unicode="&#x1e49;" horiz-adv-x="525" 
d="M76 -192l7 63h261l-7 -63h-261zM46 0l57 546h77l-9 -90c61 52 121 104 198 104c71 0 94 -33 94 -105c0 -18 -1 -38 -3 -61l-43 -394h-76l41 378c3 20 4 38 4 52c0 42 -11 58 -44 58c-42 0 -94 -31 -179 -101l-41 -387h-76z" />
    <glyph glyph-name="uni1E45" unicode="&#x1e45;" horiz-adv-x="526" 
d="M292 652l-58 63l72 63l59 -63zM47 0l57 546h77l-9 -90c61 52 121 104 198 104c71 0 94 -33 94 -105c0 -18 -1 -38 -3 -61l-43 -394h-76l41 378c3 20 4 38 4 52c0 42 -11 58 -44 58c-42 0 -94 -31 -179 -101l-41 -387h-76z" />
    <glyph glyph-name="uni1E47" unicode="&#x1e47;" horiz-adv-x="525" 
d="M208 -227l-58 63l72 63l60 -63zM46 0l57 546h77l-9 -90c61 52 121 104 198 104c71 0 94 -33 94 -105c0 -18 -1 -38 -3 -61l-43 -394h-76l41 378c3 20 4 38 4 52c0 42 -11 58 -44 58c-42 0 -94 -31 -179 -101l-41 -387h-76z" />
    <glyph glyph-name="uni006E0304" horiz-adv-x="526" 
d="M187 670l7 64h261l-7 -64h-261zM47 0l57 546h77l-9 -90c61 52 121 104 198 104c71 0 94 -33 94 -105c0 -18 -1 -38 -3 -61l-43 -394h-76l41 378c3 20 4 38 4 52c0 42 -11 58 -44 58c-42 0 -94 -31 -179 -101l-41 -387h-76z" />
    <glyph glyph-name="eng" unicode="&#x14b;" horiz-adv-x="526" 
d="M219 -220c-29 0 -61 8 -75 13l19 65c14 -4 40 -11 65 -11c83 0 103 54 112 136l43 394c2 19 4 36 4 50c0 47 -14 61 -46 61c-42 0 -105 -43 -177 -101l-41 -387h-76l57 546h77l-9 -90c38 31 116 104 193 104c76 0 99 -32 99 -103c0 -19 -1 -40 -3 -63l-45 -412
c-17 -158 -95 -202 -197 -202z" />
    <glyph glyph-name="oacute" unicode="&#xf3;" horiz-adv-x="515" 
d="M254 618l-30 48l186 135l38 -60zM200 -12c-103 0 -160 88 -160 192c0 232 111 380 272 380c107 0 157 -95 157 -187c0 -173 -69 -385 -269 -385zM219 54c92 0 172 126 172 304c0 95 -29 138 -102 138c-91 0 -170 -133 -170 -301c0 -63 13 -141 100 -141z" />
    <glyph glyph-name="ograve" unicode="&#xf2;" horiz-adv-x="515" 
d="M350 615l-184 119l38 60l177 -129zM200 -12c-103 0 -160 88 -160 192c0 232 111 380 272 380c107 0 157 -95 157 -187c0 -173 -69 -385 -269 -385zM219 54c92 0 172 126 172 304c0 95 -29 138 -102 138c-91 0 -170 -133 -170 -301c0 -63 13 -141 100 -141z" />
    <glyph glyph-name="ocircumflex" unicode="&#xf4;" horiz-adv-x="515" 
d="M457 621l-132 90l-151 -90l-32 50l191 115l160 -115zM200 -12c-103 0 -160 88 -160 192c0 232 111 380 272 380c107 0 157 -95 157 -187c0 -173 -69 -385 -269 -385zM219 54c92 0 172 126 172 304c0 95 -29 138 -102 138c-91 0 -170 -133 -170 -301
c0 -63 13 -141 100 -141z" />
    <glyph glyph-name="odieresis" unicode="&#xf6;" horiz-adv-x="515" 
d="M209 658l-51 56l62 56l51 -56zM404 658l-49 56l61 56l51 -56zM200 -12c-103 0 -160 88 -160 192c0 232 111 380 272 380c107 0 157 -95 157 -187c0 -173 -69 -385 -269 -385zM219 54c92 0 172 126 172 304c0 95 -29 138 -102 138c-91 0 -170 -133 -170 -301
c0 -63 13 -141 100 -141z" />
    <glyph glyph-name="otilde" unicode="&#xf5;" horiz-adv-x="515" 
d="M200 -12c-103 0 -160 88 -160 192c0 232 111 380 272 380c107 0 157 -95 157 -187c0 -173 -69 -385 -269 -385zM219 54c92 0 172 126 172 304c0 95 -29 138 -102 138c-91 0 -170 -133 -170 -301c0 -63 13 -141 100 -141zM375 646c-40 0 -86 36 -122 36
c-31 0 -46 -6 -70 -24l-29 42c11 11 44 47 105 47c49 0 82 -36 121 -36c34 0 60 18 73 27l27 -43c-10 -11 -47 -49 -105 -49z" />
    <glyph glyph-name="obreve" unicode="&#x14f;" horiz-adv-x="515" 
d="M200 -12c-103 0 -160 88 -160 192c0 232 111 380 272 380c107 0 157 -95 157 -187c0 -173 -69 -385 -269 -385zM219 54c92 0 172 126 172 304c0 95 -29 138 -102 138c-91 0 -170 -133 -170 -301c0 -63 13 -141 100 -141zM297 645c-64 0 -117 45 -136 81l44 39
c18 -27 50 -58 100 -58c56 0 92 31 112 57l34 -37c-24 -31 -74 -82 -154 -82z" />
    <glyph glyph-name="ohungarumlaut" unicode="&#x151;" horiz-adv-x="515" 
d="M177 617l-26 45l197 142l38 -61zM407 621l-28 46l188 124l35 -61zM200 -12c-103 0 -160 88 -160 192c0 232 111 380 272 380c107 0 157 -95 157 -187c0 -173 -69 -385 -269 -385zM219 54c92 0 172 126 172 304c0 95 -29 138 -102 138c-91 0 -170 -133 -170 -301
c0 -63 13 -141 100 -141z" />
    <glyph glyph-name="omacron" unicode="&#x14d;" horiz-adv-x="515" 
d="M181 670l7 64h261l-7 -64h-261zM200 -12c-103 0 -160 88 -160 192c0 232 111 380 272 380c107 0 157 -95 157 -187c0 -173 -69 -385 -269 -385zM219 54c92 0 172 126 172 304c0 95 -29 138 -102 138c-91 0 -170 -133 -170 -301c0 -63 13 -141 100 -141z" />
    <glyph glyph-name="oslash" unicode="&#xf8;" horiz-adv-x="546" 
d="M35 -28l-36 30l76 90c-10 26 -16 56 -16 88c0 229 110 380 271 380c46 0 83 -20 108 -48l54 62l36 -31l-62 -73c14 -29 22 -63 22 -97c0 -173 -69 -385 -269 -385c-51 0 -92 24 -119 59zM140 167l250 289c-16 26 -44 40 -83 40c-85 0 -168 -122 -169 -296
c0 -9 1 -23 2 -33zM237 54c92 0 172 125 173 301c0 16 -2 35 -3 47l-255 -295c13 -31 39 -53 85 -53z" />
    <glyph glyph-name="oslashacute" unicode="&#x1ff;" horiz-adv-x="546" 
d="M35 -28l-36 30l76 90c-10 26 -16 56 -16 88c0 229 110 380 271 380c46 0 83 -20 108 -48l54 62l36 -31l-62 -73c14 -29 22 -63 22 -97c0 -173 -69 -385 -269 -385c-51 0 -92 24 -119 59zM140 167l250 289c-16 26 -44 40 -83 40c-85 0 -168 -122 -169 -296
c0 -9 1 -23 2 -33zM237 54c92 0 172 125 173 301c0 16 -2 35 -3 47l-255 -295c13 -31 39 -53 85 -53zM247 618l-30 48l186 135l38 -60z" />
    <glyph glyph-name="uni01D2" unicode="&#x1d2;" horiz-adv-x="515" 
d="M305 616l-161 116l37 50l132 -93l153 91l29 -48zM200 -12c-103 0 -160 88 -160 192c0 232 111 380 272 380c107 0 157 -95 157 -187c0 -173 -69 -385 -269 -385zM219 54c92 0 172 126 172 304c0 95 -29 138 -102 138c-91 0 -170 -133 -170 -301c0 -63 13 -141 100 -141z
" />
    <glyph glyph-name="uni01EB" unicode="&#x1eb;" horiz-adv-x="518" 
d="M272 -155l11 -55c-20 -8 -47 -15 -85 -15c-65 0 -102 35 -102 94c0 48 35 89 78 121c-86 14 -133 95 -133 190c0 232 111 380 272 380c107 0 157 -95 157 -187c0 -140 -45 -305 -167 -363c-52 -28 -135 -78 -135 -129c0 -34 22 -46 50 -46c17 0 37 4 54 10zM220 54
c92 0 172 126 172 304c0 95 -29 138 -102 138c-91 0 -170 -133 -170 -301c0 -63 13 -141 100 -141z" />
    <glyph glyph-name="uni01ED" unicode="&#x1ed;" horiz-adv-x="518" 
d="M271 -155l11 -55c-20 -8 -47 -15 -85 -15c-65 0 -102 35 -102 94c0 48 35 89 78 121c-85 14 -132 95 -132 190c0 232 111 380 272 380c107 0 157 -95 157 -187c0 -143 -47 -312 -176 -367c-52 -28 -127 -76 -127 -125c0 -34 22 -46 50 -46c17 0 37 4 54 10zM220 54
c92 0 172 126 172 304c0 95 -29 138 -102 138c-91 0 -170 -133 -170 -301c0 -63 13 -141 100 -141zM191 670l7 64h261l-7 -64h-261z" />
    <glyph glyph-name="uni022F" unicode="&#x22f;" horiz-adv-x="515" 
d="M200 -12c-103 0 -160 88 -160 192c0 232 111 380 272 380c107 0 157 -95 157 -187c0 -173 -69 -385 -269 -385zM219 54c92 0 172 126 172 304c0 95 -29 138 -102 138c-91 0 -170 -133 -170 -301c0 -63 13 -141 100 -141zM318 652l-58 63l72 63l59 -63z" />
    <glyph glyph-name="ohorn" unicode="&#x1a1;" horiz-adv-x="535" 
d="M200 -12c-103 0 -160 88 -160 192c0 232 111 380 272 380c41 0 73 -14 98 -37c37 10 63 40 63 86c0 12 -3 25 -5 38h72c4 -13 6 -28 6 -41c0 -68 -42 -119 -96 -139c12 -29 19 -62 19 -94c0 -173 -69 -385 -269 -385zM219 54c92 0 172 126 172 304c0 95 -29 138 -102 138
c-91 0 -170 -133 -170 -301c0 -63 13 -141 100 -141z" />
    <glyph glyph-name="uni1ED3" unicode="&#x1ed3;" horiz-adv-x="515" 
d="M513 695l-146 144l56 49l136 -155zM174 618l-31 50l191 113l159 -113l-35 -50l-133 87zM200 -12c-103 0 -160 88 -160 192c0 232 111 380 272 380c107 0 157 -95 157 -187c0 -173 -69 -385 -269 -385zM219 54c92 0 172 126 172 304c0 95 -29 138 -102 138
c-91 0 -170 -133 -170 -301c0 -63 13 -141 100 -141z" />
    <glyph glyph-name="uni1ED1" unicode="&#x1ed1;" horiz-adv-x="515" 
d="M449 726l-38 43l142 122l46 -56zM172 617l-32 50l191 113l159 -113l-34 -50l-134 87zM200 -12c-103 0 -160 88 -160 192c0 232 111 380 272 380c107 0 157 -95 157 -187c0 -173 -69 -385 -269 -385zM219 54c92 0 172 126 172 304c0 95 -29 138 -102 138
c-91 0 -170 -133 -170 -301c0 -63 13 -141 100 -141z" />
    <glyph glyph-name="uni1ED7" unicode="&#x1ed7;" horiz-adv-x="515" 
d="M180 618l-32 50l191 113l159 -113l-35 -51l-133 87zM415 794c-40 0 -86 34 -122 34c-31 0 -46 -7 -70 -24l-26 43c11 10 43 44 104 44c49 0 82 -34 121 -34c33 0 58 18 72 27l25 -44c-11 -10 -46 -46 -104 -46zM200 -12c-103 0 -160 88 -160 192c0 232 111 380 272 380
c107 0 157 -95 157 -187c0 -173 -69 -385 -269 -385zM219 54c92 0 172 126 172 304c0 95 -29 138 -102 138c-91 0 -170 -133 -170 -301c0 -63 13 -141 100 -141z" />
    <glyph glyph-name="uni1ED5" unicode="&#x1ed5;" horiz-adv-x="515" 
d="M540 845c0 -65 -53 -104 -84 -119l-39 36c12 6 58 31 58 72c0 27 -22 34 -39 34c-14 0 -30 -2 -47 -9l1 52c19 8 40 13 67 13c17 0 43 -4 63 -23c13 -13 20 -31 20 -56zM457 617l-133 87l-151 -87l-31 50l190 113l160 -113zM200 -12c-103 0 -160 88 -160 192
c0 232 111 380 272 380c107 0 157 -95 157 -187c0 -173 -69 -385 -269 -385zM219 54c92 0 172 126 172 304c0 95 -29 138 -102 138c-91 0 -170 -133 -170 -301c0 -63 13 -141 100 -141z" />
    <glyph glyph-name="uni1ED9" unicode="&#x1ed9;" horiz-adv-x="515" 
d="M457 621l-132 90l-151 -90l-32 50l191 115l160 -115zM170 -225l-58 64l72 62l60 -62zM200 -12c-103 0 -160 88 -160 192c0 232 111 380 272 380c107 0 157 -95 157 -187c0 -173 -69 -385 -269 -385zM219 54c92 0 172 126 172 304c0 95 -29 138 -102 138
c-91 0 -170 -133 -170 -301c0 -63 13 -141 100 -141z" />
    <glyph glyph-name="uni1ECF" unicode="&#x1ecf;" horiz-adv-x="515" 
d="M200 -12c-103 0 -160 88 -160 192c0 232 111 380 272 380c107 0 157 -95 157 -187c0 -173 -69 -385 -269 -385zM219 54c92 0 172 126 172 304c0 95 -29 138 -102 138c-91 0 -170 -133 -170 -301c0 -63 13 -141 100 -141zM408 766c0 -75 -61 -117 -93 -130l-36 39
c28 12 65 42 65 79c0 28 -23 37 -40 37c-14 0 -30 -2 -47 -9l2 53c19 8 39 13 66 13c24 0 45 -8 59 -20c16 -15 24 -36 24 -62z" />
    <glyph glyph-name="uni1ECD" unicode="&#x1ecd;" horiz-adv-x="515" 
d="M162 -225l-58 64l72 62l60 -62zM200 -12c-103 0 -160 88 -160 192c0 232 111 380 272 380c107 0 157 -95 157 -187c0 -173 -69 -385 -269 -385zM219 54c92 0 172 126 172 304c0 95 -29 138 -102 138c-91 0 -170 -133 -170 -301c0 -63 13 -141 100 -141z" />
    <glyph glyph-name="uni1EDD" unicode="&#x1edd;" horiz-adv-x="535" 
d="M200 -12c-103 0 -160 88 -160 192c0 232 111 380 272 380c41 0 73 -14 98 -37c37 10 63 40 63 86c0 12 -3 25 -5 38h72c4 -13 6 -28 6 -41c0 -68 -42 -119 -96 -139c12 -29 19 -62 19 -94c0 -173 -69 -385 -269 -385zM219 54c92 0 172 126 172 304c0 95 -29 138 -102 138
c-91 0 -170 -133 -170 -301c0 -63 13 -141 100 -141zM389 614l-184 119l38 60l177 -129z" />
    <glyph glyph-name="uni1EDB" unicode="&#x1edb;" horiz-adv-x="535" 
d="M200 -12c-103 0 -160 88 -160 192c0 232 111 380 272 380c41 0 73 -14 98 -37c37 10 63 40 63 86c0 12 -3 25 -5 38h72c4 -13 6 -28 6 -41c0 -68 -42 -119 -96 -139c12 -29 19 -62 19 -94c0 -173 -69 -385 -269 -385zM219 54c92 0 172 126 172 304c0 95 -29 138 -102 138
c-91 0 -170 -133 -170 -301c0 -63 13 -141 100 -141zM324 618l-30 48l186 135l38 -60z" />
    <glyph glyph-name="uni1EE1" unicode="&#x1ee1;" horiz-adv-x="535" 
d="M200 -12c-103 0 -160 88 -160 192c0 232 111 380 272 380c41 0 73 -14 98 -37c37 10 63 40 63 86c0 12 -3 25 -5 38h72c4 -13 6 -28 6 -41c0 -68 -42 -119 -96 -139c12 -29 19 -62 19 -94c0 -173 -69 -385 -269 -385zM219 54c92 0 172 126 172 304c0 95 -29 138 -102 138
c-91 0 -170 -133 -170 -301c0 -63 13 -141 100 -141zM392 648c-40 0 -86 36 -122 36c-31 0 -46 -6 -70 -24l-29 42c11 11 44 47 105 47c49 0 82 -36 121 -36c34 0 60 18 73 27l27 -43c-10 -11 -47 -49 -105 -49z" />
    <glyph glyph-name="uni1EDF" unicode="&#x1edf;" horiz-adv-x="535" 
d="M200 -12c-103 0 -160 88 -160 192c0 232 111 380 272 380c41 0 73 -14 98 -37c37 10 63 40 63 86c0 12 -3 25 -5 38h72c4 -13 6 -28 6 -41c0 -68 -42 -119 -96 -139c12 -29 19 -62 19 -94c0 -173 -69 -385 -269 -385zM219 54c92 0 172 126 172 304c0 95 -29 138 -102 138
c-91 0 -170 -133 -170 -301c0 -63 13 -141 100 -141zM426 766c0 -75 -61 -117 -93 -130l-36 39c28 12 65 42 65 79c0 28 -23 37 -40 37c-14 0 -30 -2 -47 -9l2 53c19 8 39 13 66 13c24 0 45 -8 59 -20c16 -15 24 -36 24 -62z" />
    <glyph glyph-name="uni1EE3" unicode="&#x1ee3;" horiz-adv-x="536" 
d="M200 -12c-103 0 -160 88 -160 192c0 232 111 380 272 380c41 0 73 -14 98 -37c37 10 63 40 63 86c0 12 -3 25 -5 38h72c4 -13 6 -28 6 -41c0 -68 -42 -119 -96 -139c12 -29 19 -62 19 -94c0 -173 -69 -385 -269 -385zM219 54c92 0 172 126 172 304c0 95 -29 138 -102 138
c-91 0 -170 -133 -170 -301c0 -63 13 -141 100 -141zM167 -225l-58 64l72 62l60 -62z" />
    <glyph glyph-name="uni007000AF" horiz-adv-x="535" 
d="M37 -220l83 766h75l-7 -76c47 35 115 78 189 78c83 0 122 -56 122 -160c0 -173 -86 -396 -293 -396c-27 0 -49 3 -69 7l-24 -219h-76zM212 56c161 0 210 210 210 333c0 75 -27 93 -65 93c-52 0 -133 -48 -177 -78l-36 -338c28 -5 39 -10 68 -10zM198 670l7 64h261l-7 -64
h-261z" />
    <glyph glyph-name="uni1E57" unicode="&#x1e57;" horiz-adv-x="529" 
d="M22 -220l83 766h75l-7 -76c47 35 115 78 189 78c83 0 122 -56 122 -160c0 -173 -86 -396 -293 -396c-27 0 -49 3 -69 7l-24 -219h-76zM197 56c161 0 210 210 210 333c0 75 -27 93 -65 93c-52 0 -133 -48 -177 -78l-36 -338c28 -5 39 -10 68 -10zM293 652l-58 63l72 63
l59 -63z" />
    <glyph glyph-name="racute" unicode="&#x155;" horiz-adv-x="350" 
d="M200 618l-30 48l186 135l38 -60zM47 0l57 546h76l-9 -91c32 29 104 101 175 101c11 0 16 -1 26 -2l-15 -71c-10 2 -12 1 -24 1c-49 0 -128 -68 -170 -103l-40 -381h-76z" />
    <glyph glyph-name="rcaron" unicode="&#x159;" horiz-adv-x="350" 
d="M239 616l-161 116l37 50l132 -93l153 91l29 -48zM47 0l57 546h76l-9 -91c32 29 104 101 175 101c11 0 16 -1 26 -2l-15 -71c-10 2 -12 1 -24 1c-49 0 -128 -68 -170 -103l-40 -381h-76z" />
    <glyph glyph-name="rcommaaccent" unicode="&#x157;" horiz-adv-x="348" 
d="M11 -261l44 202h72l-55 -202h-61zM47 0l57 546h76l-9 -91c32 29 104 101 175 101c11 0 16 -1 26 -2l-15 -71c-10 2 -12 1 -24 1c-49 0 -128 -68 -170 -103l-40 -381h-76z" />
    <glyph glyph-name="uni1E5F" unicode="&#x1e5f;" horiz-adv-x="348" 
d="M47 0l57 546h76l-9 -91c32 29 104 101 175 101c11 0 16 -1 26 -2l-15 -71c-10 2 -12 1 -24 1c-49 0 -128 -68 -170 -103l-40 -381h-76zM-68 -192l7 63h261l-7 -63h-261z" />
    <glyph glyph-name="uni1E5B" unicode="&#x1e5b;" horiz-adv-x="348" 
d="M64 -227l-58 63l72 63l60 -63zM47 0l57 546h76l-9 -91c32 29 104 101 175 101c11 0 16 -1 26 -2l-15 -71c-10 2 -12 1 -24 1c-49 0 -128 -68 -170 -103l-40 -381h-76z" />
    <glyph glyph-name="uni1E5D" unicode="&#x1e5d;" horiz-adv-x="348" 
d="M59 -227l-58 63l72 63l60 -63zM47 0l57 546h76l-9 -91c32 29 104 101 175 101c11 0 16 -1 26 -2l-15 -71c-10 2 -12 1 -24 1c-49 0 -128 -68 -170 -103l-40 -381h-76zM112 670l7 64h261l-7 -64h-261z" />
    <glyph glyph-name="uni00720325" horiz-adv-x="348" 
d="M57 -288c-57 0 -109 32 -109 90c0 73 59 122 130 122c57 0 107 -37 107 -92c0 -74 -56 -120 -128 -120zM61 -245c39 0 70 27 70 68c0 34 -26 56 -59 56c-41 0 -70 -27 -70 -68c0 -35 25 -56 59 -56zM47 0l57 546h76l-9 -91c32 29 104 101 175 101c11 0 16 -1 26 -2
l-15 -71c-10 2 -12 1 -24 1c-49 0 -128 -68 -170 -103l-40 -381h-76z" />
    <glyph glyph-name="uni007203250304" horiz-adv-x="348" 
d="M51 -288c-57 0 -109 32 -109 90c0 73 59 122 130 122c57 0 107 -37 107 -92c0 -74 -56 -120 -128 -120zM55 -245c39 0 70 27 70 68c0 34 -26 56 -59 56c-41 0 -70 -27 -70 -68c0 -35 25 -56 59 -56zM47 0l57 546h76l-9 -91c32 29 104 101 175 101c11 0 16 -1 26 -2
l-15 -71c-10 2 -12 1 -24 1c-49 0 -128 -68 -170 -103l-40 -381h-76zM111 670l7 64h261l-7 -64h-261z" />
    <glyph glyph-name="uni1E59" unicode="&#x1e59;" horiz-adv-x="350" 
d="M47 0l57 546h76l-9 -91c32 29 104 101 175 101c11 0 16 -1 26 -2l-15 -71c-10 2 -12 1 -24 1c-49 0 -128 -68 -170 -103l-40 -381h-76zM237 652l-58 63l72 63l59 -63z" />
    <glyph glyph-name="uni00720300" horiz-adv-x="350" 
d="M47 0l57 546h76l-9 -91c32 29 104 101 175 101c11 0 16 -1 26 -2l-15 -71c-10 2 -12 1 -24 1c-49 0 -128 -68 -170 -103l-40 -381h-76zM261 615l-184 119l38 60l177 -129z" />
    <glyph glyph-name="sacute" unicode="&#x15b;" horiz-adv-x="417" 
d="M206 618l-30 48l186 135l38 -60zM154 -9c-51 0 -101 4 -149 25l22 66c41 -15 85 -25 132 -25c41 0 122 12 122 80c0 107 -211 130 -211 270c0 111 85 149 179 149c50 0 110 -14 142 -30l-23 -59c-47 17 -80 26 -129 26c-47 0 -97 -18 -97 -75c0 -107 213 -128 213 -278
c0 -115 -111 -149 -201 -149z" />
    <glyph glyph-name="scedilla" unicode="&#x15f;" horiz-adv-x="417" 
d="M154 -9c-51 0 -101 4 -149 25l22 66c41 -15 85 -25 132 -25c41 0 122 12 122 80c0 107 -211 130 -211 270c0 111 85 149 179 149c50 0 110 -14 142 -30l-23 -59c-47 17 -80 26 -129 26c-47 0 -97 -18 -97 -75c0 -107 213 -128 213 -278c0 -115 -111 -149 -201 -149z
M89 -239l-21 44c45 26 62 51 66 77c2 21 -6 43 -16 67h74c10 -20 15 -43 13 -66c-4 -44 -34 -88 -116 -122z" />
    <glyph glyph-name="scaron" unicode="&#x161;" horiz-adv-x="417" 
d="M253 616l-161 116l37 50l132 -93l153 91l29 -48zM154 -9c-51 0 -101 4 -149 25l22 66c41 -15 85 -25 132 -25c41 0 122 12 122 80c0 107 -211 130 -211 270c0 111 85 149 179 149c50 0 110 -14 142 -30l-23 -59c-47 17 -80 26 -129 26c-47 0 -97 -18 -97 -75
c0 -107 213 -128 213 -278c0 -115 -111 -149 -201 -149z" />
    <glyph glyph-name="scircumflex" unicode="&#x15d;" horiz-adv-x="417" 
d="M392 621l-132 90l-151 -90l-32 50l191 115l160 -115zM154 -9c-51 0 -101 4 -149 25l22 66c41 -15 85 -25 132 -25c41 0 122 12 122 80c0 107 -211 130 -211 270c0 111 85 149 179 149c50 0 110 -14 142 -30l-23 -59c-47 17 -80 26 -129 26c-47 0 -97 -18 -97 -75
c0 -107 213 -128 213 -278c0 -115 -111 -149 -201 -149z" />
    <glyph glyph-name="uni00730331" horiz-adv-x="417" 
d="M154 -9c-51 0 -101 4 -149 25l22 66c41 -15 85 -25 132 -25c41 0 122 12 122 80c0 107 -211 130 -211 270c0 111 85 149 179 149c50 0 110 -14 142 -30l-23 -59c-47 17 -80 26 -129 26c-47 0 -97 -18 -97 -75c0 -107 213 -128 213 -278c0 -115 -111 -149 -201 -149z
M10 -192l7 63h261l-7 -63h-261z" />
    <glyph glyph-name="uni00730300" horiz-adv-x="417" 
d="M154 -9c-51 0 -101 4 -149 25l22 66c41 -15 85 -25 132 -25c41 0 122 12 122 80c0 107 -211 130 -211 270c0 111 85 149 179 149c50 0 110 -14 142 -30l-23 -59c-47 17 -80 26 -129 26c-47 0 -97 -18 -97 -75c0 -107 213 -128 213 -278c0 -115 -111 -149 -201 -149z
M302 614l-184 119l38 60l177 -129z" />
    <glyph glyph-name="uni1E61" unicode="&#x1e61;" horiz-adv-x="417" 
d="M154 -9c-51 0 -101 4 -149 25l22 66c41 -15 85 -25 132 -25c41 0 122 12 122 80c0 107 -211 130 -211 270c0 111 85 149 179 149c50 0 110 -14 142 -30l-23 -59c-47 17 -80 26 -129 26c-47 0 -97 -18 -97 -75c0 -107 213 -128 213 -278c0 -115 -111 -149 -201 -149z
M252 652l-58 63l72 63l59 -63z" />
    <glyph glyph-name="uni00730306" horiz-adv-x="417" 
d="M154 -9c-51 0 -101 4 -149 25l22 66c41 -15 85 -25 132 -25c41 0 122 12 122 80c0 107 -211 130 -211 270c0 111 85 149 179 149c50 0 110 -14 142 -30l-23 -59c-47 17 -80 26 -129 26c-47 0 -97 -18 -97 -75c0 -107 213 -128 213 -278c0 -115 -111 -149 -201 -149z
M246 645c-64 0 -117 45 -136 81l44 39c18 -27 50 -58 100 -58c56 0 92 31 112 57l34 -37c-24 -31 -74 -82 -154 -82z" />
    <glyph glyph-name="uni1E63" unicode="&#x1e63;" horiz-adv-x="417" 
d="M133 -227l-58 63l72 63l60 -63zM154 -9c-51 0 -101 4 -149 25l22 66c41 -15 85 -25 132 -25c41 0 122 12 122 80c0 107 -211 130 -211 270c0 111 85 149 179 149c50 0 110 -14 142 -30l-23 -59c-47 17 -80 26 -129 26c-47 0 -97 -18 -97 -75c0 -107 213 -128 213 -278
c0 -115 -111 -149 -201 -149z" />
    <glyph glyph-name="scommaaccent" unicode="&#x219;" horiz-adv-x="417" 
d="M78 -261l44 202h72l-55 -202h-61zM154 -9c-51 0 -101 4 -149 25l22 66c41 -15 85 -25 132 -25c41 0 122 12 122 80c0 107 -211 130 -211 270c0 111 85 149 179 149c50 0 110 -14 142 -30l-23 -59c-47 17 -80 26 -129 26c-47 0 -97 -18 -97 -75c0 -107 213 -128 213 -278
c0 -115 -111 -149 -201 -149z" />
    <glyph glyph-name="germandbls" unicode="&#xdf;" horiz-adv-x="578" 
d="M25 -205l81 778c16 150 112 201 223 201c69 0 164 -44 164 -149c0 -107 -138 -166 -138 -218c0 -86 180 -120 180 -268c0 -112 -113 -149 -191 -149c-74 0 -114 15 -143 25l19 64c28 -10 77 -21 120 -21c64 0 119 31 119 71c0 119 -178 141 -178 272
c0 91 135 131 135 225c0 48 -45 81 -96 81c-96 0 -130 -53 -138 -135l-82 -777h-75z" />
    <glyph glyph-name="tbar" unicode="&#x167;" horiz-adv-x="373" 
d="M37 291l6 58h60l15 133h-80l7 64h81l11 112h75l-11 -112h169l-6 -64h-170l-15 -133h151l-6 -58h-151l-16 -154c-7 -59 11 -80 45 -80c31 0 77 14 114 33l17 -58c-32 -21 -87 -44 -152 -44c-58 0 -100 30 -102 106c-1 13 -1 26 1 41l17 156h-60z" />
    <glyph glyph-name="tcaron" unicode="&#x165;" horiz-adv-x="373" 
d="M276 608l44 202h72l-55 -202h-61zM181 -12c-58 0 -100 30 -102 106c-1 13 -1 26 1 41l38 347h-80l7 64h81l11 112h75l-11 -112h169l-6 -64h-170l-37 -345c-7 -59 11 -80 45 -80c31 0 77 14 114 33l17 -58c-32 -21 -87 -44 -152 -44z" />
    <glyph glyph-name="uni021B" unicode="&#x21b;" horiz-adv-x="375" 
d="M109 -261l44 202h72l-55 -202h-61zM181 -12c-58 0 -100 30 -102 106c-1 13 -1 26 1 41l38 347h-80l7 64h81l11 112h75l-11 -112h169l-6 -64h-170l-37 -345c-7 -59 11 -80 45 -80c31 0 77 14 114 33l17 -58c-32 -21 -87 -44 -152 -44z" />
    <glyph glyph-name="tcommaaccent" unicode="&#x163;" horiz-adv-x="375" 
d="M109 -261l44 202h72l-55 -202h-61zM181 -12c-58 0 -100 30 -102 106c-1 13 -1 26 1 41l38 347h-80l7 64h81l11 112h75l-11 -112h169l-6 -64h-170l-37 -345c-7 -59 11 -80 45 -80c31 0 77 14 114 33l17 -58c-32 -21 -87 -44 -152 -44z" />
    <glyph glyph-name="uni1E6F" unicode="&#x1e6f;" horiz-adv-x="375" 
d="M181 -12c-58 0 -100 30 -102 106c-1 13 -1 26 1 41l38 347h-80l7 64h81l11 112h75l-11 -112h169l-6 -64h-170l-37 -345c-7 -59 11 -80 45 -80c31 0 77 14 114 33l17 -58c-32 -21 -87 -44 -152 -44zM45 -192l7 63h261l-7 -63h-261z" />
    <glyph glyph-name="uni1E6D" unicode="&#x1e6d;" horiz-adv-x="375" 
d="M170 -227l-58 63l72 63l60 -63zM181 -12c-58 0 -100 30 -102 106c-1 13 -1 26 1 41l38 347h-80l7 64h81l11 112h75l-11 -112h169l-6 -64h-170l-37 -345c-7 -59 11 -80 45 -80c31 0 77 14 114 33l17 -58c-32 -21 -87 -44 -152 -44z" />
    <glyph glyph-name="uni1E97" unicode="&#x1e97;" horiz-adv-x="373" 
d="M81 674l-51 56l62 56l51 -56zM276 674l-49 56l61 56l51 -56zM181 -12c-58 0 -100 30 -102 106c-1 13 -1 26 1 41l38 347h-80l7 64h81l11 112h75l-11 -112h169l-6 -64h-170l-37 -345c-7 -59 11 -80 45 -80c31 0 77 14 114 33l17 -58c-32 -21 -87 -44 -152 -44z" />
    <glyph glyph-name="uni1E6B" unicode="&#x1e6b;" horiz-adv-x="373" 
d="M185 745l-59 64l73 63l60 -63zM181 -12c-58 0 -100 30 -102 106c-1 13 -1 26 1 41l38 347h-80l7 64h81l11 112h75l-11 -112h169l-6 -64h-170l-37 -345c-7 -59 11 -80 45 -80c31 0 77 14 114 33l17 -58c-32 -21 -87 -44 -152 -44z" />
    <glyph glyph-name="uacute" unicode="&#xfa;" horiz-adv-x="525" 
d="M256 618l-30 48l186 135l38 -60zM159 -11c-75 0 -104 33 -104 112c0 14 1 31 3 48l43 397h76l-42 -378c-2 -21 -3 -39 -3 -53c0 -45 12 -60 47 -60c63 0 123 52 175 103l42 388h76l-58 -546h-76l9 90c-57 -57 -112 -101 -188 -101z" />
    <glyph glyph-name="ugrave" unicode="&#xf9;" horiz-adv-x="525" 
d="M159 -11c-75 0 -104 33 -104 112c0 14 1 31 3 48l43 397h76l-42 -378c-2 -21 -3 -39 -3 -53c0 -45 12 -60 47 -60c63 0 123 52 175 103l42 388h76l-58 -546h-76l9 90c-57 -57 -112 -101 -188 -101zM342 614l-184 119l38 60l177 -129z" />
    <glyph glyph-name="ucircumflex" unicode="&#xfb;" horiz-adv-x="525" 
d="M444 621l-132 90l-151 -90l-32 50l191 115l160 -115zM159 -11c-75 0 -104 33 -104 112c0 14 1 31 3 48l43 397h76l-42 -378c-2 -21 -3 -39 -3 -53c0 -45 12 -60 47 -60c63 0 123 52 175 103l42 388h76l-58 -546h-76l9 90c-57 -57 -112 -101 -188 -101z" />
    <glyph glyph-name="udieresis" unicode="&#xfc;" horiz-adv-x="525" 
d="M200 658l-51 56l62 56l51 -56zM395 658l-49 56l61 56l51 -56zM159 -11c-75 0 -104 33 -104 112c0 14 1 31 3 48l43 397h76l-42 -378c-2 -21 -3 -39 -3 -53c0 -45 12 -60 47 -60c63 0 123 52 175 103l42 388h76l-58 -546h-76l9 90c-57 -57 -112 -101 -188 -101z" />
    <glyph glyph-name="ubreve" unicode="&#x16d;" horiz-adv-x="525" 
d="M159 -11c-75 0 -104 33 -104 112c0 14 1 31 3 48l43 397h76l-42 -378c-2 -21 -3 -39 -3 -53c0 -45 12 -60 47 -60c63 0 123 52 175 103l42 388h76l-58 -546h-76l9 90c-57 -57 -112 -101 -188 -101zM305 645c-64 0 -117 45 -136 81l44 39c18 -27 50 -58 100 -58
c56 0 92 31 112 57l34 -37c-24 -31 -74 -82 -154 -82z" />
    <glyph glyph-name="uhungarumlaut" unicode="&#x171;" horiz-adv-x="525" 
d="M159 -11c-75 0 -104 33 -104 112c0 14 1 31 3 48l43 397h76l-42 -378c-2 -21 -3 -39 -3 -53c0 -45 12 -60 47 -60c63 0 123 52 175 103l42 388h76l-58 -546h-76l9 90c-57 -57 -112 -101 -188 -101zM171 617l-26 45l197 142l38 -61zM401 621l-28 46l188 124l35 -61z" />
    <glyph glyph-name="umacron" unicode="&#x16b;" horiz-adv-x="525" 
d="M159 -11c-75 0 -104 33 -104 112c0 14 1 31 3 48l43 397h76l-42 -378c-2 -21 -3 -39 -3 -53c0 -45 12 -60 47 -60c63 0 123 52 175 103l42 388h76l-58 -546h-76l9 90c-57 -57 -112 -101 -188 -101zM170 670l7 64h261l-7 -64h-261z" />
    <glyph glyph-name="uogonek" unicode="&#x173;" horiz-adv-x="524" 
d="M333 -225c-89 0 -108 47 -104 103c4 53 62 103 110 133l8 79c-40 -39 -107 -101 -188 -101c-75 0 -104 33 -104 112c0 14 1 31 3 48l43 397h76l-42 -378c-2 -24 -4 -43 -4 -59c1 -40 13 -54 48 -54c63 0 140 72 175 103l42 388h76l-59 -546c-40 -23 -109 -72 -113 -114
c-4 -39 21 -48 58 -48c20 0 39 5 45 8l12 -55c-14 -8 -30 -16 -82 -16z" />
    <glyph glyph-name="uring" unicode="&#x16f;" horiz-adv-x="525" 
d="M304 615c-54 0 -101 30 -101 83c0 69 54 114 120 114c53 0 99 -34 99 -86c0 -68 -52 -111 -118 -111zM307 656c36 0 64 24 64 61c0 32 -23 52 -53 52c-38 0 -64 -25 -64 -62c0 -32 22 -51 53 -51zM159 -11c-75 0 -104 33 -104 112c0 14 1 31 3 48l43 397h76l-42 -378
c-2 -21 -3 -39 -3 -53c0 -45 12 -60 47 -60c63 0 123 52 175 103l42 388h76l-58 -546h-76l9 90c-57 -57 -112 -101 -188 -101z" />
    <glyph glyph-name="utilde" unicode="&#x169;" horiz-adv-x="525" 
d="M159 -11c-75 0 -104 33 -104 112c0 14 1 31 3 48l43 397h76l-42 -378c-2 -21 -3 -39 -3 -53c0 -45 12 -60 47 -60c63 0 123 52 175 103l42 388h76l-58 -546h-76l9 90c-57 -57 -112 -101 -188 -101zM384 646c-40 0 -86 36 -122 36c-31 0 -46 -6 -70 -24l-29 42
c11 11 44 47 105 47c49 0 82 -36 121 -36c34 0 60 18 73 27l27 -43c-10 -11 -47 -49 -105 -49z" />
    <glyph glyph-name="uhorn" unicode="&#x1b0;" horiz-adv-x="546" 
d="M159 -11c-75 0 -104 33 -104 112c0 14 1 31 3 48l43 397h76l-42 -378c-2 -21 -3 -39 -3 -53c0 -45 12 -60 47 -60c63 0 123 52 175 103l42 388h24c50 3 86 23 86 79c0 13 -3 26 -6 40h70c5 -13 6 -27 6 -41c0 -75 -47 -123 -110 -136l-52 -488h-76l9 90
c-57 -57 -112 -101 -188 -101z" />
    <glyph glyph-name="uni1EE7" unicode="&#x1ee7;" horiz-adv-x="525" 
d="M159 -11c-75 0 -104 33 -104 112c0 14 1 31 3 48l43 397h76l-42 -378c-2 -21 -3 -39 -3 -53c0 -45 12 -60 47 -60c63 0 123 52 175 103l42 388h76l-58 -546h-76l9 90c-57 -57 -112 -101 -188 -101zM389 766c0 -75 -61 -117 -93 -130l-36 39c28 12 65 42 65 79
c0 28 -23 37 -40 37c-14 0 -30 -2 -47 -9l2 53c19 8 39 13 66 13c24 0 45 -8 59 -20c16 -15 24 -36 24 -62z" />
    <glyph glyph-name="uni1EE5" unicode="&#x1ee5;" horiz-adv-x="525" 
d="M220 -225l-58 64l72 62l60 -62zM159 -11c-75 0 -104 33 -104 112c0 14 1 31 3 48l43 397h76l-42 -378c-2 -21 -3 -39 -3 -53c0 -45 12 -60 47 -60c63 0 123 52 175 103l42 388h76l-58 -546h-76l9 90c-57 -57 -112 -101 -188 -101z" />
    <glyph glyph-name="uni1EEB" unicode="&#x1eeb;" horiz-adv-x="546" 
d="M159 -11c-75 0 -104 33 -104 112c0 14 1 31 3 48l43 397h76l-42 -378c-2 -21 -3 -39 -3 -53c0 -45 12 -60 47 -60c63 0 123 52 175 103l42 388h24c50 3 86 23 86 79c0 13 -3 26 -6 40h70c5 -13 6 -27 6 -41c0 -75 -47 -123 -110 -136l-52 -488h-76l9 90
c-57 -57 -112 -101 -188 -101zM371 614l-184 119l38 60l177 -129z" />
    <glyph glyph-name="uni1EE9" unicode="&#x1ee9;" horiz-adv-x="546" 
d="M159 -11c-75 0 -104 33 -104 112c0 14 1 31 3 48l43 397h76l-42 -378c-2 -21 -3 -39 -3 -53c0 -45 12 -60 47 -60c63 0 123 52 175 103l42 388h24c50 3 86 23 86 79c0 13 -3 26 -6 40h70c5 -13 6 -27 6 -41c0 -75 -47 -123 -110 -136l-52 -488h-76l9 90
c-57 -57 -112 -101 -188 -101zM295 618l-30 48l186 135l38 -60z" />
    <glyph glyph-name="uni1EEF" unicode="&#x1eef;" horiz-adv-x="546" 
d="M159 -11c-75 0 -104 33 -104 112c0 14 1 31 3 48l43 397h76l-42 -378c-2 -21 -3 -39 -3 -53c0 -45 12 -60 47 -60c63 0 123 52 175 103l42 388h24c50 3 86 23 86 79c0 13 -3 26 -6 40h70c5 -13 6 -27 6 -41c0 -75 -47 -123 -110 -136l-52 -488h-76l9 90
c-57 -57 -112 -101 -188 -101zM367 648c-40 0 -86 36 -122 36c-31 0 -46 -6 -70 -24l-29 42c11 11 44 47 105 47c49 0 82 -36 121 -36c34 0 60 18 73 27l27 -43c-10 -11 -47 -49 -105 -49z" />
    <glyph glyph-name="uni1EED" unicode="&#x1eed;" horiz-adv-x="546" 
d="M159 -11c-75 0 -104 33 -104 112c0 14 1 31 3 48l43 397h76l-42 -378c-2 -21 -3 -39 -3 -53c0 -45 12 -60 47 -60c63 0 123 52 175 103l42 388h24c50 3 86 23 86 79c0 13 -3 26 -6 40h70c5 -13 6 -27 6 -41c0 -75 -47 -123 -110 -136l-52 -488h-76l9 90
c-57 -57 -112 -101 -188 -101zM395 766c0 -75 -61 -117 -93 -130l-36 39c28 12 65 42 65 79c0 28 -23 37 -40 37c-14 0 -30 -2 -47 -9l2 53c19 8 39 13 66 13c24 0 45 -8 59 -20c16 -15 24 -36 24 -62z" />
    <glyph glyph-name="uni1EF1" unicode="&#x1ef1;" horiz-adv-x="546" 
d="M159 -11c-75 0 -104 33 -104 112c0 14 1 31 3 48l43 397h76l-42 -378c-2 -21 -3 -39 -3 -53c0 -45 12 -60 47 -60c63 0 123 52 175 103l42 388h24c50 3 86 23 86 79c0 13 -3 26 -6 40h70c5 -13 6 -27 6 -41c0 -75 -47 -123 -110 -136l-52 -488h-76l9 90
c-57 -57 -112 -101 -188 -101zM216 -225l-58 64l72 62l60 -62z" />
    <glyph glyph-name="uni01D4" unicode="&#x1d4;" horiz-adv-x="525" 
d="M293 616l-161 116l37 50l132 -93l153 91l29 -48zM159 -11c-75 0 -104 33 -104 112c0 14 1 31 3 48l43 397h76l-42 -378c-2 -21 -3 -39 -3 -53c0 -45 12 -60 47 -60c63 0 123 52 175 103l42 388h76l-58 -546h-76l9 90c-57 -57 -112 -101 -188 -101z" />
    <glyph glyph-name="uni01D6" unicode="&#x1d6;" horiz-adv-x="525" 
d="M200 638l-51 56l62 56l51 -56zM395 638l-49 56l61 56l51 -56zM180 787l7 64h261l-7 -64h-261zM159 -11c-75 0 -104 33 -104 112c0 14 1 31 3 48l43 397h76l-42 -378c-2 -21 -3 -39 -3 -53c0 -45 12 -60 47 -60c63 0 123 52 175 103l42 388h76l-58 -546h-76l9 90
c-57 -57 -112 -101 -188 -101z" />
    <glyph glyph-name="uni01D8" unicode="&#x1d8;" horiz-adv-x="525" 
d="M200 638l-51 56l62 56l51 -56zM395 638l-49 56l61 56l51 -56zM284 754l-30 48l186 135l38 -60zM159 -11c-75 0 -104 33 -104 112c0 14 1 31 3 48l43 397h76l-42 -378c-2 -21 -3 -39 -3 -53c0 -45 12 -60 47 -60c63 0 123 52 175 103l42 388h76l-58 -546h-76l9 90
c-57 -57 -112 -101 -188 -101z" />
    <glyph glyph-name="uni01DA" unicode="&#x1da;" horiz-adv-x="525" 
d="M200 638l-51 56l62 56l51 -56zM395 638l-49 56l61 56l51 -56zM159 -11c-75 0 -104 33 -104 112c0 14 1 31 3 48l43 397h76l-42 -378c-2 -21 -3 -39 -3 -53c0 -45 12 -60 47 -60c63 0 123 52 175 103l42 388h76l-58 -546h-76l9 90c-57 -57 -112 -101 -188 -101zM311 752
l-161 116l37 50l131 -93l153 91l30 -48z" />
    <glyph glyph-name="uni01DC" unicode="&#x1dc;" horiz-adv-x="525" 
d="M200 638l-51 56l62 56l51 -56zM395 638l-49 56l61 56l51 -56zM159 -11c-75 0 -104 33 -104 112c0 14 1 31 3 48l43 397h76l-42 -378c-2 -21 -3 -39 -3 -53c0 -45 12 -60 47 -60c63 0 123 52 175 103l42 388h76l-58 -546h-76l9 90c-57 -57 -112 -101 -188 -101zM319 745
l-184 119l38 60l177 -129z" />
    <glyph glyph-name="uni00760304" horiz-adv-x="473" 
d="M142 670l7 64h261l-7 -64h-261zM135 0l-92 546h83l71 -492l146 307c25 54 45 124 45 166c0 7 -1 13 -2 19h78c1 -3 1 -15 1 -19c0 -51 -21 -119 -48 -174l-171 -353h-111z" />
    <glyph glyph-name="uni1E7F" unicode="&#x1e7f;" horiz-adv-x="472" 
d="M173 -227l-58 63l72 63l60 -63zM135 0l-92 546h83l71 -492l146 307c25 54 45 124 45 166c0 7 -1 13 -2 19h78c1 -3 1 -15 1 -19c0 -51 -21 -119 -48 -174l-171 -353h-111z" />
    <glyph glyph-name="uni1E7D" unicode="&#x1e7d;" horiz-adv-x="473" 
d="M135 0l-92 546h83l71 -492l146 307c25 54 45 124 45 166c0 7 -1 13 -2 19h78c1 -3 1 -15 1 -19c0 -51 -21 -119 -48 -174l-171 -353h-111zM323 646c-40 0 -86 36 -122 36c-31 0 -46 -6 -70 -24l-29 42c11 11 44 47 105 47c49 0 82 -36 121 -36c34 0 60 18 73 27l27 -43
c-10 -11 -47 -49 -105 -49z" />
    <glyph glyph-name="wacute" unicode="&#x1e83;" horiz-adv-x="776" 
d="M360 618l-30 48l186 135l38 -60zM135 0l-91 546h82l71 -492l180 313l-30 179h82l71 -492c6 10 146 307 146 307c26 54 44 122 44 165c0 7 0 14 -1 20h79c0 -3 1 -16 1 -19c0 -51 -22 -120 -48 -174l-171 -353h-113l-44 273l-157 -273h-101z" />
    <glyph glyph-name="wcircumflex" unicode="&#x175;" horiz-adv-x="776" 
d="M554 621l-132 90l-151 -90l-32 50l191 115l160 -115zM135 0l-91 546h82l71 -492l180 313l-30 179h82l71 -492c6 10 146 307 146 307c26 54 44 122 44 165c0 7 0 14 -1 20h79c0 -3 1 -16 1 -19c0 -51 -22 -120 -48 -174l-171 -353h-113l-44 273l-157 -273h-101z" />
    <glyph glyph-name="wdieresis" unicode="&#x1e85;" horiz-adv-x="776" 
d="M306 658l-51 56l62 56l51 -56zM501 658l-49 56l61 56l51 -56zM135 0l-91 546h82l71 -492l180 313l-30 179h82l71 -492c6 10 146 307 146 307c26 54 44 122 44 165c0 7 0 14 -1 20h79c0 -3 1 -16 1 -19c0 -51 -22 -120 -48 -174l-171 -353h-113l-44 273l-157 -273h-101z
" />
    <glyph glyph-name="wgrave" unicode="&#x1e81;" horiz-adv-x="776" 
d="M458 615l-184 119l38 60l177 -129zM135 0l-91 546h82l71 -492l180 313l-30 179h82l71 -492c6 10 146 307 146 307c26 54 44 122 44 165c0 7 0 14 -1 20h79c0 -3 1 -16 1 -19c0 -51 -22 -120 -48 -174l-171 -353h-113l-44 273l-157 -273h-101z" />
    <glyph glyph-name="uni1E87" unicode="&#x1e87;" horiz-adv-x="776" 
d="M135 0l-91 546h82l71 -492l180 313l-30 179h82l71 -492c6 10 146 307 146 307c26 54 44 122 44 165c0 7 0 14 -1 20h79c0 -3 1 -16 1 -19c0 -51 -22 -120 -48 -174l-171 -353h-113l-44 273l-157 -273h-101zM408 652l-58 63l72 63l59 -63z" />
    <glyph glyph-name="uni1E89" unicode="&#x1e89;" horiz-adv-x="775" 
d="M327 -227l-58 63l72 63l60 -63zM134 0l-91 546h82l71 -492l180 313l-30 179h82l71 -492c6 10 146 307 146 307c26 54 44 122 44 165c0 7 0 14 -1 20h79c0 -3 1 -16 1 -19c0 -51 -22 -120 -48 -174l-171 -353h-113l-44 273l-157 -273h-101z" />
    <glyph glyph-name="uni00780304" horiz-adv-x="460" 
d="M-24 0l218 291l-114 255h81l83 -192l138 192h83l-192 -257l126 -289h-82l-93 224l-163 -224h-85zM148 670l7 64h261l-7 -64h-261z" />
    <glyph glyph-name="uni1E8B" unicode="&#x1e8b;" horiz-adv-x="460" 
d="M-24 0l218 291l-114 255h81l83 -192l138 192h83l-192 -257l126 -289h-82l-93 224l-163 -224h-85zM282 652l-58 63l72 63l59 -63z" />
    <glyph glyph-name="ydieresis" unicode="&#xff;" horiz-adv-x="477" 
d="M174 658l-51 56l62 56l51 -56zM369 658l-49 56l61 56l51 -56zM66 -220l107 220h-41l-85 546h82l70 -492c5 9 147 307 147 307c27 54 45 124 45 166c0 7 -1 13 -1 19h79c0 -3 1 -16 1 -19c0 -50 -22 -119 -48 -174l-277 -573h-79z" />
    <glyph glyph-name="ycircumflex" unicode="&#x177;" horiz-adv-x="477" 
d="M406 621l-132 90l-151 -90l-32 50l191 115l160 -115zM66 -220l107 220h-41l-85 546h82l70 -492c5 9 147 307 147 307c27 54 45 124 45 166c0 7 -1 13 -1 19h79c0 -3 1 -16 1 -19c0 -50 -22 -119 -48 -174l-277 -573h-79z" />
    <glyph glyph-name="uni0233" unicode="&#x233;" horiz-adv-x="477" 
d="M66 -220l107 220h-41l-85 546h82l70 -492c5 9 147 307 147 307c27 54 45 124 45 166c0 7 -1 13 -1 19h79c0 -3 1 -16 1 -19c0 -50 -22 -119 -48 -174l-277 -573h-79zM140 670l7 64h261l-7 -64h-261z" />
    <glyph glyph-name="ygrave" unicode="&#x1ef3;" horiz-adv-x="477" 
d="M66 -220l107 220h-41l-85 546h82l70 -492c5 9 147 307 147 307c27 54 45 124 45 166c0 7 -1 13 -1 19h79c0 -3 1 -16 1 -19c0 -50 -22 -119 -48 -174l-277 -573h-79zM322 615l-184 119l38 60l177 -129z" />
    <glyph glyph-name="yacute" unicode="&#xfd;" horiz-adv-x="477" 
d="M66 -220l107 220h-41l-85 546h82l70 -492c5 9 147 307 147 307c27 54 45 124 45 166c0 7 -1 13 -1 19h79c0 -3 1 -16 1 -19c0 -50 -22 -119 -48 -174l-277 -573h-79zM236 618l-30 48l186 135l38 -60z" />
    <glyph glyph-name="uni1E8F" unicode="&#x1e8f;" horiz-adv-x="477" 
d="M66 -220l107 220h-41l-85 546h82l70 -492c5 9 147 307 147 307c27 54 45 124 45 166c0 7 -1 13 -1 19h79c0 -3 1 -16 1 -19c0 -50 -22 -119 -48 -174l-277 -573h-79zM269 652l-58 63l72 63l59 -63z" />
    <glyph glyph-name="uni1EF9" unicode="&#x1ef9;" horiz-adv-x="477" 
d="M66 -220l107 220h-41l-85 546h82l70 -492c5 9 147 307 147 307c27 54 45 124 45 166c0 7 -1 13 -1 19h79c0 -3 1 -16 1 -19c0 -50 -22 -119 -48 -174l-277 -573h-79zM340 646c-40 0 -86 36 -122 36c-31 0 -46 -6 -70 -24l-29 42c11 11 44 47 105 47c49 0 82 -36 121 -36
c34 0 60 18 73 27l27 -43c-10 -11 -47 -49 -105 -49z" />
    <glyph glyph-name="uni1EF7" unicode="&#x1ef7;" horiz-adv-x="477" 
d="M66 -220l107 220h-41l-85 546h82l70 -492c5 9 147 307 147 307c27 54 45 124 45 166c0 7 -1 13 -1 19h79c0 -3 1 -16 1 -19c0 -50 -22 -119 -48 -174l-277 -573h-79zM364 766c0 -75 -61 -117 -93 -130l-36 39c28 12 65 42 65 79c0 28 -23 37 -40 37c-14 0 -30 -2 -47 -9
l2 53c19 8 39 13 66 13c24 0 45 -8 59 -20c16 -15 24 -36 24 -62z" />
    <glyph glyph-name="uni1EF5" unicode="&#x1ef5;" horiz-adv-x="477" 
d="M66 -220l107 220h-41l-85 546h82l70 -492c5 9 147 307 147 307c27 54 45 124 45 166c0 7 -1 13 -1 19h79c0 -3 1 -16 1 -19c0 -50 -22 -119 -48 -174l-277 -573h-79zM322 -225l-58 64l72 62l60 -62z" />
    <glyph glyph-name="zacute" unicode="&#x17a;" horiz-adv-x="460" 
d="M224 618l-30 48l186 135l38 -60zM1 0l7 66l338 414h-268l7 66h356l-7 -63l-342 -418h302l-7 -65h-386z" />
    <glyph glyph-name="zcaron" unicode="&#x17e;" horiz-adv-x="460" 
d="M269 616l-161 116l37 50l132 -93l153 91l29 -48zM1 0l7 66l338 414h-268l7 66h356l-7 -63l-342 -418h302l-7 -65h-386z" />
    <glyph glyph-name="zdotaccent" unicode="&#x17c;" horiz-adv-x="460" 
d="M1 0l7 66l338 414h-268l7 66h356l-7 -63l-342 -418h302l-7 -65h-386zM271 652l-58 63l72 63l59 -63z" />
    <glyph glyph-name="uni1E95" unicode="&#x1e95;" horiz-adv-x="458" 
d="M0 0l7 66l338 414h-268l7 66h356l-7 -63l-342 -418h302l-7 -65h-386zM48 -192l7 63h261l-7 -63h-261z" />
    <glyph glyph-name="uni1E93" unicode="&#x1e93;" horiz-adv-x="458" 
d="M178 -227l-58 63l72 63l60 -63zM0 0l7 66l338 414h-268l7 66h356l-7 -63l-342 -418h302l-7 -65h-386z" />
    <glyph glyph-name="uni007A0324" horiz-adv-x="458" 
d="M112 -224l-50 56l62 56l51 -56zM308 -224l-50 56l62 56l50 -56zM0 0l7 66l338 414h-268l7 66h356l-7 -63l-342 -418h302l-7 -65h-386z" />
    <glyph glyph-name="thorn" unicode="&#xfe;" horiz-adv-x="532" 
d="M21 -220l106 973h76l-30 -276c47 33 121 74 179 74c84 0 134 -43 134 -161c0 -194 -90 -398 -296 -398c-26 0 -49 3 -69 6l-24 -218h-76zM197 57c160 0 211 210 211 332c0 75 -26 97 -64 97c-52 0 -135 -52 -178 -82l-38 -337c29 -5 39 -10 69 -10z" />
    <glyph glyph-name="uni04D9" unicode="&#x4d9;" horiz-adv-x="467" 
d="M288 560c101 0 129 -99 129 -203c0 -197 -90 -370 -263 -370c-96 0 -137 58 -137 125c0 79 71 120 143 146l178 66c1 8 1 20 1 28c0 91 -18 140 -64 140c-54 0 -115 -26 -171 -55l-27 57c58 32 121 66 211 66zM331 258l-159 -63c-50 -20 -81 -48 -81 -80
c0 -46 34 -63 66 -63c111 0 157 105 174 206z" />
    <glyph glyph-name="eth" unicode="&#xf0;" horiz-adv-x="523" 
d="M200 -12c-103 0 -160 93 -160 192c0 230 109 375 266 378c21 0 38 -4 53 -11c-9 27 -20 53 -33 78l-97 -34l-18 48l86 29c-15 20 -31 37 -47 50l49 51c25 -18 47 -41 67 -68l98 34l19 -47l-88 -31c48 -86 75 -190 75 -298c0 -152 -69 -371 -270 -371zM224 54
c100 0 168 141 168 304c0 91 -31 138 -107 138c-93 0 -165 -150 -165 -301c0 -61 16 -141 104 -141z" />
    <glyph glyph-name="uni01C6" unicode="&#x1c6;" horiz-adv-x="966" 
d="M144 -13c-82 0 -107 84 -107 178c0 226 138 386 323 385h25l22 204h76l-81 -754h-76l11 99c-67 -67 -134 -112 -193 -112zM507 0l7 66l338 414h-268l7 66h356l-7 -63l-342 -418h302l-7 -65h-386zM163 59c54 0 138 71 181 116l33 310c-9 1 -24 1 -43 1
c-123 1 -221 -153 -221 -301c0 -105 20 -126 50 -126zM767 616l-161 116l37 50l132 -93l153 91l29 -48z" />
    <glyph glyph-name="uni01C9" unicode="&#x1c9;" horiz-adv-x="497" 
d="M188 -220c-30 0 -62 8 -75 13l19 65c13 -4 39 -11 65 -11c83 0 103 54 111 136l60 563h76l-60 -564c-16 -158 -94 -202 -196 -202zM46 0l79 754h77l-80 -754h-76zM413 652l-58 63l72 63l59 -63z" />
    <glyph glyph-name="uni01CC" unicode="&#x1cc;" horiz-adv-x="787" 
d="M478 -220c-30 0 -62 8 -75 13l19 65c13 -4 39 -11 65 -11c83 0 103 54 111 136l60 563h76l-60 -564c-16 -158 -94 -202 -196 -202zM703 652l-58 63l72 63l59 -63zM47 0l57 546h77l-9 -90c61 52 121 104 198 104c71 0 94 -33 94 -105c0 -18 -1 -38 -3 -61l-43 -394h-76
l41 378c3 20 4 38 4 52c0 42 -11 58 -44 58c-42 0 -94 -31 -179 -101l-41 -387h-76z" />
    <glyph glyph-name="uni01F3" unicode="&#x1f3;" horiz-adv-x="966" 
d="M144 -13c-82 0 -107 84 -107 178c0 226 138 386 323 385h25l22 204h76l-81 -754h-76l11 99c-67 -67 -134 -112 -193 -112zM507 0l7 66l338 414h-268l7 66h356l-7 -63l-342 -418h302l-7 -65h-386zM163 59c54 0 138 71 181 116l33 310c-9 1 -24 1 -43 1
c-123 1 -221 -153 -221 -301c0 -105 20 -126 50 -126z" />
    <glyph glyph-name="uni021D" unicode="&#x21d;" horiz-adv-x="462" 
d="M105 181l6 62l232 234h-297l7 69h387l-7 -64l-244 -245c109 -14 203 -83 203 -185c0 -175 -201 -266 -381 -281l-7 64c150 17 305 80 305 206c0 91 -110 133 -204 140z" />
    <glyph glyph-name="uni01EF" unicode="&#x1ef;" horiz-adv-x="462" 
d="M105 181l6 62l232 234h-297l7 69h387l-7 -64l-244 -245c109 -14 203 -83 203 -185c0 -175 -201 -266 -381 -281l-7 64c150 17 305 80 305 206c0 91 -110 133 -204 140zM251 616l-161 116l37 50l132 -93l153 91l29 -48z" />
    <glyph glyph-name="uni0138" unicode="&#x138;" horiz-adv-x="482" 
d="M365 -14l-191 303l202 257h90l-205 -255l180 -280zM47 0l57 546h76l-57 -546h-76z" />
    <glyph glyph-name="uni01DD" unicode="&#x1dd;" horiz-adv-x="475" 
d="M292 561c101 0 129 -100 129 -204c0 -196 -90 -369 -263 -369c-97 0 -137 58 -137 125c0 79 71 120 143 146l178 66v27c0 92 -17 141 -63 141c-55 0 -115 -26 -171 -55l-27 57c57 32 121 66 211 66zM335 258l-159 -62c-50 -20 -81 -49 -81 -80c0 -47 34 -63 66 -63
c111 0 156 105 174 205z" />
    <glyph glyph-name="uni0259" unicode="&#x259;" horiz-adv-x="475" 
d="M292 561c101 0 129 -100 129 -204c0 -196 -90 -369 -263 -369c-97 0 -137 58 -137 125c0 79 71 120 143 146l178 66v27c0 92 -17 141 -63 141c-55 0 -115 -26 -171 -55l-27 57c57 32 121 66 211 66zM335 258l-159 -62c-50 -20 -81 -49 -81 -80c0 -47 34 -63 66 -63
c111 0 156 105 174 205z" />
    <glyph glyph-name="ae" unicode="&#xe6;" horiz-adv-x="767" 
d="M144 -13c-77 0 -108 77 -108 178c0 222 139 386 323 386c33 0 71 -4 93 -8l-7 -62c40 49 93 80 162 80c103 0 136 -57 136 -124c0 -79 -71 -120 -143 -146l-177 -66c0 -9 -1 -19 -1 -27c0 -92 19 -142 65 -142c54 0 115 29 170 55l27 -57c-57 -32 -120 -66 -211 -66
c-76 0 -109 54 -120 125c-77 -76 -147 -126 -209 -126zM163 59c48 0 151 90 179 117l33 307l-41 2c-122 4 -221 -151 -221 -300c0 -105 20 -126 50 -126zM431 292l157 62c50 21 81 49 81 80c0 46 -33 62 -65 62c-111 0 -157 -106 -173 -204z" />
    <glyph glyph-name="aeacute" unicode="&#x1fd;" horiz-adv-x="767" 
d="M144 -13c-77 0 -108 77 -108 178c0 222 139 386 323 386c33 0 71 -4 93 -8l-7 -62c40 49 93 80 162 80c103 0 136 -57 136 -124c0 -79 -71 -120 -143 -146l-177 -66c0 -9 -1 -19 -1 -27c0 -92 19 -142 65 -142c54 0 115 29 170 55l27 -57c-57 -32 -120 -66 -211 -66
c-76 0 -109 54 -120 125c-77 -76 -147 -126 -209 -126zM163 59c48 0 151 90 179 117l33 307l-41 2c-122 4 -221 -151 -221 -300c0 -105 20 -126 50 -126zM431 292l157 62c50 21 81 49 81 80c0 46 -33 62 -65 62c-111 0 -157 -106 -173 -204zM410 618l-30 48l186 135l38 -60z
" />
    <glyph glyph-name="uni01E3" unicode="&#x1e3;" horiz-adv-x="767" 
d="M144 -13c-77 0 -108 77 -108 178c0 222 139 386 323 386c33 0 71 -4 93 -8l-7 -62c40 49 93 80 162 80c103 0 136 -57 136 -124c0 -79 -71 -120 -143 -146l-177 -66c0 -9 -1 -19 -1 -27c0 -92 19 -142 65 -142c54 0 115 29 170 55l27 -57c-57 -32 -120 -66 -211 -66
c-76 0 -109 54 -120 125c-77 -76 -147 -126 -209 -126zM163 59c48 0 151 90 179 117l33 307l-41 2c-122 4 -221 -151 -221 -300c0 -105 20 -126 50 -126zM431 292l157 62c50 21 81 49 81 80c0 46 -33 62 -65 62c-111 0 -157 -106 -173 -204zM333 670l7 64h261l-7 -64h-261z
" />
    <glyph glyph-name="oe" unicode="&#x153;" horiz-adv-x="801" 
d="M200 -12c-103 0 -160 88 -160 192c0 232 111 380 272 380c73 0 118 -48 139 -105c44 65 107 106 190 106c97 0 136 -57 136 -124c0 -79 -71 -120 -143 -146l-177 -66c-1 -8 -1 -19 -1 -27c0 -92 18 -142 64 -142c54 0 115 26 171 55l27 -57c-58 -32 -121 -66 -211 -66
c-65 0 -99 45 -114 107c-42 -63 -105 -107 -193 -107zM219 54c92 0 172 126 172 304c0 95 -29 138 -102 138c-86 0 -170 -127 -170 -301c0 -63 13 -141 100 -141zM464 292l158 62c50 21 81 49 81 80c0 46 -33 62 -65 62c-111 0 -157 -106 -174 -204z" />
    <glyph glyph-name="ij" unicode="&#x133;" horiz-adv-x="480" 
d="M171 -220c-30 0 -62 8 -75 13l19 65c13 -4 39 -11 65 -11c83 0 103 54 111 136l60 563h76l-60 -564c-16 -158 -94 -202 -196 -202zM47 0l57 546h76l-57 -546h-76zM155 652l-58 63l72 63l59 -63zM401 652l-58 63l72 63l59 -63z" />
    <glyph glyph-name="iacute_jacute" horiz-adv-x="480" 
d="M120 618l-36 44l183 153l45 -57zM367 618l-31 48l195 138l37 -62zM171 -220c-30 0 -62 8 -75 13l19 65c13 -4 39 -11 65 -11c83 0 103 54 111 136l60 563h76l-60 -564c-16 -158 -94 -202 -196 -202zM47 0l57 546h76l-57 -546h-76z" />
    <glyph glyph-name="comma" unicode="," horiz-adv-x="221" 
d="M-11 -144c37 85 43 112 57 240h89c-10 -100 -19 -147 -79 -240h-67z" />
    <glyph glyph-name="period" unicode="." horiz-adv-x="219" 
d="M34 0l9 87h90l-9 -87h-90z" />
    <glyph glyph-name="ellipsis" unicode="&#x2026;" horiz-adv-x="647" 
d="M33 0l10 89h88l-9 -89h-89zM244 0l9 89h89l-10 -89h-88zM464 0l9 89h89l-10 -89h-88z" />
    <glyph glyph-name="colon" unicode=":" horiz-adv-x="285" 
d="M65 0l10 87h90l-9 -87h-91zM113 459l10 87h90l-10 -87h-90z" />
    <glyph glyph-name="semicolon" unicode=";" horiz-adv-x="282" 
d="M19 -144c37 85 43 112 56 240h89c-10 -100 -19 -147 -79 -240h-66zM111 459l10 87h89l-9 -87h-90z" />
    <glyph glyph-name="question" unicode="?" horiz-adv-x="354" 
d="M75 163c-4 16 -6 33 -6 50c0 157 182 198 182 304c0 84 -95 119 -166 126l23 66c104 -8 223 -60 223 -181c0 -157 -175 -185 -189 -299c-2 -19 0 -39 1 -57zM52 0l8 85h87l-9 -85h-86z" />
    <glyph glyph-name="questiondown" unicode="&#xbf;" horiz-adv-x="322" 
d="M225 -163c-104 8 -223 60 -223 181c0 157 175 184 189 299c2 19 0 39 -1 57l68 9c4 -16 6 -33 6 -50c0 -157 -182 -198 -182 -305c0 -83 95 -119 166 -125zM186 461l9 85h86l-8 -85h-87z" />
    <glyph glyph-name="questiondown.cap" horiz-adv-x="352" 
d="M259 -3c-105 8 -224 59 -224 181c0 157 175 184 189 299c3 19 1 39 -1 57l69 9c4 -16 6 -33 6 -50c0 -157 -183 -198 -183 -305c0 -84 96 -119 166 -126zM220 621l8 85h87l-8 -85h-87z" />
    <glyph glyph-name="question.smcp" horiz-adv-x="340" 
d="M78 168c-3 14 -6 28 -6 43c0 124 152 169 152 249c0 67 -88 83 -140 93l24 68c87 -10 197 -53 197 -156c0 -128 -159 -147 -159 -259c0 -8 1 -15 2 -23zM51 0l9 85h87l-9 -85h-87z" />
    <glyph glyph-name="questiondown.smcp" horiz-adv-x="301" 
d="M261 546l-8 -85h-87l9 85h86zM241 335c0 -124 -152 -169 -152 -249c0 -67 88 -83 140 -93l-24 -68c-87 10 -197 53 -197 156c0 128 159 147 159 259c0 8 -1 15 -2 23l70 15c3 -14 6 -28 6 -43z" />
    <glyph glyph-name="exclam" unicode="!" horiz-adv-x="275" 
d="M90 170l11 138l42 399h75l-43 -399l-18 -138h-67zM62 0l9 85h87l-9 -85h-87z" />
    <glyph glyph-name="exclamdown" unicode="&#xa1;" horiz-adv-x="242" 
d="M35 -161l42 399l18 138h67l-11 -138l-42 -399h-74zM94 461l9 85h87l-9 -85h-87z" />
    <glyph glyph-name="exclamdown.cap" horiz-adv-x="269" 
d="M65 0l42 399l18 138h67l-10 -138l-43 -399h-74zM125 622l8 85h87l-9 -85h-86z" />
    <glyph glyph-name="exclam.smcp" horiz-adv-x="283" 
d="M94 170l10 138l32 299h75l-32 -299l-17 -138h-68zM66 0l9 85h87l-9 -85h-87z" />
    <glyph glyph-name="exclamdown.smcp" horiz-adv-x="244" 
d="M46 -61l31 299l18 138h68l-10 -138l-32 -299h-75zM96 461l8 85h87l-9 -85h-86z" />
    <glyph glyph-name="uni203D" unicode="&#x203d;" horiz-adv-x="366" 
d="M84 170l11 138l21 209h70l-17 -165c55 50 100 101 100 165c0 84 -102 119 -172 126l23 66c104 -8 223 -60 223 -181c0 -114 -113 -192 -181 -238l-15 -120h-63zM57 0l9 85h86l-8 -85h-87z" />
    <glyph glyph-name="uni203D.smcp" horiz-adv-x="355" 
d="M90 170l10 128l18 164h70l-12 -107c46 35 71 55 71 99c0 71 -81 92 -151 99l23 66c104 -8 200 -44 200 -156c0 -78 -88 -136 -150 -174l-15 -119h-64zM63 0l9 85h87l-9 -85h-87z" />
    <glyph glyph-name="hyphen" unicode="-" horiz-adv-x="485" 
d="M88 254l7 68h298l-7 -68h-298z" />
    <glyph glyph-name="hyphen.cap" horiz-adv-x="474" 
d="M87 316l8 68h298l-8 -68h-298z" />
    <glyph glyph-name="endash" unicode="&#x2013;" horiz-adv-x="628" 
d="M89 255l6 66h440l-6 -66h-440z" />
    <glyph glyph-name="endash.cap" horiz-adv-x="615" 
d="M88 317l6 66h440l-6 -66h-440z" />
    <glyph glyph-name="emdash" unicode="&#x2014;" horiz-adv-x="886" 
d="M89 255l6 66h698l-6 -66h-698z" />
    <glyph glyph-name="emdash.cap" horiz-adv-x="873" 
d="M88 317l6 66h698l-6 -66h-698z" />
    <glyph glyph-name="underscore" unicode="_" horiz-adv-x="562" 
d="M-17 -165l6 68h500l-7 -68h-499z" />
    <glyph glyph-name="at" unicode="@" horiz-adv-x="775" 
d="M323 -72c-175 0 -276 98 -276 274c0 283 168 513 460 513c153 0 238 -78 238 -233c0 -150 -77 -334 -252 -334c-44 0 -75 21 -68 66c-26 -26 -83 -60 -120 -60c-62 0 -84 35 -84 94c0 131 79 252 220 252c32 0 72 -7 102 -22l-50 -223c-2 -8 -4 -18 -4 -25
c0 -12 3 -23 16 -23c130 0 170 163 170 268c0 121 -58 181 -177 181c-255 0 -380 -210 -380 -446c0 -148 75 -217 222 -217c50 0 103 7 152 19l7 -59c-57 -21 -115 -25 -176 -25zM324 215c36 0 82 31 107 56l38 169c-12 3 -24 5 -35 5c-102 0 -145 -97 -145 -186
c0 -26 5 -44 35 -44z" />
    <glyph glyph-name="ampersand" unicode="&#x26;" horiz-adv-x="665" 
d="M690 -98c-110 0 -217 57 -305 142c-43 -30 -99 -53 -175 -53c-97 0 -177 45 -177 155c0 99 70 169 146 227c-15 49 -22 100 -22 143c0 113 56 198 182 198c83 0 138 -46 138 -130c0 -100 -116 -163 -216 -230c76 -200 248 -387 452 -388c7 0 17 0 25 1l3 -61
c-17 -3 -35 -4 -51 -4zM219 57c52 0 91 12 123 31c-60 67 -108 146 -140 224c-54 -44 -92 -94 -92 -159c0 -70 46 -96 109 -96zM241 413c83 55 162 108 162 163c0 41 -27 76 -72 76c-83 0 -103 -62 -103 -132c0 -31 5 -73 13 -107zM449 104l6 64c23 17 51 24 90 24h84
l-8 -65h-82c-41 0 -64 -7 -90 -23z" />
    <glyph glyph-name="ampersand.alt" horiz-adv-x="683" 
d="M680 375c-44 -36 -97 -54 -153 -62c10 -22 12 -47 12 -72c0 -131 -112 -251 -285 -251c-119 0 -212 59 -212 153c0 109 59 177 159 230c-58 44 -93 85 -93 165c0 115 97 176 213 176c78 0 156 -41 164 -120l-75 -13c-7 47 -55 72 -106 72c-69 0 -122 -43 -122 -109
c0 -125 146 -174 273 -174c73 0 137 15 189 48zM268 52c148 0 194 107 194 190c0 18 -4 49 -13 68c-74 1 -137 16 -188 36c-80 -41 -142 -94 -142 -190c0 -66 57 -104 149 -104z" />
    <glyph glyph-name="slash" unicode="/" horiz-adv-x="363" 
d="M-8 -62l319 831h70l-319 -831h-70z" />
    <glyph glyph-name="slash.smcp" horiz-adv-x="321" 
d="M-8 -62l261 678h70l-260 -678h-71z" />
    <glyph glyph-name="backslash" unicode="\" horiz-adv-x="365" 
d="M225 -62l-145 831h70l146 -831h-71z" />
    <glyph glyph-name="backslash.smcp" horiz-adv-x="323" 
d="M183 -62l-119 678h70l120 -678h-71z" />
    <glyph glyph-name="bar" unicode="|" horiz-adv-x="233" 
d="M24 -220l103 974h73l-102 -974h-74z" />
    <glyph glyph-name="parenleft" unicode="(" horiz-adv-x="339" 
d="M207 -222c-114 93 -170 282 -170 422c0 198 95 461 275 569l40 -51c-153 -100 -235 -329 -235 -507c0 -124 45 -295 141 -381z" />
    <glyph glyph-name="parenleft.cap" horiz-adv-x="337" 
d="M217 -153c-114 93 -170 282 -170 422c0 198 95 461 275 569l40 -51c-153 -100 -235 -329 -235 -507c0 -124 45 -295 141 -381z" />
    <glyph glyph-name="parenright" unicode=")" horiz-adv-x="340" 
d="M20 -222l-40 52c148 112 238 344 238 529c0 118 -44 283 -144 359l51 51c117 -80 174 -261 174 -410c0 -205 -104 -460 -279 -581z" />
    <glyph glyph-name="parenright.cap" horiz-adv-x="336" 
d="M20 -153l-40 52c148 112 238 344 238 529c0 118 -44 283 -144 359l51 51c117 -80 174 -261 174 -410c0 -205 -104 -460 -279 -581z" />
    <glyph glyph-name="bracketleft" unicode="[" horiz-adv-x="287" 
d="M24 -220l103 974h176l-6 -64h-100l-89 -846h100l-7 -64h-177z" />
    <glyph glyph-name="bracketleft.cap" horiz-adv-x="295" 
d="M31 -135l103 974h176l-6 -64h-100l-89 -846h100l-7 -64h-177z" />
    <glyph glyph-name="bracketright" unicode="]" horiz-adv-x="286" 
d="M-24 -220l6 64h100l89 846h-100l7 64h177l-103 -974h-176z" />
    <glyph glyph-name="bracketright.cap" horiz-adv-x="292" 
d="M-9 -135l6 64h100l89 846h-100l7 64h177l-103 -974h-176z" />
    <glyph glyph-name="braceleft" unicode="{" horiz-adv-x="331" 
d="M225 -220c-91 0 -175 18 -175 116c0 15 2 31 6 49l42 199c9 41 -20 94 -72 94l7 70c51 0 93 50 93 95v206c0 130 95 164 203 164h20l-7 -64h-23c-80 0 -119 -30 -119 -105l1 -182c0 -85 -40 -132 -100 -146v-2c44 -16 74 -48 74 -103c0 -13 -2 -28 -5 -43l-40 -184
c-2 -10 -3 -20 -3 -28c0 -50 37 -72 101 -72h24l-7 -64h-20z" />
    <glyph glyph-name="braceleft.cap" horiz-adv-x="344" 
d="M234 -140c-91 0 -175 18 -175 116c0 15 2 31 6 49l42 199c9 41 -20 94 -72 94l7 70c51 0 93 50 93 95v206c0 130 95 164 203 164h20l-7 -64h-23c-80 0 -119 -30 -119 -105l1 -182c0 -85 -40 -132 -100 -146v-2c44 -16 74 -48 74 -103c0 -13 -2 -28 -5 -43l-40 -184
c-2 -10 -3 -20 -3 -28c0 -50 37 -72 101 -72h24l-7 -64h-20z" />
    <glyph glyph-name="braceright" unicode="}" horiz-adv-x="331" 
d="M-24 -220l7 64h23c76 0 119 31 119 100l-1 184c0 84 42 125 100 146v2c-46 12 -74 45 -74 101c0 13 1 28 5 45l40 182c2 12 3 23 3 33c0 51 -35 71 -101 71h-24l8 65h20c94 0 174 -26 174 -119c0 -14 -2 -29 -5 -45l-43 -206c-10 -45 21 -95 72 -95l-7 -70
c-52 0 -93 -53 -93 -94l1 -199c1 -142 -99 -165 -204 -165h-20z" />
    <glyph glyph-name="braceright.cap" horiz-adv-x="342" 
d="M-6 -140l7 64h23c76 0 119 31 119 100l-1 184c0 84 42 125 100 146v2c-46 12 -74 45 -74 101c0 13 1 28 5 45l40 182c2 12 3 23 3 33c0 51 -35 71 -101 71h-24l8 65h20c94 0 174 -26 174 -119c0 -14 -2 -29 -5 -45l-43 -206c-10 -45 21 -95 72 -95l-7 -70
c-52 0 -93 -53 -93 -94l1 -199c1 -142 -99 -165 -204 -165h-20z" />
    <glyph glyph-name="uni301A" unicode="&#x301a;" horiz-adv-x="444" 
d="M24 -220l103 974h330l-7 -65h-102l-89 -844h102l-7 -65h-330zM196 689l-90 -844h78l89 844h-77z" />
    <glyph glyph-name="uni301B" unicode="&#x301b;" horiz-adv-x="441" 
d="M410 754l-103 -974h-330l7 65h102l89 844h-102l7 65h330zM238 -155l90 844h-78l-89 -844h77z" />
    <glyph glyph-name="uni301A.cap" horiz-adv-x="434" 
d="M33 -134l103 974h330l-7 -65h-102l-89 -844h102l-7 -65h-330zM205 775l-90 -844h78l89 844h-77z" />
    <glyph glyph-name="uni301B.cap" horiz-adv-x="440" 
d="M418 840l-103 -974h-330l7 65h102l89 844h-102l7 65h330zM246 -69l90 844h-78l-89 -844h77z" />
    <glyph glyph-name="dblparenleft" horiz-adv-x="482" 
d="M254 -172l-47 -49c-101 99 -189 255 -164 504c27 256 159 410 268 483l38 -48c-93 -75 -207 -201 -231 -435c-22 -207 45 -354 136 -455zM406 -116l-48 -48c-102 99 -181 227 -158 447c22 208 131 338 245 427l39 -47c-94 -76 -189 -185 -209 -380
c-21 -191 38 -297 131 -399z" />
    <glyph glyph-name="dblparenleft.cap" horiz-adv-x="486" 
d="M264 -103l-47 -49c-101 99 -189 255 -164 504c27 256 159 410 268 483l38 -48c-93 -75 -207 -201 -231 -435c-22 -207 45 -354 136 -455zM416 -47l-48 -48c-102 99 -181 227 -158 447c22 208 131 338 245 427l39 -47c-94 -76 -189 -185 -209 -380
c-21 -191 38 -297 131 -399z" />
    <glyph glyph-name="dblparenright" horiz-adv-x="482" 
d="M166 -221l-37 49c113 101 211 248 233 455c24 234 -63 360 -141 435l49 48c93 -73 193 -227 166 -483c-26 -249 -147 -405 -270 -504zM27 -164l-37 48c113 102 195 208 215 399c21 195 -52 304 -129 380l48 47c96 -89 177 -219 155 -427c-23 -220 -129 -348 -252 -447z
" />
    <glyph glyph-name="dblparenright.cap" horiz-adv-x="488" 
d="M174 -152l-37 49c113 101 211 248 233 455c24 234 -63 360 -141 435l49 48c93 -73 193 -227 166 -483c-26 -249 -147 -405 -270 -504zM35 -95l-37 48c113 102 195 208 215 399c21 195 -52 304 -129 380l48 47c96 -89 177 -219 155 -427c-23 -220 -129 -348 -252 -447z
" />
    <glyph glyph-name="asciicircum" unicode="^" horiz-adv-x="545" 
d="M14 294l205 413h101l104 -413h-79l-81 359l-171 -359h-79z" />
    <glyph glyph-name="asciitilde" unicode="~" horiz-adv-x="581" 
d="M401 285c-101 0 -140 60 -217 60c-43 0 -70 -17 -90 -30l-34 54c30 25 78 53 133 53c102 0 126 -62 212 -62c33 0 58 11 87 33l39 -48c-35 -36 -78 -60 -130 -60z" />
    <glyph glyph-name="degree" unicode="&#xb0;" horiz-adv-x="401" 
d="M207 404c-99 0 -147 54 -137 158c9 92 83 155 174 155c96 0 151 -57 141 -155c-11 -98 -83 -158 -178 -158zM215 458c59 0 95 37 103 104c6 62 -23 101 -81 101c-57 0 -94 -38 -101 -101c-8 -70 27 -104 79 -104z" />
    <glyph glyph-name="section" unicode="&#xa7;" horiz-adv-x="566" 
d="M107 -55c-42 0 -79 13 -111 40l32 64c21 -17 58 -37 85 -37c51 0 61 73 61 111c0 31 -4 63 -8 95l-3 32c-2 22 -4 46 -4 68c0 164 90 281 261 281c52 0 101 -13 142 -44l-32 -60c-33 22 -77 39 -117 39c-51 0 -55 -62 -55 -101c0 -14 1 -29 3 -43l6 -50
c4 -37 8 -74 8 -108c0 -162 -101 -287 -268 -287zM216 23c64 39 88 117 88 189c0 23 -3 48 -5 72l-6 63c-2 23 -4 42 -4 63c0 35 2 79 22 109l-2 3c-62 -37 -76 -115 -76 -181c0 -20 1 -40 3 -60l6 -62c3 -25 4 -49 4 -74c0 -48 -5 -80 -31 -120z" />
    <glyph glyph-name="section.pln" horiz-adv-x="438" 
d="M69 -216c-42 0 -78 13 -111 39l32 64c22 -17 58 -37 86 -37c51 0 59 73 59 111c0 31 -3 63 -7 95l-40 353c-2 23 -4 46 -4 69c0 164 87 281 259 281c52 0 101 -13 142 -44l-33 -59c-33 21 -77 39 -116 39c-52 0 -55 -63 -55 -101c0 -15 1 -29 3 -44l46 -367
c5 -37 8 -76 8 -113c0 -162 -102 -286 -269 -286zM178 -138c65 39 88 117 88 188c0 24 -2 48 -5 73l-46 384c-2 22 -3 42 -3 63c0 36 2 80 21 110l-2 2c-61 -37 -76 -115 -76 -181c0 -20 1 -40 3 -60l46 -384c3 -24 4 -49 4 -75c0 -47 -5 -78 -31 -118z" />
    <glyph glyph-name="bullet" unicode="&#x2022;" horiz-adv-x="388" 
d="M199 208c-81 0 -146 64 -146 144s65 145 145 145s145 -65 145 -145s-65 -144 -144 -144z" />
    <glyph glyph-name="paragraph" unicode="&#xb6;" horiz-adv-x="576" 
d="M262 -220c-24 0 -47 3 -68 11l21 61c12 -4 43 -5 55 -5c87 0 111 60 120 136l75 724h76l-76 -725c-14 -127 -72 -202 -203 -202zM250 270c-122 0 -201 56 -201 184c0 161 85 253 246 253h77l-45 -437h-77z" />
    <glyph glyph-name="numbersign" unicode="#" horiz-adv-x="596" 
d="M95 0l24 153h-89l8 64h92l21 131h-99l6 65h104l25 154h71l-24 -154h171l23 154h72l-24 -154h84l-6 -65h-89l-21 -131h96l-8 -64h-99l-24 -153h-72l25 153h-171l-24 -153h-72zM201 217h171l22 131h-171z" />
    <glyph glyph-name="numbersign.pln" horiz-adv-x="617" 
d="M99 0l26 160h-88l8 67h91l41 253h-106l7 66h109l26 161h72l-25 -161h168l26 161h73l-27 -161h89l-7 -66h-92l-40 -253h106l-8 -67h-110l-25 -160h-72l25 160h-169l-26 -160h-72zM209 227h168l40 253h-168z" />
    <glyph glyph-name="percent" unicode="%" horiz-adv-x="782" 
d="M205 388c-84 0 -135 45 -135 131c0 101 64 195 172 195c87 0 137 -42 137 -131c0 -104 -64 -195 -174 -195zM211 445c72 0 103 66 103 129c0 51 -23 86 -77 86c-73 0 -100 -76 -100 -137c0 -49 22 -78 74 -78zM548 -9c-84 0 -135 45 -135 131c0 102 64 195 173 195
c86 0 137 -42 137 -131c0 -104 -64 -195 -175 -195zM554 48c72 0 103 66 103 129c0 51 -23 86 -77 86c-72 0 -100 -75 -100 -136c0 -50 23 -79 74 -79zM112 61l-39 42l587 531l38 -42z" />
    <glyph glyph-name="perthousand" unicode="&#x2030;" horiz-adv-x="1136" 
d="M205 388c-84 0 -136 45 -136 131c0 101 64 195 172 195c87 0 137 -42 137 -132c0 -103 -64 -194 -173 -194zM210 445c72 0 103 66 103 129c0 51 -23 86 -77 86c-72 0 -100 -76 -100 -137c0 -49 22 -78 74 -78zM544 -9c-84 0 -135 45 -135 131c0 102 64 195 172 195
c86 0 138 -42 138 -131c0 -104 -64 -195 -175 -195zM550 48c72 0 102 66 102 129c0 51 -22 86 -77 86c-71 0 -99 -75 -99 -136c0 -50 22 -79 74 -79zM903 -9c-84 0 -135 45 -135 131c0 102 64 195 172 195c87 0 138 -42 138 -131c0 -104 -64 -195 -175 -195zM909 48
c72 0 103 66 103 129c0 51 -23 86 -77 86c-72 0 -100 -75 -100 -136c0 -50 22 -79 74 -79zM107 59l-36 44l588 532l36 -43z" />
    <glyph glyph-name="ordfeminine" unicode="&#xaa;" horiz-adv-x="397" 
d="M161 387c-52 0 -68 52 -68 111c0 120 80 218 191 218c19 0 45 -3 65 -7l-34 -317h-59l7 49c-37 -33 -68 -54 -102 -54zM172 440c25 0 77 40 95 56l18 166l-16 1c-63 3 -118 -78 -118 -160c0 -61 13 -63 21 -63zM62 296l6 55h278l-7 -55h-277z" />
    <glyph glyph-name="ordfeminine.smcp" horiz-adv-x="451" 
d="M82 395l154 315h82l74 -315h-63l-22 99h-118l-46 -99h-61zM57 296l7 55h334l-7 -55h-334zM211 539h86l-27 127z" />
    <glyph glyph-name="ordmasculine" unicode="&#xba;" horiz-adv-x="405" 
d="M207 385c-66 0 -110 58 -110 129c0 120 57 206 155 206c75 0 109 -64 109 -131c0 -92 -40 -204 -154 -204zM216 435c61 0 85 96 85 152c0 40 -18 83 -60 83c-63 0 -83 -92 -83 -149c0 -41 14 -86 58 -86zM62 298l7 53h278l-7 -53h-278z" />
    <glyph glyph-name="dagger" unicode="&#x2020;" horiz-adv-x="469" 
d="M163 0l61 517l-169 -7l8 72l167 -7l11 179h80l-25 -179l168 7l-7 -72l-166 7l-49 -517h-79z" />
    <glyph glyph-name="daggerdbl" unicode="&#x2021;" horiz-adv-x="510" 
d="M183 0l25 177l-167 -5l8 72l165 -7l30 279l-168 -6l8 72l165 -6l14 178h79l-25 -178l168 6l-8 -72l-166 6l-30 -279l169 7l-8 -72l-167 5l-13 -177h-79z" />
    <glyph glyph-name="quotesingle" unicode="'" horiz-adv-x="172" 
d="M82 560l20 204h69l-31 -204h-58z" />
    <glyph glyph-name="quotedbl" unicode="&#x22;" horiz-adv-x="323" 
d="M82 560l20 204h69l-32 -204h-57zM233 560l20 203h69l-31 -203h-58z" />
    <glyph glyph-name="quotedblleft" unicode="&#x201c;" horiz-adv-x="344" 
d="M79 556c4 100 33 156 67 207h59c-32 -70 -43 -152 -47 -207h-79zM232 556c5 100 34 156 68 207h59c-33 -70 -44 -152 -47 -207h-80z" />
    <glyph glyph-name="quotedblleft.smcp" horiz-adv-x="363" 
d="M72 458c4 99 33 155 67 207h59c-32 -70 -43 -153 -47 -207h-79zM225 458c5 99 34 155 68 207h59c-33 -70 -44 -153 -47 -207h-80z" />
    <glyph glyph-name="quotedblright" unicode="&#x201d;" horiz-adv-x="341" 
d="M71 556c32 71 43 153 47 207h80c-5 -99 -34 -155 -68 -207h-59zM225 556c32 71 42 153 46 207h80c-5 -99 -33 -155 -68 -207h-58z" />
    <glyph glyph-name="quotedblright.smcp" horiz-adv-x="360" 
d="M66 456c33 70 44 153 47 207h80c-5 -100 -34 -155 -68 -207h-59zM220 456c32 70 43 153 47 207h79c-4 -100 -33 -155 -67 -207h-59z" />
    <glyph glyph-name="quoteleft" unicode="&#x2018;" horiz-adv-x="191" 
d="M79 556c5 100 33 156 67 207h59c-32 -70 -42 -152 -47 -207h-79z" />
    <glyph glyph-name="quoteleft.smcp" horiz-adv-x="209" 
d="M71 454c5 99 34 155 68 207h58c-32 -70 -42 -153 -47 -207h-79z" />
    <glyph glyph-name="quoteright" unicode="&#x2019;" horiz-adv-x="188" 
d="M71 556c32 71 43 153 47 207h79c-4 -99 -33 -155 -67 -207h-59z" />
    <glyph glyph-name="quoteright.smcp" horiz-adv-x="206" 
d="M66 456c33 70 43 153 47 207h79c-4 -100 -33 -156 -67 -207h-59z" />
    <glyph glyph-name="quotesinglbase" unicode="&#x201a;" horiz-adv-x="208" 
d="M-4 -121c32 70 43 152 47 206h79c-4 -99 -33 -155 -67 -206h-59z" />
    <glyph glyph-name="quotedblbase" unicode="&#x201e;" horiz-adv-x="361" 
d="M-4 -121c33 70 43 152 47 206h79c-5 -99 -33 -155 -67 -206h-59zM150 -121c32 70 43 152 47 206h78c-4 -99 -33 -155 -67 -206h-58z" />
    <glyph glyph-name="guilsinglleft" unicode="&#x2039;" horiz-adv-x="257" 
d="M123 52l-83 220l129 220l54 -22l-108 -198l65 -195z" />
    <glyph glyph-name="guilsinglright.cap" horiz-adv-x="256" 
d="M88 124l-52 25l106 195l-65 198l58 22l82 -220z" />
    <glyph glyph-name="guilsinglright" unicode="&#x203a;" horiz-adv-x="257" 
d="M81 52l-52 25l106 195l-65 198l58 22l82 -220z" />
    <glyph glyph-name="guilsinglleft.cap" horiz-adv-x="256" 
d="M130 124l-83 220l129 220l54 -22l-108 -198l65 -195z" />
    <glyph glyph-name="guillemotleft" unicode="&#xab;" horiz-adv-x="432" 
d="M123 52l-83 220l129 220l54 -22l-108 -198l66 -195zM298 52l-83 220l130 220l53 -22l-108 -198l66 -195z" />
    <glyph glyph-name="guillemotleft.cap" horiz-adv-x="432" 
d="M130 124l-83 220l129 220l54 -22l-108 -198l66 -195zM305 124l-83 220l130 220l53 -22l-108 -198l66 -195z" />
    <glyph glyph-name="guillemotright" unicode="&#xbb;" horiz-adv-x="432" 
d="M81 52l-52 25l106 195l-66 198l59 22l82 -220zM256 52l-52 25l106 195l-66 198l59 22l82 -220z" />
    <glyph glyph-name="guillemotright.cap" horiz-adv-x="431" 
d="M88 124l-52 25l106 195l-66 198l59 22l82 -220zM263 124l-52 25l106 195l-66 198l59 22l82 -220z" />
    <glyph glyph-name="asterisk" unicode="*" horiz-adv-x="427" 
d="M94 466l-28 60l105 44l17 -38zM174 598l-96 45l41 60l82 -65zM189 408l24 109h46l-1 -109h-69zM228 652l-1 110h69l-23 -110h-45zM366 466l-82 64l28 40l95 -43zM314 600l-18 38l95 65l28 -59z" />
    <glyph glyph-name="asterisk.alt" horiz-adv-x="343" 
d="M336 698l-92 -54l43 -99l-80 71l-81 -71l43 99l-92 54l107 -10l23 104l23 -104z" />
    <glyph glyph-name="periodcentered" unicode="&#xb7;" horiz-adv-x="238" 
d="M117 294l-59 65l73 63l60 -63z" />
    <glyph glyph-name="f_i" horiz-adv-x="558" 
d="M48 -205l73 688h-80l7 63h80l3 26c17 159 101 202 203 202c38 0 97 -7 151 -7c23 0 45 3 64 5l9 -56c-31 -11 -71 -15 -107 -15c-48 0 -94 6 -125 6c-84 0 -110 -54 -120 -136l-2 -25h301l-57 -546h-76l50 483h-225l-73 -688h-76z" />
    <glyph glyph-name="f_l" horiz-adv-x="557" 
d="M48 -205l73 688h-80l7 63h80l3 26c17 159 101 202 203 202c41 0 94 -7 145 -7c17 0 34 0 50 2l-82 -769h-75l74 703c-40 -2 -86 4 -120 4c-84 0 -110 -54 -120 -136l-2 -25h116l-7 -63h-116l-73 -688h-76z" />
    <glyph glyph-name="brokenbar" unicode="&#xa6;" horiz-adv-x="277" 
d="M46 -220l38 362h74l-38 -362h-74zM111 392l38 361h74l-38 -361h-74z" />
    <glyph glyph-name="minus" unicode="&#x2212;" horiz-adv-x="468" 
d="M5 319l6 68h389l-8 -68h-387z" />
    <glyph glyph-name="plus" unicode="+" horiz-adv-x="575" 
d="M221 54l23 216h-215l8 66l214 -1l23 222h69l-25 -223l228 2l-8 -66h-227l-22 -216h-68z" />
    <glyph glyph-name="multiply" unicode="&#xd7;" horiz-adv-x="547" 
d="M427 81l-160 180l-191 -173l-43 48l191 173l-154 171l51 47l153 -172l196 176l44 -48l-198 -177l162 -179z" />
    <glyph glyph-name="less" unicode="&#x3c;" horiz-adv-x="503" 
d="M422 64l-384 190l10 99l424 192l-8 -74l-370 -168l335 -164z" />
    <glyph glyph-name="equal" unicode="=" horiz-adv-x="697" 
d="M87 166l7 66h494l-7 -66h-494zM109 376l7 66h494l-7 -66h-494z" />
    <glyph glyph-name="greater" unicode="&#x3e;" horiz-adv-x="502" 
d="M30 64l8 75l369 164l-334 168l8 74l383 -192l-10 -99z" />
    <glyph glyph-name="infinity" unicode="&#x221e;" horiz-adv-x="942" 
d="M223 193c-87 0 -148 44 -148 135c0 108 79 181 185 181c94 0 166 -67 237 -120c77 49 167 120 262 120c85 0 151 -44 151 -134c0 -108 -85 -180 -189 -180c-94 0 -167 67 -237 121c-73 -48 -170 -123 -261 -123zM235 254c66 0 149 62 203 97c-50 38 -120 99 -186 99
c-64 0 -111 -47 -111 -111c0 -57 40 -85 94 -85zM732 254c64 0 111 47 111 111c0 57 -41 85 -95 85c-67 0 -151 -61 -205 -97c52 -39 121 -99 189 -99z" />
    <glyph glyph-name="plusminus" unicode="&#xb1;" horiz-adv-x="545" 
d="M219 123l19 183h-183l7 67l183 -1l20 184h71l-21 -184l184 1l-7 -67h-183l-19 -183h-71zM23 0l7 68h437l-7 -68h-437z" />
    <glyph glyph-name="lessequal" unicode="&#x2264;" horiz-adv-x="600" 
d="M498 144l-410 159l10 101l445 159l-8 -74l-387 -136l358 -135zM50 0l8 69h438l-8 -69h-438z" />
    <glyph glyph-name="notequal" unicode="&#x2260;" horiz-adv-x="600" 
d="M14 11l138 155h-115l7 66h166l129 144h-279l6 66h331l126 139h66l-125 -139h98l-6 -66h-149l-128 -144h262l-8 -66h-312l-138 -155h-69z" />
    <glyph glyph-name="greaterequal" unicode="&#x2265;" horiz-adv-x="600" 
d="M70 144l8 74l387 135l-358 136l8 74l411 -159l-11 -101zM50 0l8 69h437l-7 -69h-438z" />
    <glyph glyph-name="divide" unicode="&#xf7;" horiz-adv-x="643" 
d="M251 68l8 78h80l-9 -78h-79zM63 270l7 66h509l-7 -66h-509zM292 461l9 79h79l-8 -79h-80z" />
    <glyph glyph-name="logicalnot" unicode="&#xac;" horiz-adv-x="617" 
d="M449 112l16 158h-402l6 67h475l-24 -225h-71z" />
    <glyph glyph-name="approxequal" unicode="&#x2248;" horiz-adv-x="600" 
d="M387 133c-101 0 -135 63 -210 63c-42 0 -70 -17 -92 -31l-32 50c32 27 83 56 138 56c101 0 120 -62 205 -62c33 0 58 10 91 33l37 -45c-38 -37 -86 -64 -137 -64zM410 344c-101 0 -136 63 -211 63c-42 0 -70 -17 -92 -31l-31 50c32 27 82 56 137 56
c101 0 121 -62 206 -62c33 0 57 11 90 33l37 -45c-38 -37 -85 -64 -136 -64z" />
    <glyph glyph-name="mho" unicode="&#x2127;" horiz-adv-x="859" 
d="M813 707l-7 -71h-167c69 -36 149 -131 149 -267c0 -225 -161 -380 -387 -380c-206 0 -304 135 -304 309c0 144 86 284 212 338h-171l7 71h270l-6 -69c-144 -77 -228 -191 -228 -334c0 -142 71 -247 231 -247c192 0 296 144 296 313c0 134 -91 219 -168 268l6 69h267z" />
    <glyph glyph-name="nabla" unicode="&#x2207;" horiz-adv-x="608" 
d="M566 639h-435l120 -538l12 -61l28 61zM682 707l-365 -707h-118l-166 707h649z" />
    <glyph glyph-name="coproduct" unicode="&#x2210;" horiz-adv-x="708" 
d="M653 706l-90 -859h100l-7 -67h-697l7 67h101l90 859h83l-90 -859h330l90 859h83z" />
    <glyph glyph-name="radical" unicode="&#x221a;" horiz-adv-x="615" 
d="M251 0l-74 478h-134l6 68h199l69 -484l309 775h75l-338 -837h-112z" />
    <glyph glyph-name="partialdiff" unicode="&#x2202;" horiz-adv-x="560" 
d="M196 -13c-84 0 -151 46 -151 183c0 146 84 264 238 264c50 0 87 -8 135 -21c-12 127 -77 208 -197 244l27 63c168 -43 251 -166 251 -343c0 -171 -94 -390 -303 -390zM200 50c158 0 214 178 219 302c-51 10 -90 20 -144 20c-108 0 -154 -101 -154 -199
c0 -79 28 -123 79 -123z" />
    <glyph glyph-name="summation" unicode="&#x2211;" horiz-adv-x="499" 
d="M-18 -220l6 61l226 402l-143 402l6 62h448l-7 -68h-369l145 -394l-225 -394h366l-7 -71h-446z" />
    <glyph glyph-name="product" unicode="&#x220f;" horiz-adv-x="706" 
d="M55 -219l90 859h-100l7 67h697l-7 -67h-101l-90 -859h-83l90 859h-330l-90 -859h-83z" />
    <glyph glyph-name="lozenge" unicode="&#x25ca;" horiz-adv-x="541" 
d="M173 0l-149 357l229 351h112l149 -354l-231 -354h-110zM233 54l192 296l-121 304l-192 -296z" />
    <glyph glyph-name="integral" unicode="&#x222b;" horiz-adv-x="433" 
d="M-90 -231l1 65c93 9 178 2 192 136l57 548c20 191 150 201 274 201l-2 -67c-93 -10 -180 0 -194 -133l-58 -550c-20 -188 -146 -200 -270 -200z" />
    <glyph glyph-name="uni0400" unicode="&#x400;" horiz-adv-x="567" 
d="M423 736l-220 65l27 72l211 -82zM67 0l75 707h393l-7 -65h-314l-26 -254h291l-6 -66h-292l-27 -257h337l-7 -65h-417z" />
    <glyph glyph-name="uni0401" unicode="&#x401;" horiz-adv-x="567" 
d="M243 749l-50 59l62 56l50 -56zM448 749l-49 59l61 56l51 -56zM67 0l75 707h393l-7 -65h-314l-26 -254h291l-6 -66h-292l-27 -257h337l-7 -65h-417z" />
    <glyph glyph-name="uni0402" unicode="&#x402;" horiz-adv-x="731" 
d="M391 -220l-41 56c30 23 249 172 249 398c0 90 -46 133 -127 133c-51 0 -125 -18 -182 -47l-34 -320h-79l67 640h-205l8 67h536l-7 -67h-253l-25 -249c62 23 129 42 201 42c130 0 182 -82 182 -195c0 -206 -151 -362 -290 -458z" />
    <glyph glyph-name="uni0403" unicode="&#x403;" horiz-adv-x="479" 
d="M258 737l-16 54l229 80l19 -70zM67 0l75 707h404l-6 -67h-326l-67 -640h-80z" />
    <glyph glyph-name="uni0404" unicode="&#x404;" horiz-adv-x="637" 
d="M378 -10c-194 0 -319 121 -319 320c0 242 146 403 392 403c67 0 116 -7 164 -28l-27 -63c-51 18 -81 23 -143 23c-172 0 -274 -103 -298 -256h380l-7 -67h-378c0 -3 1 -18 1 -21c6 -157 106 -240 261 -240c54 0 103 5 152 21l15 -66c-66 -21 -124 -26 -193 -26z" />
    <glyph glyph-name="uni0405" unicode="&#x405;" horiz-adv-x="523" 
d="M210 -11c-64 0 -151 22 -196 48l31 67c49 -23 111 -45 171 -45c89 0 166 31 166 134c0 132 -291 143 -291 342c0 121 106 180 225 180c72 0 140 -20 178 -41l-26 -62c-41 18 -100 34 -155 34c-74 0 -144 -25 -144 -109c0 -131 292 -156 292 -342
c0 -139 -115 -206 -251 -206z" />
    <glyph glyph-name="uni0406" unicode="&#x406;" horiz-adv-x="278" 
d="M67 0l75 707h79l-74 -707h-80z" />
    <glyph glyph-name="uni0407" unicode="&#x407;" horiz-adv-x="278" 
d="M67 0l75 707h79l-74 -707h-80zM84 749l-50 59l62 56l50 -56zM289 749l-49 59l61 56l51 -56z" />
    <glyph glyph-name="uni0408" unicode="&#x408;" horiz-adv-x="279" 
d="M-62 -187l-27 59c126 66 159 139 174 279l58 556h79l-58 -554c-16 -160 -67 -273 -226 -340z" />
    <glyph glyph-name="uni0409" unicode="&#x409;" horiz-adv-x="962" 
d="M2 -22l-32 73c54 24 107 66 133 109c40 65 86 253 130 547h369l-67 -642c2 -1 118 -1 120 -1c107 0 175 53 183 155c10 110 -64 144 -165 144h-43l7 67h48c149 0 239 -62 239 -189c0 -7 -1 -16 -2 -24c-10 -141 -120 -217 -263 -217h-210l66 641h-215
c-49 -251 -76 -428 -134 -525c-39 -63 -89 -106 -164 -138z" />
    <glyph glyph-name="uni040A" unicode="&#x40a;" horiz-adv-x="987" 
d="M67 0l75 707h79l-31 -298h334l31 298h80l-67 -642c2 -1 116 -1 119 -1c102 0 166 49 174 144l1 18c0 90 -67 116 -159 116h-40l6 67h45c146 0 234 -59 234 -179c0 -7 -1 -16 -2 -23c-10 -134 -116 -207 -254 -207h-211l37 343h-335l-36 -343h-80z" />
    <glyph glyph-name="uni040B" unicode="&#x40b;" horiz-adv-x="742" 
d="M177 0l67 640h-205l8 67h536l-7 -67h-253l-24 -249c62 25 141 43 204 43c144 0 186 -72 186 -158c0 -11 -1 -23 -2 -35l-26 -241h-79l26 246c1 7 1 14 1 19c0 95 -89 103 -144 103c-42 0 -113 -16 -174 -48l-35 -320h-79z" />
    <glyph glyph-name="uni040C" unicode="&#x40c;" horiz-adv-x="602" 
d="M480 -19l-270 386l1 16l308 324h100l-318 -327l252 -359zM67 0l75 707h79l-74 -707h-80zM282 737l-16 54l229 80l19 -70z" />
    <glyph glyph-name="uni040D" unicode="&#x40d;" horiz-adv-x="757" 
d="M506 736l-220 65l27 72l211 -82zM67 0l75 707h79l-51 -489l-14 -106l71 105l393 490h79l-74 -707h-80l51 489l14 106l-48 -70l-415 -525h-80z" />
    <glyph glyph-name="uni040E" unicode="&#x40e;" horiz-adv-x="557" 
d="M122 -9l-24 71c62 20 109 44 152 126l18 32h-38l-189 487h88l167 -434l213 434h88l-275 -527c-71 -135 -116 -158 -200 -189zM319 755c-73 0 -129 32 -162 84l48 43c35 -49 86 -58 121 -58c32 0 85 9 131 58l41 -43c-45 -54 -108 -84 -179 -84z" />
    <glyph glyph-name="uni040F" unicode="&#x40f;" horiz-adv-x="722" 
d="M276 -153l16 153h-224l74 707h80l-66 -641h362l66 641h80l-73 -707h-222l-15 -153h-78z" />
    <glyph glyph-name="uni0410" unicode="&#x410;" horiz-adv-x="636" 
d="M-34 0l352 707h118l148 -707h-82l-53 266h-270l-131 -266h-82zM210 330h225l-53 276l-11 60l-27 -61z" />
    <glyph glyph-name="uni0411" unicode="&#x411;" horiz-adv-x="607" 
d="M68 0l73 707h416l-6 -67h-337l-59 -575c2 -1 124 -1 126 -1c108 0 178 52 186 153c9 110 -66 142 -168 142h-51l7 66h56c149 0 241 -58 241 -184c0 -13 -1 -27 -3 -40c-18 -128 -125 -201 -263 -201h-218z" />
    <glyph glyph-name="uni0412" unicode="&#x412;" horiz-adv-x="614" 
d="M67 0l75 707h192c103 0 202 -33 202 -157c0 -74 -41 -151 -117 -172v-3c78 -10 131 -72 131 -150c0 -158 -110 -225 -260 -225h-223zM155 66h123c108 0 190 26 190 152c0 114 -116 115 -200 115h-86zM189 396h100c102 0 162 36 162 146c0 91 -70 103 -145 103h-91z" />
    <glyph glyph-name="uni0413" unicode="&#x413;" horiz-adv-x="508" 
d="M67 0l75 707h404l-6 -67h-326l-67 -640h-80z" />
    <glyph glyph-name="uni0414" unicode="&#x414;" horiz-adv-x="700" 
d="M-41 -153l23 219h59c42 66 81 144 102 191c18 41 71 220 107 450h364l-67 -641h90l-22 -219h-78l15 153h-501l-15 -153h-77zM131 66h336l59 574h-212c-40 -221 -83 -357 -94 -389c-22 -58 -46 -107 -89 -185z" />
    <glyph glyph-name="uni0415" unicode="&#x415;" horiz-adv-x="567" 
d="M67 0l75 707h393l-7 -65h-314l-26 -254h291l-6 -66h-292l-27 -257h337l-7 -65h-417z" />
    <glyph glyph-name="uni0416" unicode="&#x416;" horiz-adv-x="876" 
d="M59 -24l-73 43l306 365l-215 323h90l211 -328l-2 -16zM755 -24l-249 387l2 15l280 329h100l-294 -329l234 -359zM364 0l74 707h79l-73 -707h-80z" />
    <glyph glyph-name="uni0417" unicode="&#x417;" horiz-adv-x="532" 
d="M200 -9c-97 0 -158 24 -195 44l32 65c43 -22 99 -39 167 -39c91 0 170 36 179 136c9 94 -65 126 -168 126h-69l8 66h69c92 0 157 48 165 133c7 81 -40 124 -125 124c-62 0 -109 -18 -148 -32l-20 58c45 20 103 40 183 40c136 0 200 -75 192 -174
c-10 -114 -94 -163 -126 -177v-2c32 -9 131 -38 121 -160c-8 -98 -81 -208 -265 -208z" />
    <glyph glyph-name="uni0418" unicode="&#x418;" horiz-adv-x="757" 
d="M67 0l75 707h79l-51 -489l-14 -106l71 105l393 490h79l-74 -707h-80l51 489l14 106l-48 -70l-415 -525h-80z" />
    <glyph glyph-name="uni0419" unicode="&#x419;" horiz-adv-x="757" 
d="M429 755c-73 0 -129 32 -162 84l48 43c35 -49 86 -58 121 -58c32 0 85 9 131 58l41 -43c-45 -54 -108 -84 -179 -84zM67 0l75 707h79l-51 -489l-14 -106l71 105l393 490h79l-74 -707h-80l51 489l14 106l-48 -70l-415 -525h-80z" />
    <glyph glyph-name="uni041A" unicode="&#x41a;" horiz-adv-x="602" 
d="M480 -19l-270 386l1 16l308 324h100l-318 -327l252 -359zM67 0l75 707h79l-74 -707h-80z" />
    <glyph glyph-name="uni041B" unicode="&#x41b;" horiz-adv-x="660" 
d="M2 -22l-32 73c54 24 107 66 133 109c40 65 86 253 130 547h369l-73 -707h-80l66 641h-215c-49 -251 -76 -428 -134 -525c-39 -63 -89 -106 -164 -138z" />
    <glyph glyph-name="uni041C" unicode="&#x41c;" horiz-adv-x="889" 
d="M6 0l231 707h107l53 -661l296 661h106l-20 -707h-78l24 610l-273 -610h-126l-49 612l-192 -612h-79z" />
    <glyph glyph-name="uni041D" unicode="&#x41d;" horiz-adv-x="738" 
d="M67 0l75 707h79l-33 -320h380l33 320h80l-74 -707h-80l35 322h-381l-34 -322h-80z" />
    <glyph glyph-name="uni041E" unicode="&#x41e;" horiz-adv-x="801" 
d="M359 -11c-194 0 -299 126 -299 318c0 241 145 411 390 411c194 0 301 -125 301 -318c0 -242 -145 -411 -392 -411zM369 55c199 0 299 154 299 342c0 150 -76 253 -230 253c-195 0 -297 -151 -297 -338c0 -148 73 -257 228 -257z" />
    <glyph glyph-name="uni041F" unicode="&#x41f;" horiz-adv-x="728" 
d="M67 0l75 708h529l-74 -708h-80l68 640h-371l-67 -640h-80z" />
    <glyph glyph-name="uni0420" unicode="&#x420;" horiz-adv-x="592" 
d="M67 0l75 707h229c122 0 207 -62 207 -190c0 -184 -142 -258 -307 -257h-20l7 66c14 0 31 0 43 1c111 8 192 53 192 183c0 98 -62 133 -150 133h-128l-67 -643h-81z" />
    <glyph glyph-name="uni0421" unicode="&#x421;" horiz-adv-x="630" 
d="M378 -10c-194 0 -319 121 -319 320c0 242 146 403 392 403c67 0 116 -7 164 -28l-27 -63c-51 18 -81 23 -143 23c-198 0 -304 -136 -304 -330c0 -166 103 -254 263 -254c54 0 103 5 152 21l15 -66c-66 -21 -124 -26 -193 -26z" />
    <glyph glyph-name="uni0422" unicode="&#x422;" horiz-adv-x="571" 
d="M212 0l67 640h-242l8 67h563l-8 -67h-241l-67 -640h-80z" />
    <glyph glyph-name="uni0423" unicode="&#x423;" horiz-adv-x="557" 
d="M122 -9l-24 71c62 20 109 44 152 126l18 32h-38l-189 487h88l167 -434l213 434h88l-275 -527c-71 -135 -116 -158 -200 -189z" />
    <glyph glyph-name="uni0424" unicode="&#x424;" horiz-adv-x="782" 
d="M320 0l9 85c-167 0 -283 79 -283 254c0 207 141 320 342 322l8 76h79l-8 -76c168 0 283 -79 283 -255c0 -207 -143 -319 -342 -321l-9 -85h-79zM335 151l46 444c-153 0 -256 -87 -256 -247c0 -129 80 -197 210 -197zM415 151c155 0 255 93 255 248
c0 130 -79 196 -209 196z" />
    <glyph glyph-name="uni0425" unicode="&#x425;" horiz-adv-x="588" 
d="M-27 0l290 373l-163 334h89l127 -273l202 273h87l-256 -333l184 -374h-89l-148 309l-231 -309h-92z" />
    <glyph glyph-name="uni0426" unicode="&#x426;" horiz-adv-x="750" 
d="M587 -153l16 153h-535l74 707h80l-66 -641h362l66 641h80l-67 -641h90l-22 -219h-78z" />
    <glyph glyph-name="uni0427" unicode="&#x427;" horiz-adv-x="630" 
d="M418 0l34 324c-61 -26 -131 -42 -198 -42c-151 0 -193 71 -193 157c0 12 0 23 2 35l24 233h79l-25 -238c-1 -7 -1 -14 -1 -19c0 -95 89 -103 136 -103c55 0 122 16 183 48l32 312h81l-74 -707h-80z" />
    <glyph glyph-name="uni0428" unicode="&#x428;" horiz-adv-x="981" 
d="M68 0l74 707h80l-66 -641h270l67 641h80l-67 -641h271l66 641h80l-73 -707h-782z" />
    <glyph glyph-name="uni0429" unicode="&#x429;" horiz-adv-x="1009" 
d="M846 -153l16 153h-794l74 707h80l-66 -641h270l67 641h80l-67 -641h271l66 641h80l-67 -641h91l-23 -219h-78z" />
    <glyph glyph-name="uni042A" unicode="&#x42a;" horiz-adv-x="679" 
d="M165 0l66 640h-191l7 67h271l-67 -642c2 -1 117 -1 120 -1c107 0 174 54 182 155c11 111 -63 144 -164 144h-45l7 67h49c150 0 239 -61 239 -188c0 -8 0 -17 -1 -25c-11 -141 -120 -217 -263 -217h-210z" />
    <glyph glyph-name="uni042B" unicode="&#x42b;" horiz-adv-x="837" 
d="M625 0l75 707h79l-74 -707h-80zM141 707h80l-67 -642c2 -1 117 -1 120 -1c107 0 175 54 182 155c1 7 1 14 1 20c0 95 -70 124 -165 124h-49l6 67h55c149 0 238 -62 238 -189c0 -7 0 -16 -1 -24c-10 -141 -120 -217 -263 -217h-210z" />
    <glyph glyph-name="uni042C" unicode="&#x42c;" horiz-adv-x="582" 
d="M141 707h80l-67 -642c2 -1 117 -1 120 -1c107 0 175 54 182 155c1 7 1 14 1 20c0 95 -70 124 -165 124h-49l6 67h55c149 0 238 -62 238 -189c0 -7 0 -16 -1 -24c-10 -141 -120 -217 -263 -217h-210z" />
    </font>
</defs>
</svg>
